<svg width="400" height="320" viewBox="0 0 400 320" fill="none" xmlns="http://www.w3.org/2000/svg">
<path d="M305.11 265.953C304.845 265.953 304.58 265.918 304.323 265.844C302.446 265.297 300.617 264.61 298.879 263.797C297.141 262.989 295.442 262.029 293.817 260.943C292.948 260.365 292.474 259.344 292.587 258.305L293.712 248.107C291.844 246.195 290.18 244.031 288.746 241.641L280.607 241.902C279.386 241.937 278.3 241.203 277.883 240.073C276.427 236.127 275.428 231.895 274.915 227.498C274.82 226.69 275.08 225.877 275.632 225.278L282.789 217.461C282.871 213.824 283.327 210.139 284.149 206.485C284.488 204.973 285.991 204.021 287.499 204.36C289.011 204.703 289.962 206.202 289.624 207.714C288.811 211.338 288.394 214.988 288.39 218.573C288.39 219.272 288.124 219.946 287.651 220.463L280.651 228.106C281.046 230.913 281.663 233.633 282.493 236.227L290.258 235.98C291.327 235.936 292.313 236.514 292.822 237.453C294.386 240.36 296.319 242.906 298.57 245.018C299.213 245.622 299.535 246.491 299.439 247.368L298.357 257.18C299.305 257.74 300.274 258.257 301.251 258.714C302.233 259.17 303.25 259.583 304.293 259.943L311.11 252.809C311.723 252.174 312.601 251.861 313.474 251.961C316.542 252.331 319.736 252.174 322.964 251.505C324.007 251.292 325.084 251.683 325.741 252.522L330.542 258.627C333.058 257.597 335.539 256.319 337.951 254.816L339.306 244.544C339.402 243.849 339.749 243.214 340.284 242.762C343.204 240.303 345.88 237.448 348.236 234.272C348.727 233.607 349.487 233.194 350.313 233.142L358.673 232.625C359.503 231.148 360.276 229.636 360.984 228.115C361.693 226.594 362.353 225.03 362.953 223.448L357.977 216.713C357.486 216.048 357.313 215.201 357.504 214.393C358.425 210.547 358.894 206.663 358.899 202.843C358.903 202.148 359.164 201.47 359.637 200.958L366.637 193.314C366.242 190.499 365.625 187.779 364.795 185.189L357.03 185.441C355.961 185.48 354.975 184.902 354.467 183.964C352.907 181.061 350.969 178.515 348.718 176.399C348.075 175.795 347.753 174.921 347.849 174.044L348.931 164.237C347.988 163.676 347.019 163.159 346.037 162.703C345.055 162.246 344.038 161.834 343 161.473L336.178 168.603C335.569 169.242 334.696 169.555 333.818 169.451C330.751 169.086 327.553 169.242 324.324 169.911C323.286 170.129 322.208 169.733 321.548 168.895L318.154 164.575C317.198 163.359 317.411 161.595 318.628 160.634C319.844 159.678 321.613 159.891 322.569 161.108L324.915 164.097C327.666 163.659 330.394 163.541 333.062 163.741L340.154 156.328C340.875 155.572 341.957 155.281 342.965 155.572C344.833 156.115 346.663 156.802 348.405 157.614C350.147 158.427 351.855 159.387 353.471 160.474C354.345 161.056 354.818 162.073 354.701 163.111L353.58 173.305C355.449 175.221 357.108 177.385 358.542 179.775L366.685 179.51C367.889 179.466 368.992 180.209 369.41 181.343C370.861 185.285 371.86 189.512 372.377 193.918C372.473 194.727 372.208 195.539 371.66 196.139L364.5 203.956C364.421 207.423 364.004 210.93 363.257 214.41L368.367 221.328C368.919 222.075 369.062 223.053 368.753 223.931C367.967 226.151 367.063 228.358 366.072 230.487C365.082 232.612 363.969 234.72 362.774 236.753C362.301 237.553 361.458 238.07 360.528 238.126L351.946 238.661C349.761 241.472 347.34 244.044 344.733 246.334L343.347 256.841C343.239 257.649 342.787 258.37 342.105 258.818C338.398 261.256 334.514 263.211 330.564 264.627C329.425 265.031 328.157 264.666 327.409 263.719L322.373 257.314C319.627 257.753 316.898 257.871 314.23 257.671L307.139 265.084C306.6 265.649 305.861 265.953 305.11 265.953ZM319.197 242.267C315.964 242.267 312.814 241.585 309.881 240.216C303.402 237.196 298.818 231.226 296.976 223.409C295.185 215.831 296.198 207.38 299.822 199.606C303.45 191.833 309.277 185.628 316.229 182.126C323.407 178.51 330.929 178.18 337.407 181.2C343.886 184.224 348.47 190.19 350.313 198.012C352.098 205.59 351.086 214.045 347.462 221.814C343.838 229.588 338.011 235.793 331.055 239.295C327.131 241.272 323.103 242.267 319.197 242.267ZM304.91 201.979C301.816 208.609 300.938 215.766 302.437 222.119C303.88 228.232 307.365 232.855 312.249 235.132C317.137 237.409 322.921 237.109 328.53 234.285C334.366 231.348 339.28 226.077 342.374 219.446C345.472 212.811 346.35 205.659 344.851 199.302C343.408 193.188 339.923 188.565 335.035 186.288C330.147 184.007 324.363 184.311 318.754 187.136C312.922 190.073 308.004 195.344 304.91 201.979Z" fill="white"/>
<path d="M356.939 185.441C355.909 185.441 354.957 184.876 354.466 183.964C352.902 181.061 350.969 178.515 348.718 176.399C348.07 175.795 347.753 174.926 347.849 174.048L349.122 162.499C349.252 161.321 350.108 160.352 351.264 160.078C352.42 159.805 353.619 160.287 354.267 161.282L361.501 172.44C361.853 172.983 362.005 173.631 361.936 174.274L360.984 182.903C360.832 184.29 359.681 185.354 358.286 185.398L357.03 185.441C357 185.441 356.969 185.441 356.939 185.441ZM353.576 173.309C354.458 174.213 355.292 175.169 356.079 176.177L356.248 174.652L353.836 170.937L353.576 173.309Z" fill="white"/>
<path d="M307.321 238.157C306.704 238.157 306.087 237.952 305.579 237.548C295.659 229.679 293.239 213.719 299.822 199.606C305.527 187.379 316.894 179.167 328.109 179.167C331.376 179.167 334.505 179.849 337.407 181.2C343.386 183.99 347.818 189.399 349.891 196.434C350.234 197.607 349.782 198.868 348.766 199.554C347.753 200.236 346.411 200.184 345.455 199.424C344.451 198.629 343.382 197.964 342.265 197.442C340.119 196.443 337.785 195.935 335.343 195.935C326.266 195.935 316.946 202.848 312.145 213.137C308.903 220.089 308.104 227.789 309.942 234.307C310.072 234.628 310.141 234.98 310.141 235.35C310.141 236.901 308.886 238.157 307.334 238.157C307.33 238.157 307.326 238.157 307.321 238.157ZM328.109 184.776C319.032 184.776 309.711 191.689 304.91 201.979C301.169 210 300.782 218.634 303.411 225.308C303.645 220.433 304.879 215.44 307.061 210.765C312.762 198.537 324.129 190.325 335.343 190.325C337.273 190.325 339.158 190.564 340.97 191.038C339.345 188.978 337.338 187.361 335.035 186.288C332.884 185.285 330.551 184.776 328.109 184.776Z" fill="white"/>
<path d="M287.751 253.065C286.799 253.065 285.913 252.582 285.396 251.783L278.161 240.625C277.609 239.777 277.557 238.695 278.031 237.8C278.496 236.905 279.412 236.327 280.425 236.297L290.258 235.98C291.327 235.936 292.313 236.514 292.817 237.453C294.386 240.36 296.319 242.906 298.57 245.018C299.213 245.622 299.535 246.491 299.439 247.368L299.118 250.288C298.961 251.679 297.814 252.743 296.415 252.787L287.838 253.065C287.807 253.065 287.781 253.065 287.751 253.065ZM285.574 241.746L289.241 247.403L292.935 247.286C291.379 245.582 289.98 243.692 288.746 241.641L285.574 241.746Z" fill="white"/>
<mask id="mask0_42_86" style="mask-type:luminance" maskUnits="userSpaceOnUse" x="292" y="179" width="88" height="100">
<path d="M292.196 179.154H379.699V278.154H292.196V179.154Z" fill="white"/>
</mask>
<g mask="url(#mask0_42_86)">
<path d="M312.344 277.115C312.079 277.115 311.819 277.076 311.558 277.002C309.685 276.455 307.851 275.768 306.118 274.96C304.384 274.152 302.681 273.192 301.056 272.105C300.738 271.892 300.465 271.619 300.256 271.297L293.021 260.139C292.3 259.022 292.461 257.549 293.408 256.615C294.355 255.681 295.828 255.542 296.936 256.28C298.323 257.206 299.774 258.027 301.251 258.714C302.233 259.17 303.25 259.583 304.293 259.943L311.11 252.813C311.723 252.174 312.596 251.861 313.474 251.965C316.529 252.33 319.749 252.174 322.964 251.509C324.007 251.292 325.084 251.683 325.741 252.522L330.542 258.627C333.058 257.597 335.539 256.324 337.95 254.82L339.306 244.544C339.402 243.849 339.749 243.214 340.284 242.767C343.204 240.307 345.88 237.448 348.236 234.272C348.727 233.607 349.487 233.194 350.313 233.142L358.673 232.625C359.503 231.148 360.276 229.636 360.984 228.119C361.693 226.598 362.353 225.03 362.953 223.448L357.977 216.713C357.486 216.048 357.313 215.201 357.504 214.397C358.425 210.552 358.894 206.663 358.899 202.848C358.903 202.148 359.164 201.475 359.637 200.957L366.637 193.314C366.142 189.808 365.303 186.44 364.143 183.29C363.648 181.947 364.243 180.448 365.521 179.81C366.798 179.171 368.354 179.592 369.131 180.792L376.366 191.95C376.479 192.128 376.57 192.311 376.644 192.506C378.096 196.447 379.095 200.675 379.612 205.081C379.708 205.889 379.443 206.702 378.895 207.301L371.734 215.118C371.66 218.329 371.291 221.588 370.639 224.83L375.693 232.629C376.166 233.359 376.275 234.272 375.984 235.093C375.202 237.305 374.302 239.512 373.303 241.65C372.312 243.779 371.2 245.887 370.005 247.916C369.531 248.72 368.693 249.232 367.763 249.293L359.181 249.823C356.991 252.635 354.575 255.211 351.968 257.497L350.578 268.003C350.473 268.812 350.021 269.533 349.339 269.981C345.633 272.418 341.748 274.374 337.798 275.79C336.66 276.198 335.387 275.833 334.644 274.882L329.608 268.477C326.866 268.916 324.137 269.033 321.461 268.833L314.374 276.246C313.835 276.807 313.096 277.115 312.344 277.115ZM304.645 267.747C305.887 268.551 307.178 269.264 308.49 269.872C309.468 270.328 310.485 270.741 311.528 271.102L318.345 263.971C318.958 263.332 319.831 263.015 320.709 263.124C322.742 263.363 324.845 263.38 326.97 263.163L322.373 257.319C319.627 257.753 316.898 257.875 314.226 257.671L307.139 265.088C306.413 265.844 305.327 266.135 304.323 265.844C303.941 265.731 303.558 265.614 303.18 265.492L304.645 267.747ZM332.984 263.689L337.777 269.789C340.293 268.755 342.774 267.482 345.185 265.974L346.541 255.702C346.632 255.007 346.98 254.373 347.514 253.921C350.434 251.466 353.111 248.607 355.466 245.43C355.961 244.766 356.722 244.353 357.547 244.301L365.907 243.783C366.733 242.306 367.506 240.798 368.215 239.278C368.945 237.718 369.618 236.119 370.222 234.507L366.707 229.084C366.498 229.553 366.285 230.022 366.068 230.487C365.077 232.612 363.965 234.719 362.77 236.753C362.296 237.557 361.454 238.074 360.524 238.13L351.942 238.665C349.756 241.476 347.336 244.049 344.729 246.338L343.343 256.845C343.239 257.653 342.782 258.375 342.104 258.822C339.154 260.76 336.099 262.39 332.984 263.689ZM363.252 214.414L365.951 218.069C366.072 216.704 366.133 215.349 366.133 214.006C366.138 213.306 366.398 212.633 366.872 212.116L373.872 204.473C373.451 201.488 372.777 198.602 371.873 195.874C371.808 195.965 371.734 196.056 371.656 196.143L364.499 203.956C364.421 207.423 364.004 210.934 363.252 214.414Z" fill="white"/>
</g>
<path d="M127.162 77.6023C126.106 77.6023 125.094 77.0026 124.616 75.9815C122.482 71.4104 122.387 66.7785 124.351 63.2719C125.984 60.365 128.848 58.54 132.415 58.1359C139.954 57.2843 148.814 62.9504 152.581 71.0324C153.237 72.4359 152.629 74.1044 151.225 74.7605C149.822 75.4123 148.149 74.8083 147.497 73.4005C144.777 67.5736 138.16 63.1372 133.045 63.7151C131.294 63.9106 129.982 64.7058 129.248 66.0181C128.192 67.8995 128.361 70.7369 129.704 73.6091C130.356 75.0169 129.752 76.6854 128.344 77.3416C127.961 77.5197 127.557 77.6023 127.162 77.6023Z" fill="white"/>
<mask id="mask1_42_86" style="mask-type:luminance" maskUnits="userSpaceOnUse" x="20" y="95" width="229" height="193">
<path d="M20.3011 95.7261H248.814V288H20.3011V95.7261Z" fill="white"/>
</mask>
<g mask="url(#mask1_42_86)">
<path d="M109.455 287.852C108.378 287.852 107.378 287.226 106.913 286.231L20.7052 101.405C20.3228 100.588 20.3576 99.6324 20.8008 98.8459C21.244 98.0594 22.0392 97.5337 22.9343 97.4294L36.2913 95.926C37.8295 95.7478 39.22 96.8602 39.3938 98.3984C39.5676 99.9366 38.4596 101.327 36.9214 101.501L27.4402 102.57L111.15 282.034L240.71 267.421L236.287 257.936C235.63 256.532 236.239 254.864 237.642 254.208C239.05 253.556 240.719 254.16 241.375 255.568L247.445 268.586C247.827 269.403 247.793 270.354 247.349 271.145C246.91 271.931 246.115 272.457 245.216 272.557L109.773 287.835C109.668 287.848 109.56 287.852 109.455 287.852Z" fill="white"/>
</g>
<path d="M133.428 271.315C122.347 271.315 110.489 263.758 105.562 253.191L27.9877 86.8795C27.6097 86.0626 27.6444 85.111 28.0833 84.3202C28.5265 83.5337 29.3217 83.008 30.2168 82.908L165.664 67.6304C166.859 67.4957 168.011 68.1431 168.519 69.2338L172.074 76.8465C172.725 78.25 172.117 79.9186 170.714 80.5747C169.31 81.2308 167.642 80.6225 166.985 79.219L164.287 73.4312L34.7271 88.044L110.646 250.819C114.939 260.022 126.05 266.648 135.422 265.592C136.96 265.423 138.351 266.526 138.525 268.064C138.698 269.607 137.59 270.993 136.048 271.167C135.183 271.267 134.31 271.315 133.428 271.315Z" fill="white"/>
<path d="M243.552 239.538C242.496 239.538 241.483 238.939 241.01 237.918L228.378 210.838C227.722 209.435 228.331 207.766 229.734 207.11C231.142 206.454 232.81 207.063 233.462 208.47L246.094 235.545C246.75 236.953 246.141 238.621 244.738 239.273C244.351 239.456 243.951 239.538 243.552 239.538Z" fill="white"/>
<path d="M150.287 98.9067C144.204 98.9067 137.482 94.3269 134.514 87.9656L133.163 85.0673C132.506 83.6638 133.115 81.9953 134.518 81.3392C135.922 80.6831 137.59 81.2914 138.246 82.6949L139.598 85.5931C141.71 90.1208 147.024 93.7055 150.956 93.2623C152.242 93.1146 153.163 92.5628 153.689 91.6242C154.48 90.2164 154.332 88.0568 153.302 85.8451L147.497 73.4005C146.841 71.9971 147.45 70.3285 148.853 69.6724C150.256 69.0206 151.929 69.6246 152.581 71.0324L158.386 83.4727C160.207 87.3746 160.281 91.3461 158.586 94.366C157.165 96.8992 154.68 98.4896 151.582 98.8372C151.156 98.885 150.721 98.9067 150.287 98.9067Z" fill="white"/>
<path d="M96.8804 201.448C95.7984 201.448 94.8034 200.827 94.3385 199.832L85.2788 180.405C84.8964 179.588 84.9312 178.636 85.3744 177.85C85.8132 177.059 86.6084 176.533 87.5079 176.433L100.096 175.012C101.638 174.839 103.024 175.947 103.198 177.485C103.372 179.027 102.264 180.413 100.726 180.587L92.0138 181.574L98.5707 195.63L112.614 194.044L110.507 189.525C109.851 188.122 110.459 186.453 111.863 185.797C113.266 185.141 114.935 185.749 115.591 187.153L119.349 195.209C119.732 196.03 119.697 196.982 119.254 197.768C118.815 198.554 118.02 199.085 117.12 199.185L97.1932 201.431C97.089 201.444 96.9847 201.448 96.8804 201.448Z" fill="white"/>
<path d="M103.941 191.794C103.446 191.794 102.951 191.659 102.512 191.398L94.9251 186.906C93.5955 186.115 93.1523 184.394 93.9431 183.064C94.7339 181.73 96.4546 181.287 97.7886 182.078L102.785 185.041L107.965 174.709C108.66 173.323 110.346 172.762 111.732 173.457C113.114 174.152 113.674 175.838 112.979 177.22L106.448 190.243C106.101 190.942 105.48 191.459 104.732 191.677C104.476 191.755 104.206 191.794 103.941 191.794Z" fill="white"/>
<path d="M131.69 197.525C130.282 197.525 129.069 196.465 128.904 195.031C128.73 193.493 129.839 192.102 131.381 191.928L199.374 184.263C200.912 184.085 202.303 185.198 202.477 186.736C202.651 188.274 201.543 189.664 200.004 189.838L132.007 197.503C131.902 197.516 131.794 197.525 131.69 197.525Z" fill="white"/>
<path d="M125.719 184.715C124.307 184.715 123.095 183.66 122.934 182.226C122.76 180.687 123.868 179.297 125.406 179.123L161.263 175.082C162.805 174.904 164.191 176.016 164.365 177.555C164.539 179.093 163.431 180.483 161.893 180.657L126.036 184.698C125.928 184.711 125.824 184.715 125.719 184.715Z" fill="white"/>
<path d="M114.4 239.013C113.318 239.013 112.323 238.387 111.854 237.392L102.799 217.969C102.416 217.152 102.451 216.2 102.894 215.41C103.333 214.623 104.128 214.097 105.028 213.997L117.616 212.577C119.154 212.398 120.549 213.511 120.722 215.049C120.896 216.587 119.788 217.978 118.246 218.151L109.534 219.133L116.09 233.19L130.134 231.608L128.027 227.085C127.37 225.682 127.979 224.013 129.382 223.357C130.786 222.701 132.459 223.309 133.11 224.713L136.869 232.773C137.251 233.59 137.217 234.541 136.773 235.332C136.33 236.119 135.539 236.645 134.64 236.744L114.713 238.991C114.609 239.008 114.504 239.013 114.4 239.013Z" fill="white"/>
<path d="M121.465 229.353C120.966 229.353 120.47 229.223 120.031 228.962L112.449 224.469C111.115 223.678 110.676 221.958 111.463 220.624C112.254 219.294 113.979 218.851 115.308 219.642L120.305 222.601L125.485 212.272C126.18 210.886 127.866 210.326 129.252 211.021C130.638 211.716 131.194 213.402 130.503 214.784L123.973 227.806C123.625 228.502 122.999 229.023 122.252 229.24C121.995 229.318 121.726 229.353 121.465 229.353Z" fill="white"/>
<path d="M149.209 235.085C147.801 235.085 146.589 234.029 146.424 232.595C146.25 231.057 147.358 229.666 148.901 229.492L220.614 221.406C222.152 221.228 223.542 222.34 223.716 223.878C223.89 225.417 222.782 226.807 221.239 226.981L149.531 235.067C149.422 235.08 149.318 235.085 149.209 235.085Z" fill="white"/>
<path d="M143.239 222.279C141.827 222.279 140.615 221.219 140.454 219.79C140.28 218.247 141.388 216.861 142.926 216.687L178.783 212.642C180.325 212.459 181.711 213.576 181.885 215.114C182.059 216.657 180.951 218.043 179.413 218.217L143.556 222.262C143.448 222.275 143.343 222.279 143.239 222.279Z" fill="white"/>
<path d="M135.735 271.189C134.323 271.189 133.11 270.128 132.95 268.695C132.776 267.156 133.884 265.766 135.422 265.592H135.439C139.346 265.145 142.361 263.359 143.934 260.552C145.711 257.384 145.577 253.248 143.552 248.907C143.169 248.09 143.204 247.138 143.647 246.352C144.091 245.561 144.881 245.035 145.781 244.935L262.232 231.804C263.426 231.665 264.578 232.312 265.086 233.403C267.854 239.339 267.924 245.448 265.278 250.167C262.796 254.59 258.256 257.384 252.498 258.036L136.052 271.167C135.943 271.18 135.839 271.189 135.735 271.189ZM149.974 250.11C151.325 254.86 150.947 259.522 148.831 263.298C148.666 263.585 148.497 263.867 148.319 264.141L251.873 252.461C255.788 252.018 258.808 250.232 260.385 247.421C261.906 244.705 262.023 241.277 260.75 237.618L149.974 250.11Z" fill="white"/>
<path d="M79.9299 165.11C78.8479 165.11 77.8529 164.489 77.3879 163.489L57.8781 121.663C57.4957 120.846 57.5305 119.894 57.9737 119.103C58.4169 118.317 59.2121 117.791 60.1072 117.691L119.945 110.943C121.144 110.804 122.291 111.451 122.804 112.542L142.313 154.373C142.692 155.19 142.657 156.141 142.218 156.928C141.775 157.714 140.98 158.245 140.084 158.344L80.2427 165.093C80.1384 165.106 80.0341 165.11 79.9299 165.11ZM64.6131 122.827L81.6201 159.292L135.574 153.208L118.567 116.744L64.6131 122.827Z" fill="white"/>
<path d="M54.1326 109.809C52.7247 109.809 51.5081 108.749 51.3473 107.319C51.1735 105.777 52.2815 104.391 53.8197 104.217L113.657 97.4687C115.2 97.2905 116.59 98.4029 116.764 99.9411C116.938 101.479 115.83 102.87 114.287 103.044L54.4498 109.792C54.3455 109.8 54.2369 109.809 54.1326 109.809Z" fill="white"/>
<path d="M140.08 127.681C138.672 127.681 137.46 126.621 137.299 125.191C137.121 123.649 138.229 122.262 139.772 122.089L167.233 118.991C168.771 118.808 170.166 119.92 170.34 121.463C170.514 123.001 169.406 124.392 167.863 124.565L140.402 127.664C140.293 127.677 140.189 127.681 140.08 127.681Z" fill="white"/>
<path d="M146.872 142.237C145.464 142.237 144.251 141.181 144.086 139.747C143.913 138.209 145.021 136.819 146.559 136.645L170.753 133.916C172.291 133.738 173.681 134.85 173.855 136.388C174.029 137.927 172.921 139.317 171.383 139.491L147.189 142.22C147.085 142.233 146.976 142.237 146.872 142.237Z" fill="white"/>
<path d="M153.663 156.797C152.255 156.797 151.039 155.737 150.878 154.303C150.704 152.765 151.812 151.375 153.35 151.201L176.18 148.629C177.722 148.455 179.113 149.563 179.287 151.101C179.46 152.639 178.352 154.03 176.81 154.203L153.98 156.776C153.876 156.789 153.767 156.797 153.663 156.797Z" fill="white"/>
<path d="M254.536 217.6C224.446 217.6 192.587 192.637 175.259 155.485C164.665 132.782 160.841 108.536 164.491 87.214C168.206 65.5186 179.191 49.4023 195.429 41.833C197.167 41.0248 213.631 35.8541 218.636 34.2855C219.714 33.9509 220.892 34.2898 221.622 35.1545C222.23 35.8758 222.434 36.8535 222.169 37.7573C221.9 38.6611 221.2 39.3737 220.296 39.6474C218.415 40.221 216.572 40.9292 214.821 41.7461C200.304 48.5116 190.436 63.1591 187.047 82.9862C183.588 103.191 187.251 126.26 197.362 147.942C213.792 183.155 243.608 206.815 271.561 206.815C275.219 206.815 278.808 206.389 282.228 205.546C283.705 205.185 285.2 206.063 285.604 207.532C286.008 208.996 285.165 210.517 283.714 210.956L271.6 214.627C266.229 216.6 260.489 217.6 254.536 217.6ZM198.262 46.7387C198.045 46.8169 197.884 46.8821 197.788 46.9212C183.284 53.6867 173.416 68.3342 170.023 88.1613C166.568 108.366 170.231 131.435 180.342 153.113C196.767 188.33 226.584 211.99 254.536 211.99C256.839 211.99 259.103 211.82 261.319 211.49C234.457 206.632 207.652 183.268 192.279 150.31C181.689 127.607 177.866 103.361 181.511 82.0389C184.01 67.4522 189.798 55.3813 198.262 46.7387Z" fill="white"/>
<mask id="mask2_42_86" style="mask-type:luminance" maskUnits="userSpaceOnUse" x="179" y="32" width="147" height="181">
<path d="M179.847 32H325.567V212.525H179.847V32Z" fill="white"/>
</mask>
<g mask="url(#mask2_42_86)">
<path d="M271.565 212.433C241.47 212.433 209.607 187.47 192.279 150.315C181.689 127.607 177.866 103.361 181.511 82.0433C185.226 60.3479 196.215 44.2273 212.449 36.658C218.871 33.6642 225.858 32.1477 233.215 32.1477C263.305 32.1477 295.168 57.1107 312.501 94.2663C323.09 116.974 326.914 141.22 323.264 162.538C319.549 184.233 308.564 200.349 292.326 207.919C285.904 210.912 278.917 212.433 271.565 212.433ZM233.215 37.7573C226.684 37.7573 220.496 39.1 214.821 41.7462C200.304 48.516 190.441 63.1592 187.047 82.9906C183.588 103.191 187.251 126.26 197.367 147.942C213.792 183.16 243.608 206.824 271.565 206.824C278.096 206.824 284.283 205.481 289.958 202.835C304.475 196.065 314.339 181.422 317.732 161.59C321.191 141.385 317.528 118.321 307.413 96.6387C290.988 61.4211 261.167 37.7573 233.215 37.7573Z" fill="white"/>
</g>
<path d="M267.685 194.544C243.504 194.544 217.933 174.561 204.063 144.818C195.603 126.685 192.557 107.284 195.481 90.199C198.471 72.7315 207.313 59.7568 220.383 53.6648C225.55 51.2576 231.172 50.0366 237.095 50.0366C261.276 50.0366 286.843 70.0201 300.717 99.7584C318.367 137.601 311.045 178.489 284.396 190.916C279.23 193.323 273.607 194.544 267.685 194.544ZM237.095 55.6462C231.998 55.6462 227.17 56.6891 222.751 58.7487C211.402 64.0411 203.68 75.5471 201.012 91.1419C198.279 107.119 201.169 125.338 209.147 142.45C215.604 156.285 224.75 168.056 235.604 176.485C245.942 184.511 257.335 188.934 267.685 188.934C272.782 188.934 277.605 187.887 282.024 185.828C305.87 174.713 311.971 137.166 295.629 102.131C289.176 88.2915 280.029 76.5248 269.175 68.0952C258.838 60.0653 247.445 55.6462 237.095 55.6462Z" fill="white"/>
<path d="M263.748 176.672C245.511 176.672 226.262 161.664 215.843 139.326C209.503 125.725 207.217 111.169 209.412 98.3333C211.675 85.124 218.389 75.2996 228.313 70.672C232.25 68.8383 236.526 67.9084 241.031 67.9084C259.264 67.9084 278.517 82.9167 288.933 105.255C295.277 118.851 297.562 133.412 295.364 146.243C293.104 159.457 286.391 169.281 276.462 173.909C272.53 175.743 268.25 176.672 263.748 176.672ZM241.031 73.5181C237.351 73.5181 233.871 74.2741 230.686 75.7558C222.478 79.5839 216.885 87.9397 214.943 99.2806C212.94 111 215.065 124.383 220.931 136.958C230.295 157.037 247.901 171.058 263.748 171.058C267.424 171.058 270.905 170.307 274.09 168.821C282.302 164.997 287.89 156.641 289.832 145.3C291.84 133.581 289.71 120.198 283.849 107.623C274.481 87.5443 256.874 73.5181 241.031 73.5181Z" fill="white"/>
<path d="M259.811 158.801C247.527 158.801 234.592 148.768 227.627 133.833C218.728 114.749 222.595 94.0445 236.247 87.6789C238.946 86.4188 241.879 85.78 244.968 85.78C257.252 85.78 270.188 95.813 277.153 110.747C286.052 129.831 282.185 150.536 268.532 156.902C265.834 158.162 262.896 158.801 259.811 158.801ZM244.968 91.394C242.704 91.394 240.571 91.8546 238.616 92.7627C227.77 97.8205 225.119 115.179 232.715 131.461C238.681 144.253 249.822 153.187 259.811 153.187C262.071 153.187 264.209 152.726 266.16 151.814C277.009 146.76 279.656 129.397 272.065 113.116C266.099 100.328 254.953 91.394 244.968 91.394Z" fill="white"/>
<path d="M255.862 140.938C253.485 140.938 250.995 140.216 248.562 138.796C244.773 136.584 241.522 132.869 239.411 128.341C237.299 123.809 236.543 118.934 237.282 114.61C238.085 109.909 240.536 106.385 244.177 104.686C250.126 101.914 257.826 104.929 262.909 112.025C263.813 113.285 263.522 115.036 262.266 115.94C261.006 116.839 259.251 116.553 258.347 115.293C254.919 110.504 249.956 108.179 246.55 109.77C244.625 110.665 243.3 112.72 242.813 115.558C242.265 118.764 242.861 122.462 244.499 125.969C246.133 129.475 248.583 132.308 251.395 133.951C253.88 135.402 256.305 135.706 258.23 134.811C261.636 133.221 263.044 127.928 261.584 122.223C261.197 120.724 262.101 119.194 263.605 118.808C265.099 118.421 266.633 119.329 267.02 120.828C269.188 129.284 266.551 137.123 260.602 139.895C259.107 140.59 257.513 140.938 255.862 140.938Z" fill="white"/>
<path d="M267.35 118.121C266.29 118.121 265.278 117.522 264.804 116.501C264.148 115.097 264.756 113.429 266.16 112.772L330.203 82.9168C331.611 82.2607 333.279 82.869 333.936 84.2725C334.592 85.6803 333.983 87.3489 332.576 88.0006L268.532 117.856C268.15 118.039 267.746 118.121 267.35 118.121Z" fill="white"/>
<path d="M252.39 125.095C251.303 125.095 250.308 124.47 249.848 123.475C249.357 122.428 249.561 121.189 250.361 120.351L262.592 107.541C263.231 106.867 264.161 106.559 265.078 106.707C265.99 106.859 266.772 107.45 267.168 108.293L272.612 119.972C273.003 120.811 272.955 121.789 272.482 122.588C272.013 123.383 271.174 123.896 270.248 123.957L252.568 125.091C252.507 125.095 252.446 125.095 252.39 125.095ZM263.818 114.385L259.381 119.03L265.79 118.621L263.818 114.385Z" fill="white"/>
<path d="M338.611 92.0109C338.168 92.0109 337.725 91.9023 337.32 91.6937L330.099 87.9525C328.969 87.3659 328.374 86.0928 328.652 84.85L330.425 76.9114C330.612 76.0641 331.185 75.3515 331.976 74.9822L355.953 63.8064C356.922 63.3545 358.064 63.4892 358.899 64.1627C359.728 64.8318 360.111 65.9138 359.876 66.9566L358.577 72.7878L363.878 75.5383C364.83 76.0293 365.416 77.02 365.395 78.0846C365.369 79.1535 364.743 80.1182 363.774 80.57L339.797 91.7458C339.419 91.924 339.015 92.0109 338.611 92.0109ZM334.6 83.9636L338.676 86.0754L356.235 77.8934L354.075 76.7724C352.946 76.1858 352.35 74.9126 352.628 73.6699L353.159 71.2975L335.6 79.4838L334.6 83.9636Z" fill="white"/>
<mask id="mask3_42_86" style="mask-type:luminance" maskUnits="userSpaceOnUse" x="342" y="56" width="38" height="30">
<path d="M342.252 56.7935H379.699V85.7149H342.252V56.7935Z" fill="white"/>
</mask>
<g mask="url(#mask3_42_86)">
<path d="M352.846 85.3717C352.403 85.3717 351.959 85.2674 351.555 85.0589L344.334 81.3133C343.204 80.7267 342.609 79.4536 342.887 78.2109L344.659 70.2766C344.846 69.4293 345.424 68.7123 346.211 68.3473L370.187 57.1672C371.156 56.7153 372.299 56.8544 373.133 57.5235C373.963 58.1927 374.346 59.279 374.111 60.3218L372.812 66.1487L378.113 68.8992C379.065 69.3945 379.651 70.3809 379.629 71.4498C379.603 72.5187 378.978 73.4833 378.009 73.9352L354.032 85.111C353.654 85.2848 353.25 85.3717 352.846 85.3717ZM348.835 77.3288L352.911 79.4406L370.47 71.2543L368.31 70.1376C367.18 69.551 366.585 68.2778 366.863 67.0351L367.393 64.6626L349.835 72.8489L348.835 77.3288Z" fill="white"/>
</g>
</svg>
