<svg width="400" height="400" viewBox="0 0 400 400" fill="none" xmlns="http://www.w3.org/2000/svg">
<mask id="mask0_42_82" style="mask-type:luminance" maskUnits="userSpaceOnUse" x="23" y="23" width="354" height="354">
<path d="M23.2878 23.2847H376.712V376.715H23.2878V23.2847Z" fill="white"/>
</mask>
<g mask="url(#mask0_42_82)">
<path fill-rule="evenodd" clip-rule="evenodd" d="M261.804 116.459C260.424 116.459 259.062 116.591 257.712 116.861C256.363 117.125 255.055 117.527 253.783 118.055C252.511 118.577 251.305 119.225 250.16 119.987C249.014 120.755 247.958 121.625 246.98 122.596C246.008 123.568 245.139 124.624 244.377 125.77C243.615 126.916 242.967 128.121 242.439 129.393C241.911 130.665 241.515 131.979 241.245 133.328C240.981 134.672 240.843 136.04 240.843 137.414C240.843 138.787 240.981 140.155 241.245 141.505C241.515 142.855 241.911 144.162 242.439 145.434C242.967 146.706 243.615 147.912 244.377 149.057C245.139 150.203 246.008 151.259 246.98 152.231C247.958 153.209 249.014 154.072 250.16 154.84C251.305 155.602 252.511 156.25 253.783 156.778C255.055 157.3 256.363 157.702 257.712 157.966C259.062 158.236 260.424 158.374 261.804 158.374C263.177 158.374 264.539 158.236 265.889 157.966C267.239 157.702 268.552 157.3 269.824 156.778C271.096 156.25 272.302 155.602 273.447 154.84C274.587 154.072 275.649 153.209 276.621 152.231C277.593 151.259 278.462 150.203 279.224 149.057C279.992 147.912 280.64 146.706 281.162 145.434C281.69 144.162 282.086 142.855 282.356 141.505C282.626 140.155 282.758 138.787 282.758 137.414C282.758 136.04 282.626 134.672 282.356 133.328C282.086 131.979 281.69 130.665 281.162 129.393C280.64 128.121 279.992 126.916 279.224 125.77C278.462 124.624 277.593 123.568 276.621 122.596C275.649 121.625 274.587 120.755 273.447 119.987C272.302 119.225 271.096 118.577 269.824 118.055C268.552 117.527 267.239 117.125 265.889 116.861C264.539 116.591 263.177 116.459 261.804 116.459ZM138.514 216.281C139.966 216.281 141.418 216.353 142.864 216.497C144.309 216.641 145.749 216.851 147.177 217.139C148.599 217.421 150.008 217.775 151.4 218.195C152.792 218.615 154.159 219.106 155.503 219.664C156.847 220.216 158.161 220.84 159.445 221.524C160.728 222.214 161.97 222.958 163.182 223.768C164.388 224.571 165.557 225.441 166.679 226.359C167.807 227.283 168.881 228.261 169.907 229.287C170.938 230.318 171.91 231.392 172.834 232.514C173.758 233.642 174.622 234.806 175.432 236.017C176.235 237.223 176.985 238.471 177.669 239.755C178.353 241.038 178.977 242.346 179.535 243.69C180.093 245.034 180.579 246.401 180.999 247.793C181.424 249.185 181.778 250.595 182.06 252.022C182.342 253.45 182.558 254.884 182.702 256.33C182.84 257.781 182.912 259.227 182.912 260.685C182.912 262.136 182.84 263.588 182.702 265.034C182.558 266.48 182.342 267.919 182.06 269.347C181.778 270.769 181.424 272.179 180.999 273.57C180.579 274.962 180.093 276.33 179.535 277.674C178.977 279.017 178.353 280.331 177.669 281.615C176.985 282.899 176.235 284.14 175.432 285.352C174.622 286.558 173.758 287.728 172.834 288.849C171.91 289.977 170.938 291.051 169.907 292.077C168.881 293.109 167.807 294.081 166.679 295.004C165.557 295.928 164.388 296.792 163.182 297.602C161.97 298.406 160.728 299.156 159.445 299.839C158.161 300.523 156.847 301.147 155.503 301.705C154.159 302.263 152.792 302.749 151.4 303.169C150.008 303.595 148.599 303.949 147.177 304.231C145.749 304.513 144.309 304.729 142.864 304.873C141.418 305.01 139.966 305.082 138.514 305.082C137.057 305.082 135.611 305.01 134.159 304.873C132.713 304.729 131.28 304.513 129.852 304.231C128.424 303.949 127.015 303.595 125.623 303.169C124.231 302.749 122.863 302.263 121.52 301.705C120.176 301.147 118.868 300.523 117.584 299.839C116.301 299.156 115.053 298.406 113.847 297.602C112.635 296.792 111.471 295.928 110.344 295.004C109.222 294.081 108.148 293.109 107.116 292.077C106.09 291.051 105.113 289.977 104.189 288.849C103.271 287.728 102.401 286.558 101.597 285.352C100.787 284.14 100.044 282.899 99.3536 281.615C98.6698 280.331 98.0459 279.017 97.494 277.674C96.9361 276.33 96.4442 274.962 96.0243 273.57C95.6043 272.179 95.2504 270.769 94.9685 269.347C94.6805 267.919 94.4706 266.48 94.3266 265.034C94.1826 263.588 94.1106 262.136 94.1106 260.685C94.1106 259.227 94.1826 257.781 94.3266 256.33C94.4706 254.884 94.6805 253.45 94.9685 252.022C95.2504 250.595 95.6043 249.185 96.0243 247.793C96.4442 246.401 96.9361 245.034 97.494 243.69C98.0459 242.346 98.6698 241.038 99.3536 239.755C100.044 238.471 100.787 237.223 101.597 236.017C102.401 234.806 103.271 233.642 104.189 232.514C105.113 231.392 106.09 230.318 107.116 229.287C108.148 228.261 109.222 227.283 110.344 226.359C111.471 225.441 112.635 224.571 113.847 223.768C115.053 222.958 116.301 222.214 117.584 221.524C118.868 220.84 120.176 220.222 121.52 219.664C122.863 219.106 124.231 218.615 125.623 218.195C127.015 217.775 128.424 217.421 129.852 217.139C131.28 216.851 132.713 216.641 134.159 216.497C135.611 216.353 137.057 216.281 138.514 216.281ZM115.317 265.844L126.505 277.032C127.033 277.566 127.65 277.974 128.346 278.261C129.042 278.549 129.768 278.693 130.518 278.693C131.274 278.693 132 278.549 132.695 278.261C133.391 277.974 134.003 277.566 134.537 277.032L134.567 277.002L161.514 252.55C162.078 252.046 162.522 251.452 162.846 250.769C163.176 250.085 163.356 249.365 163.398 248.609C163.434 247.853 163.326 247.121 163.074 246.407C162.816 245.699 162.432 245.064 161.928 244.5C161.418 243.942 160.818 243.504 160.134 243.18C159.451 242.862 158.731 242.682 157.975 242.652C157.219 242.622 156.481 242.736 155.773 242.994C155.065 243.258 154.429 243.642 153.878 244.158L130.716 265.172L123.349 257.805C122.815 257.283 122.203 256.881 121.508 256.599C120.812 256.324 120.092 256.186 119.342 256.186C118.598 256.192 117.878 256.336 117.188 256.623C116.498 256.911 115.887 257.325 115.359 257.853C114.831 258.381 114.423 258.993 114.135 259.683C113.847 260.373 113.697 261.093 113.691 261.837C113.691 262.586 113.829 263.306 114.111 264.002C114.387 264.692 114.789 265.31 115.311 265.844H115.317ZM111.777 91.888H147.945V114.732C147.945 115.236 147.993 115.74 148.095 116.238C148.191 116.735 148.341 117.215 148.533 117.683C148.724 118.151 148.964 118.595 149.246 119.015C149.528 119.441 149.846 119.831 150.206 120.185C150.566 120.545 150.956 120.863 151.376 121.145C151.796 121.427 152.24 121.666 152.708 121.858C153.176 122.056 153.662 122.2 154.153 122.302C154.651 122.398 155.155 122.446 155.659 122.446H178.503V178.896C178.503 179.136 178.455 179.364 178.365 179.58C178.275 179.802 178.143 179.994 177.975 180.162C177.807 180.33 177.615 180.462 177.399 180.552C177.177 180.642 176.949 180.69 176.709 180.69H111.783C111.543 180.69 111.315 180.642 111.093 180.552C110.878 180.462 110.686 180.33 110.518 180.162C110.35 179.994 110.218 179.802 110.128 179.58C110.038 179.364 109.99 179.136 109.99 178.896V93.6817C109.99 93.4417 110.038 93.2138 110.128 92.9978C110.218 92.7759 110.35 92.5839 110.518 92.4159C110.686 92.248 110.878 92.116 111.099 92.026C111.315 91.936 111.543 91.888 111.783 91.888H111.777ZM127.021 136.154H161.472C162.222 136.154 162.948 136.01 163.644 135.722C164.34 135.434 164.957 135.02 165.485 134.492C166.019 133.958 166.433 133.34 166.721 132.644C167.009 131.949 167.153 131.223 167.153 130.473C167.153 129.717 167.009 128.991 166.721 128.295C166.433 127.599 166.019 126.988 165.485 126.454C164.957 125.92 164.34 125.512 163.644 125.218C162.948 124.93 162.222 124.786 161.472 124.786H127.021C126.265 124.786 125.539 124.93 124.843 125.218C124.147 125.512 123.535 125.92 123.001 126.454C122.467 126.988 122.053 127.599 121.765 128.295C121.478 128.991 121.334 129.717 121.334 130.473C121.334 131.223 121.478 131.949 121.765 132.644C122.053 133.34 122.467 133.958 123.001 134.492C123.535 135.02 124.147 135.434 124.843 135.722C125.539 136.01 126.265 136.154 127.021 136.154ZM127.021 153.383H161.472C162.222 153.383 162.948 153.239 163.644 152.951C164.34 152.663 164.957 152.255 165.485 151.721C166.019 151.187 166.433 150.575 166.721 149.879C167.009 149.183 167.153 148.458 167.153 147.702C167.153 146.946 167.009 146.226 166.721 145.53C166.433 144.828 166.019 144.216 165.485 143.682C164.957 143.149 164.34 142.741 163.644 142.453C162.948 142.165 162.222 142.021 161.472 142.021H127.021C126.265 142.021 125.539 142.165 124.843 142.453C124.147 142.741 123.535 143.149 123.001 143.682C122.467 144.216 122.053 144.828 121.765 145.53C121.478 146.226 121.334 146.946 121.334 147.702C121.334 148.458 121.478 149.183 121.765 149.879C122.053 150.575 122.467 151.187 123.001 151.721C123.535 152.255 124.147 152.663 124.843 152.951C125.539 153.239 126.265 153.383 127.021 153.383ZM127.021 170.617H161.472C162.222 170.617 162.948 170.473 163.644 170.186C164.34 169.898 164.957 169.484 165.485 168.95C166.019 168.416 166.433 167.804 166.721 167.108C167.009 166.412 167.153 165.686 167.153 164.93C167.153 164.181 167.009 163.455 166.721 162.759C166.433 162.063 166.019 161.445 165.485 160.911C164.957 160.383 164.34 159.969 163.644 159.681C162.948 159.394 162.222 159.25 161.472 159.25H127.021C126.265 159.25 125.539 159.394 124.843 159.681C124.147 159.969 123.535 160.383 123.001 160.911C122.467 161.445 122.053 162.063 121.765 162.759C121.478 163.455 121.334 164.181 121.334 164.93C121.334 165.686 121.478 166.412 121.765 167.108C122.053 167.804 122.467 168.416 123.001 168.95C123.535 169.484 124.147 169.898 124.843 170.186C125.539 170.473 126.265 170.617 127.021 170.617ZM159.313 97.221V111.084H173.17L159.313 97.221ZM324.534 332.347L334.864 321.759C335.218 321.399 335.488 320.98 335.674 320.506C335.86 320.038 335.95 319.546 335.938 319.042C335.932 318.538 335.83 318.052 335.626 317.584C335.428 317.122 335.146 316.708 334.78 316.354L311.696 293.955C311.342 293.619 310.94 293.355 310.484 293.169C310.029 292.983 309.555 292.887 309.069 292.887C308.577 292.881 308.103 292.965 307.647 293.145C307.185 293.319 306.777 293.577 306.423 293.913L292.398 280.289C292.836 279.581 293.256 278.861 293.652 278.129C294.048 277.404 294.419 276.66 294.767 275.904C295.121 275.148 295.445 274.386 295.751 273.612C296.051 272.832 296.333 272.053 296.585 271.261C296.837 270.469 297.071 269.671 297.275 268.861C297.479 268.057 297.659 267.242 297.815 266.426C297.971 265.61 298.103 264.788 298.205 263.96C298.307 263.138 298.385 262.31 298.439 261.483C298.493 260.649 298.523 259.821 298.523 258.987C298.523 258.153 298.499 257.325 298.451 256.491C298.403 255.664 298.325 254.836 298.229 254.008C298.127 253.186 298.001 252.364 297.851 251.542C297.695 250.727 297.521 249.911 297.317 249.107C297.119 248.297 296.891 247.499 296.639 246.707C296.387 245.909 296.111 245.13 295.811 244.35C295.517 243.576 295.193 242.808 294.845 242.052C294.497 241.296 294.126 240.552 293.736 239.821C293.34 239.089 292.926 238.363 292.488 237.661C292.05 236.953 291.594 236.257 291.114 235.579C290.634 234.896 290.13 234.236 289.608 233.588C289.086 232.94 288.547 232.304 287.989 231.692C287.431 231.074 286.849 230.48 286.255 229.898C285.655 229.323 285.043 228.759 284.407 228.219C283.777 227.679 283.13 227.157 282.464 226.659C281.804 226.155 281.12 225.675 280.43 225.213C279.734 224.757 279.026 224.319 278.306 223.906C277.587 223.486 276.855 223.096 276.111 222.724C275.367 222.352 274.611 222.01 273.843 221.686C273.075 221.362 272.302 221.062 271.516 220.786C270.73 220.51 269.938 220.258 269.14 220.03C268.336 219.802 267.532 219.604 266.717 219.424C265.907 219.25 265.085 219.094 264.263 218.968C263.441 218.842 262.619 218.74 261.792 218.669C260.964 218.591 260.13 218.543 259.302 218.519C258.468 218.495 257.634 218.495 256.806 218.525C255.973 218.549 255.145 218.603 254.317 218.681C253.489 218.758 252.661 218.866 251.839 218.992C251.018 219.124 250.202 219.28 249.392 219.46C248.576 219.64 247.772 219.844 246.974 220.072C246.17 220.3 245.379 220.558 244.599 220.834C243.813 221.116 243.039 221.416 242.271 221.74C241.509 222.07 240.753 222.418 240.01 222.79C239.266 223.168 238.534 223.564 237.814 223.978C237.1 224.397 236.392 224.835 235.702 225.297C235.006 225.759 234.329 226.245 233.669 226.749C233.009 227.253 232.361 227.775 231.731 228.321C231.101 228.861 230.489 229.425 229.895 230.006C229.302 230.588 228.726 231.188 228.168 231.806C227.61 232.418 227.07 233.054 226.548 233.702C226.032 234.356 225.534 235.021 225.054 235.699C224.58 236.383 224.119 237.079 223.687 237.787C223.255 238.495 222.841 239.221 222.451 239.953C222.061 240.69 221.695 241.434 221.347 242.19C221.005 242.946 220.681 243.714 220.387 244.494C220.093 245.268 219.817 246.053 219.571 246.851C219.319 247.643 219.097 248.447 218.899 249.251C218.702 250.061 218.528 250.877 218.378 251.692C218.234 252.508 218.108 253.336 218.012 254.158C217.916 254.986 217.844 255.814 217.796 256.647C217.748 257.475 217.73 258.309 217.736 259.137C217.736 259.971 217.766 260.799 217.826 261.633C217.88 262.46 217.964 263.288 218.072 264.116C218.18 264.938 218.312 265.76 218.468 266.576C218.63 267.391 218.809 268.201 219.019 269.011C219.223 269.815 219.457 270.613 219.715 271.405C219.973 272.197 220.255 272.976 220.561 273.75C220.867 274.524 221.197 275.286 221.551 276.042C221.905 276.792 222.277 277.536 222.679 278.267C223.075 278.993 223.501 279.713 223.939 280.415C224.382 281.123 224.85 281.813 225.336 282.485C225.822 283.163 226.326 283.822 226.854 284.464C227.382 285.106 227.928 285.736 228.492 286.348C229.056 286.954 229.637 287.548 230.243 288.124C230.843 288.7 231.461 289.251 232.097 289.791C232.733 290.325 233.387 290.841 234.053 291.339C234.725 291.831 235.402 292.305 236.104 292.761C236.8 293.217 237.508 293.643 238.234 294.057C238.96 294.464 239.698 294.854 240.441 295.214C241.191 295.58 241.947 295.922 242.721 296.24C243.489 296.558 244.263 296.846 245.055 297.116C245.84 297.386 246.632 297.632 247.436 297.854C248.24 298.07 249.044 298.268 249.86 298.436C250.676 298.61 251.491 298.754 252.319 298.874C253.141 298.994 253.969 299.09 254.797 299.156C255.625 299.222 256.453 299.27 257.286 299.282C258.12 299.3 258.948 299.294 259.782 299.258C260.61 299.228 261.444 299.168 262.271 299.078C263.099 298.994 263.921 298.886 264.743 298.748C265.565 298.61 266.375 298.448 267.191 298.262C268 298.076 268.804 297.866 269.602 297.632C270.4 297.392 271.186 297.134 271.972 296.846C272.751 296.564 273.525 296.252 274.287 295.922C275.049 295.586 275.799 295.232 276.537 294.854C277.281 294.476 278.007 294.075 278.726 293.649C279.44 293.223 280.142 292.779 280.832 292.311C281.516 291.843 282.188 291.357 282.848 290.847L296.483 304.087L295.961 304.621C295.613 304.987 295.343 305.4 295.157 305.874C294.971 306.342 294.881 306.834 294.887 307.338C294.893 307.848 295.001 308.334 295.199 308.796C295.397 309.264 295.679 309.672 296.045 310.026L319.129 332.425C319.495 332.773 319.909 333.043 320.383 333.229C320.851 333.415 321.342 333.505 321.846 333.499C322.35 333.487 322.836 333.385 323.304 333.187C323.766 332.989 324.18 332.707 324.534 332.341V332.347ZM258.138 229.904C259.086 229.904 260.034 229.952 260.982 230.042C261.923 230.138 262.865 230.276 263.795 230.462C264.731 230.648 265.649 230.876 266.561 231.152C267.466 231.428 268.36 231.752 269.236 232.112C270.118 232.478 270.976 232.886 271.81 233.33C272.65 233.78 273.465 234.266 274.251 234.794C275.043 235.321 275.805 235.885 276.543 236.491C277.275 237.091 277.977 237.733 278.648 238.405C279.32 239.077 279.962 239.779 280.562 240.51C281.168 241.248 281.732 242.01 282.26 242.796C282.788 243.588 283.274 244.404 283.723 245.238C284.167 246.077 284.575 246.935 284.941 247.811C285.301 248.693 285.625 249.587 285.901 250.493C286.177 251.404 286.405 252.322 286.591 253.258C286.777 254.188 286.915 255.13 287.011 256.072C287.101 257.019 287.149 257.967 287.149 258.915C287.149 259.869 287.101 260.817 287.011 261.759C286.915 262.706 286.777 263.642 286.591 264.578C286.405 265.508 286.177 266.426 285.901 267.337C285.625 268.249 285.301 269.143 284.941 270.019C284.575 270.895 284.167 271.753 283.723 272.593C283.274 273.432 282.788 274.242 282.26 275.034C281.732 275.826 281.168 276.588 280.562 277.32C279.962 278.057 279.32 278.759 278.648 279.431C277.977 280.103 277.275 280.739 276.543 281.345C275.805 281.945 275.043 282.509 274.257 283.037C273.465 283.564 272.65 284.056 271.816 284.5C270.976 284.95 270.118 285.358 269.236 285.718C268.36 286.084 267.466 286.402 266.561 286.678C265.649 286.954 264.731 287.182 263.795 287.368C262.865 287.554 261.923 287.692 260.982 287.788C260.034 287.878 259.086 287.926 258.138 287.926C257.184 287.926 256.237 287.884 255.295 287.788C254.347 287.692 253.411 287.554 252.475 287.368C251.545 287.182 250.628 286.954 249.716 286.678C248.804 286.402 247.91 286.084 247.034 285.718C246.158 285.358 245.301 284.95 244.461 284.5C243.621 284.056 242.811 283.564 242.019 283.037C241.227 282.509 240.465 281.945 239.734 281.345C238.996 280.739 238.294 280.103 237.622 279.431C236.95 278.759 236.314 278.057 235.714 277.32C235.108 276.588 234.545 275.826 234.017 275.034C233.489 274.242 232.997 273.432 232.553 272.593C232.103 271.753 231.701 270.895 231.335 270.019C230.969 269.143 230.651 268.249 230.375 267.337C230.099 266.432 229.871 265.508 229.685 264.578C229.5 263.642 229.362 262.706 229.266 261.759C229.176 260.817 229.128 259.869 229.128 258.915C229.128 257.967 229.176 257.019 229.266 256.072C229.362 255.13 229.5 254.188 229.685 253.258C229.871 252.322 230.099 251.404 230.375 250.493C230.651 249.587 230.969 248.693 231.335 247.817C231.695 246.935 232.103 246.077 232.553 245.244C232.997 244.404 233.489 243.588 234.017 242.796C234.545 242.01 235.108 241.248 235.708 240.51C236.314 239.779 236.95 239.077 237.622 238.405C238.294 237.733 238.996 237.091 239.734 236.491C240.465 235.885 241.227 235.321 242.019 234.794C242.811 234.266 243.621 233.78 244.461 233.33C245.301 232.886 246.158 232.478 247.034 232.112C247.91 231.752 248.804 231.428 249.716 231.152C250.622 230.876 251.545 230.648 252.475 230.462C253.411 230.276 254.347 230.138 255.295 230.042C256.237 229.952 257.184 229.904 258.138 229.904ZM239.68 52.6793C238.954 52.4813 238.288 52.1574 237.694 51.7015C237.094 51.2396 236.608 50.6877 236.23 50.0338C235.852 49.3859 235.612 48.684 235.516 47.9402C235.42 47.1903 235.468 46.4584 235.66 45.7266C235.852 45.0007 236.182 44.3408 236.638 43.7409C237.094 43.1471 237.652 42.6551 238.3 42.2832C238.954 41.9053 239.65 41.6653 240.399 41.5693C241.143 41.4674 241.881 41.5154 242.607 41.7133C246.362 42.7151 250.082 43.8549 253.753 45.1267C257.43 46.3985 261.054 47.7962 264.629 49.3259C268.204 50.8556 271.72 52.5053 275.175 54.287C278.63 56.0627 282.02 57.9643 285.343 59.9859C288.667 62.0076 291.912 64.1432 295.079 66.3927C298.247 68.6483 301.336 71.0059 304.336 73.4774C307.335 75.949 310.245 78.5285 313.064 81.204C315.883 83.8855 318.601 86.657 321.223 89.5305C323.838 92.4039 326.352 95.3674 328.763 98.4208C331.175 101.468 333.472 104.606 335.656 107.821C337.839 111.036 339.909 114.324 341.859 117.689C343.814 121.049 345.644 124.474 347.348 127.971C349.057 131.463 350.635 135.014 352.093 138.619C353.545 142.225 354.87 145.878 356.064 149.579C357.258 153.275 358.32 157.012 359.249 160.791C360.173 164.565 360.965 168.368 361.625 172.201L365.596 163.617C365.908 162.927 366.34 162.327 366.892 161.811C367.444 161.295 368.074 160.905 368.782 160.641C369.49 160.377 370.221 160.263 370.971 160.287C371.727 160.317 372.447 160.491 373.137 160.809C373.821 161.121 374.421 161.559 374.931 162.117C375.44 162.669 375.83 163.305 376.088 164.013C376.346 164.721 376.46 165.452 376.424 166.208C376.394 166.964 376.214 167.684 375.896 168.368L363.311 195.585C363.113 196.017 362.861 196.413 362.567 196.779C362.267 197.145 361.931 197.468 361.553 197.75C361.175 198.032 360.767 198.266 360.335 198.446C359.897 198.626 359.447 198.752 358.979 198.818C358.512 198.89 358.044 198.896 357.576 198.848C357.108 198.8 356.652 198.698 356.208 198.536C355.764 198.374 355.344 198.158 354.954 197.894C354.57 197.624 354.216 197.318 353.904 196.965L335.494 177.24C334.978 176.688 334.594 176.064 334.33 175.357C334.066 174.655 333.946 173.923 333.976 173.173C334 172.423 334.174 171.703 334.486 171.019C334.798 170.335 335.23 169.736 335.782 169.226C336.334 168.716 336.958 168.326 337.665 168.062C338.367 167.804 339.093 167.684 339.849 167.708C340.599 167.738 341.319 167.906 342.003 168.218C342.687 168.536 343.28 168.962 343.796 169.514L350.917 177.144C350.371 173.503 349.687 169.886 348.877 166.298C348.068 162.705 347.132 159.148 346.058 155.62C344.99 152.099 343.796 148.619 342.477 145.182C341.157 141.745 339.711 138.361 338.145 135.026C336.58 131.697 334.894 128.421 333.088 125.212C331.283 122.002 329.369 118.865 327.335 115.794C325.308 112.722 323.166 109.729 320.917 106.813C318.667 103.898 316.315 101.066 313.862 98.3188C311.408 95.5713 308.859 92.9198 306.213 90.3583C303.568 87.7968 300.832 85.3372 298.007 82.9737C295.181 80.6161 292.278 78.3545 289.29 76.2069C286.303 74.0533 283.238 72.0137 280.1 70.0821C276.969 68.1564 273.765 66.3388 270.496 64.6411C267.227 62.9434 263.903 61.3717 260.52 59.9139C257.142 58.4562 253.711 57.1245 250.232 55.9187C246.752 54.7129 243.237 53.6331 239.68 52.6793ZM65.9398 205.507C65.184 205.507 64.4581 205.363 63.7622 205.075C63.0664 204.787 62.4545 204.373 61.9206 203.839C61.3867 203.305 60.9788 202.693 60.6908 201.998C60.3969 201.302 60.2529 200.576 60.2529 199.82C60.2529 199.07 60.3969 198.344 60.6908 197.648C60.9788 196.953 61.3867 196.335 61.9206 195.801C62.4545 195.273 63.0664 194.859 63.7622 194.571C64.4581 194.283 65.184 194.139 65.9398 194.139H194.562V65.5169C194.562 64.761 194.706 64.0352 194.994 63.3393C195.282 62.6434 195.696 62.0256 196.23 61.4977C196.764 60.9638 197.375 60.5498 198.071 60.2619C198.767 59.9739 199.493 59.83 200.249 59.83C200.999 59.83 201.725 59.9739 202.421 60.2619C203.116 60.5498 203.734 60.9638 204.268 61.4977C204.796 62.0256 205.21 62.6434 205.498 63.3393C205.786 64.0352 205.93 64.761 205.93 65.5169V194.139H334.558C335.308 194.139 336.034 194.283 336.73 194.571C337.425 194.859 338.043 195.273 338.571 195.801C339.105 196.335 339.519 196.953 339.807 197.648C340.095 198.344 340.239 199.07 340.239 199.82C340.239 200.576 340.095 201.302 339.807 201.998C339.519 202.693 339.105 203.305 338.571 203.839C338.043 204.373 337.425 204.787 336.73 205.075C336.034 205.363 335.308 205.507 334.558 205.507H205.93V334.129C205.93 334.885 205.786 335.611 205.498 336.307C205.21 337.003 204.796 337.614 204.268 338.148C203.734 338.682 203.116 339.09 202.421 339.378C201.725 339.672 200.999 339.816 200.249 339.816C199.493 339.816 198.767 339.672 198.071 339.378C197.375 339.09 196.764 338.682 196.23 338.148C195.696 337.614 195.282 337.003 194.994 336.307C194.706 335.611 194.562 334.885 194.562 334.129V205.507H65.9398ZM236.452 365.167C237.13 365.485 237.724 365.923 238.228 366.475C238.732 367.027 239.116 367.657 239.374 368.359C239.632 369.061 239.74 369.786 239.71 370.536C239.68 371.286 239.506 372 239.194 372.678C238.882 373.362 238.45 373.956 237.898 374.466C237.352 374.97 236.728 375.359 236.026 375.617C235.324 375.881 234.599 375.995 233.849 375.971C233.099 375.947 232.385 375.779 231.701 375.467L204.484 362.888C204.052 362.684 203.656 362.438 203.29 362.144C202.924 361.844 202.6 361.508 202.319 361.13C202.037 360.752 201.803 360.344 201.623 359.906C201.443 359.474 201.317 359.018 201.251 358.557C201.179 358.089 201.173 357.621 201.221 357.153C201.269 356.679 201.371 356.223 201.533 355.779C201.695 355.341 201.911 354.921 202.175 354.531C202.445 354.141 202.75 353.793 203.104 353.482L222.829 335.065C223.381 334.555 224.005 334.165 224.712 333.907C225.414 333.643 226.146 333.523 226.896 333.553C227.646 333.577 228.366 333.751 229.05 334.063C229.733 334.375 230.333 334.807 230.843 335.353C231.353 335.905 231.743 336.535 232.007 337.237C232.265 337.944 232.385 338.67 232.361 339.42C232.331 340.176 232.163 340.89 231.851 341.574C231.539 342.258 231.107 342.857 230.555 343.367L222.907 350.512C235.384 348.616 247.448 345.227 259.092 340.344C270.736 335.461 281.612 329.234 291.708 321.657L299.944 329.648C289.38 337.746 278.007 344.465 265.811 349.798C253.615 355.131 240.957 358.929 227.844 361.19L236.452 365.167ZM323.436 289.509C334.54 274.248 342.525 257.493 347.39 239.251C347.588 238.525 347.912 237.865 348.367 237.265C348.829 236.671 349.381 236.185 350.035 235.807C350.683 235.429 351.385 235.189 352.129 235.093C352.879 234.997 353.61 235.045 354.336 235.237C355.068 235.429 355.728 235.759 356.328 236.215C356.922 236.671 357.408 237.229 357.786 237.877C358.164 238.531 358.404 239.227 358.5 239.971C358.602 240.72 358.554 241.452 358.356 242.184C355.698 252.16 352.123 261.801 347.63 271.099C343.136 280.403 337.815 289.197 331.655 297.488L323.436 289.509ZM34.9016 236.029L38.8729 227.433C39.5327 231.266 40.3246 235.069 41.2544 238.843C42.1783 242.622 43.2401 246.359 44.4338 250.055C45.6276 253.756 46.9534 257.409 48.4111 261.015C49.8628 264.62 51.4465 268.171 53.1502 271.663C54.8599 275.154 56.6896 278.585 58.6392 281.945C60.5948 285.31 62.6585 288.598 64.848 291.813C67.0316 295.028 69.3292 298.16 71.7408 301.213C74.1463 304.267 76.6599 307.23 79.2814 310.098C81.9029 312.971 84.6204 315.749 87.4399 318.43C90.2533 321.106 93.1628 323.685 96.1622 326.157C99.1677 328.628 102.251 330.986 105.419 333.241C108.586 335.491 111.831 337.626 115.155 339.648C118.478 341.67 121.867 343.571 125.323 345.353C128.778 347.129 132.294 348.784 135.869 350.314C139.444 351.844 143.068 353.248 146.739 354.519C150.416 355.791 154.129 356.925 157.885 357.933C158.611 358.131 159.349 358.179 160.098 358.077C160.842 357.981 161.538 357.741 162.192 357.363C162.846 356.985 163.398 356.499 163.854 355.905C164.316 355.305 164.64 354.645 164.832 353.913C165.029 353.188 165.077 352.45 164.975 351.706C164.879 350.962 164.64 350.26 164.262 349.612C163.884 348.958 163.398 348.4 162.804 347.945C162.204 347.489 161.544 347.165 160.818 346.967C157.255 346.019 153.74 344.939 150.26 343.727C146.781 342.522 143.349 341.19 139.966 339.738C136.583 338.28 133.259 336.703 129.99 335.005C126.721 333.313 123.523 331.496 120.386 329.57C117.248 327.638 114.183 325.599 111.195 323.445C108.208 321.297 105.299 319.042 102.473 316.678C99.6476 314.315 96.9121 311.855 94.2666 309.294C91.6211 306.732 89.0716 304.081 86.618 301.333C84.1645 298.586 81.8129 295.754 79.5633 292.839C77.3137 289.923 75.1721 286.93 73.1445 283.858C71.1109 280.787 69.1972 277.644 67.3916 274.434C65.5859 271.225 63.9002 267.949 62.3345 264.62C60.7688 261.285 59.3291 257.901 58.0093 254.464C56.6836 251.027 55.4898 247.547 54.422 244.02C53.3542 240.498 52.4184 236.935 51.6085 233.348C50.7987 229.754 50.1208 226.137 49.5689 222.496L56.6956 230.132C57.2115 230.678 57.8054 231.11 58.4892 231.422C59.1731 231.734 59.893 231.908 60.6428 231.932C61.3987 231.962 62.1246 231.842 62.8264 231.578C63.5343 231.32 64.1642 230.93 64.7101 230.42C65.262 229.904 65.6939 229.311 66.0058 228.627C66.3178 227.943 66.4917 227.223 66.5157 226.473C66.5457 225.717 66.4258 224.991 66.1618 224.289C65.8979 223.582 65.5139 222.952 64.998 222.406L46.5874 202.681C46.2755 202.328 45.9276 202.016 45.5376 201.752C45.1477 201.488 44.7338 201.272 44.2899 201.11C43.8459 200.948 43.39 200.846 42.9221 200.792C42.4482 200.744 41.9803 200.756 41.5124 200.822C41.0505 200.894 40.5945 201.02 40.1626 201.2C39.7247 201.38 39.3168 201.608 38.9389 201.89C38.5609 202.172 38.225 202.502 37.925 202.867C37.6311 203.233 37.3851 203.629 37.1872 204.055L24.6015 231.278C24.2896 231.962 24.1216 232.676 24.0976 233.426C24.0736 234.17 24.1876 234.896 24.4515 235.597C24.7095 236.299 25.0994 236.929 25.6093 237.475C26.1132 238.027 26.7131 238.459 27.391 238.771C28.0689 239.083 28.7827 239.257 29.5326 239.287C30.2825 239.317 31.0083 239.203 31.7102 238.945C32.4121 238.693 33.0419 238.309 33.5938 237.805C34.1457 237.301 34.5837 236.707 34.9016 236.029ZM164.04 34.4787L172.624 38.4439C168.791 39.1038 164.987 39.8957 161.214 40.8195C157.441 41.7493 153.698 42.8111 150.002 44.0049C146.301 45.1987 142.648 46.5244 139.042 47.9762C135.437 49.4339 131.886 51.0116 128.394 52.7213C124.903 54.425 121.472 56.2546 118.112 58.2103C114.747 60.1599 111.459 62.2295 108.244 64.4131C105.029 66.6027 101.897 68.9003 98.8437 71.3058C95.7903 73.7174 92.8269 76.2309 89.9594 78.8524C87.0859 81.468 84.3084 84.1914 81.6329 87.0049C78.9514 89.8244 76.3779 92.7339 73.9064 95.7333C71.4348 98.7387 69.0713 101.822 66.8217 104.99C64.5661 108.157 62.4305 111.402 60.4089 114.726C58.3872 118.049 56.4916 121.439 54.7099 124.894C52.9343 128.349 51.2786 131.865 49.7488 135.44C48.2191 139.015 46.8214 142.639 45.5496 146.316C44.2779 149.993 43.1441 153.707 42.1363 157.462C41.9443 158.188 41.8963 158.926 41.9923 159.669C42.0943 160.413 42.3282 161.115 42.7062 161.769C43.0841 162.417 43.57 162.975 44.1639 163.431C44.7638 163.887 45.4237 164.217 46.1555 164.409C46.8814 164.601 47.6132 164.649 48.3631 164.553C49.107 164.457 49.8088 164.217 50.4567 163.839C51.1106 163.467 51.6625 162.975 52.1244 162.381C52.5803 161.781 52.9103 161.121 53.1022 160.395C54.056 156.838 55.1358 153.323 56.3416 149.843C57.5474 146.364 58.8792 142.933 60.3369 139.549C61.7946 136.166 63.3723 132.842 65.07 129.573C66.7677 126.31 68.5794 123.106 70.505 119.969C72.4366 116.831 74.4763 113.772 76.6299 110.785C78.7835 107.797 81.039 104.888 83.4026 102.062C85.7602 99.2367 88.2257 96.5012 90.7812 93.8557C93.3428 91.2101 96.0003 88.6606 98.7418 86.2071C101.489 83.7535 104.321 81.402 107.236 79.1524C110.152 76.9028 113.145 74.7672 116.217 72.7336C119.288 70.6999 122.425 68.7863 125.641 66.9806C128.85 65.175 132.12 63.4893 135.449 61.9236C138.784 60.3579 142.168 58.9181 145.605 57.5924C149.042 56.2726 152.522 55.0788 156.049 54.011C159.57 52.9432 163.128 52.0014 166.721 51.1916C170.314 50.3817 173.932 49.6978 177.567 49.1519L169.943 56.2726C169.391 56.7885 168.959 57.3824 168.647 58.0663C168.335 58.7502 168.167 59.47 168.137 60.2199C168.113 60.9697 168.227 61.7016 168.491 62.4035C168.755 63.1114 169.139 63.7352 169.655 64.2871C170.165 64.839 170.764 65.271 171.448 65.5829C172.132 65.8948 172.846 66.0628 173.602 66.0928C174.352 66.1168 175.078 66.0028 175.785 65.7389C176.487 65.4749 177.117 65.091 177.663 64.5751L197.387 46.1645C197.741 45.8526 198.053 45.5046 198.317 45.1147C198.581 44.7248 198.797 44.3048 198.959 43.8609C199.121 43.423 199.229 42.9611 199.277 42.4932C199.325 42.0253 199.313 41.5574 199.247 41.0894C199.175 40.6215 199.049 40.1716 198.869 39.7337C198.689 39.3018 198.461 38.8938 198.179 38.5159C197.897 38.138 197.567 37.802 197.201 37.5021C196.836 37.2082 196.44 36.9562 196.014 36.7582L168.791 24.1726C168.107 23.8546 167.387 23.6747 166.631 23.6447C165.881 23.6087 165.149 23.7227 164.436 23.9806C163.728 24.2386 163.098 24.6285 162.54 25.1384C161.982 25.6483 161.55 26.2482 161.232 26.9321C160.914 27.6219 160.74 28.3418 160.716 29.0977C160.686 29.8475 160.8 30.5794 161.064 31.2873C161.328 31.9951 161.718 32.625 162.234 33.1769C162.75 33.7348 163.35 34.1667 164.04 34.4787ZM270.646 100.37C274.587 101.312 278.288 102.848 281.738 104.972L288.948 101.768L297.449 110.269L294.246 117.479C296.375 120.929 297.905 124.63 298.847 128.577L306.201 131.409V143.424L298.847 146.256C297.905 150.203 296.369 153.899 294.246 157.354L297.449 164.565L288.948 173.059L281.744 169.862C278.288 171.985 274.587 173.521 270.64 174.463L267.808 181.817H255.793L252.961 174.463C249.014 173.521 245.319 171.985 241.863 169.862L234.653 173.065L226.158 164.565L229.356 157.36C227.226 153.905 225.696 150.203 224.754 146.256L217.4 143.424V131.409L224.754 128.577C225.696 124.636 227.232 120.935 229.356 117.479L226.158 110.275L234.653 101.774L241.863 104.978C245.319 102.848 249.014 101.312 252.961 100.37L255.793 93.0158H267.808L270.646 100.37Z" fill="white"/>
</g>
</svg>
