<svg width="400" height="400" viewBox="0 0 400 400" fill="none" xmlns="http://www.w3.org/2000/svg">
<mask id="mask0_42_85" style="mask-type:luminance" maskUnits="userSpaceOnUse" x="22" y="61" width="101" height="278">
<path d="M22.8344 61.7864H122.528V338.213H22.8344V61.7864Z" fill="white"/>
</mask>
<g mask="url(#mask0_42_85)">
<path d="M57.8312 337.937C60.8575 337.111 62.2369 333.803 61.4111 331.044C54.2466 308.448 59.4828 280.334 83.1768 270.416C91.9928 266.831 98.6037 261.318 103.286 254.43C114.307 237.343 107.969 216.947 107.697 216.121C107.143 214.193 105.491 212.813 103.84 212.541C102.737 211.988 99.9831 211.162 97.2243 210.059C99.1526 208.957 101.081 207.854 101.635 207.577C103.286 206.752 107.969 203.997 107.143 197.931C106.871 195.73 106.594 193.525 106.317 191.32V190.489C108.522 188.561 112.928 184.428 117.062 180.848C121.195 177.263 122.021 173.406 122.021 170.924C122.021 164.309 116.513 159.073 115.959 158.524L79.5922 126.553C76.0123 88.7975 51.7693 68.9556 30.0036 62.6168C26.9727 61.7864 23.9417 63.4426 23.116 66.4735C22.2902 69.5045 23.9417 72.5355 26.9727 73.3612C45.7074 78.5974 66.6473 96.2389 68.8478 129.584C68.8478 130.964 69.6735 132.343 70.7761 133.441L108.799 166.791C109.897 167.617 111.276 169.545 111.276 170.924C111.276 171.473 111 172.027 110.174 172.576C97.2243 183.879 96.9522 184.428 96.3985 185.253C95.0238 187.735 95.2959 190.217 95.5727 191.592L95.8496 192.971C96.1217 194.628 96.3985 196.279 96.3985 197.931C95.2959 198.484 88.1361 202.618 85.9309 203.997C84.0025 205.1 81.7974 207.577 81.7974 210.608C81.7974 215.295 86.4799 217.501 93.0954 219.983C94.4701 220.532 96.6753 221.357 98.3269 221.911C99.4295 227.147 100.809 238.445 94.4701 248.369C91.1671 253.328 86.2077 257.461 79.5922 260.216C49.5641 272.621 42.6764 307.069 51.4925 334.352C52.3183 336.834 54.5234 338.213 56.7286 338.213C56.7286 338.213 57.2776 338.213 57.8312 337.937Z" fill="white"/>
</g>
<mask id="mask1_42_85" style="mask-type:luminance" maskUnits="userSpaceOnUse" x="276" y="62" width="102" height="277">
<path d="M276.271 62.4246H377.166V338.214H276.271V62.4246Z" fill="white"/>
</mask>
<g mask="url(#mask1_42_85)">
<path d="M368.598 62.8892C346.833 68.9558 322.313 89.0746 319.005 126.83L282.366 158.796C281.812 159.35 276.304 164.309 276.304 171.201C276.304 173.955 277.13 177.812 281.263 181.12C285.397 184.705 290.08 188.838 292.285 190.767V191.592C292.008 193.797 291.731 196.003 291.454 198.208C290.628 203.998 295.588 206.752 296.967 207.854C297.516 208.131 299.445 209.234 301.373 210.336C298.619 211.439 295.865 212.265 294.762 212.542C292.834 213.09 291.454 214.47 290.905 216.121C290.628 216.947 284.294 237.343 295.316 254.431C299.721 261.318 306.609 266.831 315.425 270.416C339.119 280.335 344.355 308.448 337.191 331.044C336.365 334.08 337.74 337.111 340.771 337.937C341.324 338.214 341.873 338.214 342.427 338.214C344.627 338.214 346.833 336.834 347.658 334.352C356.474 307.069 349.587 272.621 319.559 260.216C312.948 257.462 307.988 253.605 304.681 248.369C298.342 238.722 299.721 227.147 300.824 221.911C302.752 221.358 304.681 220.532 306.06 219.983C312.671 217.501 317.353 215.296 317.353 210.608C317.353 207.305 315.148 205.1 313.22 203.998C311.019 202.618 303.855 198.485 302.752 197.931C303.029 196.279 303.301 194.628 303.301 192.972L303.578 191.32C303.855 189.941 304.132 187.736 302.752 185.254C302.203 184.151 301.927 183.602 288.977 172.304C288.151 171.75 287.874 171.201 287.874 170.648C287.874 169.545 289.254 167.617 290.08 166.791L328.098 133.441C329.2 132.615 329.749 131.241 330.026 129.584C332.231 95.9623 353.171 78.5976 371.906 73.3615C374.932 72.5357 376.588 69.5047 375.763 66.4738C374.383 63.7196 371.352 62.0634 368.598 62.8892Z" fill="white"/>
</g>
<path d="M199.437 84.6641C161.695 84.6641 130.837 112.773 130.837 147.221C130.837 157.144 133.319 167.068 138.278 175.612L121.472 199.31C118.441 203.444 118.713 208.957 122.021 212.814C124.226 215.296 127.257 216.675 130.288 216.675C131.94 216.675 133.591 216.398 135.247 215.572L164.726 200.967C175.194 206.752 187.318 209.506 199.437 209.506C211.838 209.506 223.685 206.475 234.152 200.967L263.355 215.296C265.006 216.121 266.662 216.398 268.314 216.398C271.345 216.398 274.653 215.019 276.581 212.541C279.884 208.68 280.161 203.167 277.13 199.033L260.6 175.612C265.283 167.34 268.037 157.421 268.037 147.221C268.037 112.773 237.183 84.6641 199.437 84.6641ZM226.711 156.319H171.614C168.583 156.319 166.101 153.837 166.101 150.806C166.101 147.775 168.583 145.293 171.614 145.293H226.711C229.742 145.293 232.224 147.775 232.224 150.806C232.224 153.837 229.742 156.319 226.711 156.319ZM226.711 134.271H171.614C168.583 134.271 166.101 131.789 166.101 128.758C166.101 125.727 168.583 123.245 171.614 123.245H226.711C229.742 123.245 232.224 125.727 232.224 128.758C232.224 131.789 229.742 134.271 226.711 134.271Z" fill="white"/>
</svg>
