<svg width="123" height="118" viewBox="0 0 123 118" fill="none" xmlns="http://www.w3.org/2000/svg">
<path d="M6.68734 22.8698C5.49984 22.8698 4.53109 23.8385 4.53109 25.026C4.53109 26.2135 5.49984 27.1771 6.68734 27.1771C7.87484 27.1771 8.83838 26.2135 8.83838 25.026C8.83838 23.8385 7.87484 22.8698 6.68734 22.8698ZM6.68734 29.4948C4.21859 29.4948 2.21338 27.4896 2.21338 25.026C2.21338 22.5625 4.21859 20.5521 6.68734 20.5521C9.15088 20.5521 11.1561 22.5625 11.1561 25.026C11.1561 27.4896 9.15088 29.4948 6.68734 29.4948Z" fill="white"/>
<path d="M5.51556 48.8646C5.49473 48.8646 5.4739 48.8646 5.45306 48.8646C4.81765 48.8333 4.32286 48.2865 4.35931 47.651L5.3489 28.276C5.38015 27.6354 5.93223 27.1458 6.56765 27.1771C7.20307 27.2083 7.69786 27.7552 7.66661 28.3906L6.67181 47.7656C6.64057 48.3854 6.13015 48.8646 5.51556 48.8646Z" fill="white"/>
<path d="M25.1093 60.4896C24.9739 60.4896 24.8333 60.4687 24.6979 60.4167L8.76035 54.3906C8.1614 54.1667 7.86452 53.4948 8.08848 52.8958C8.31244 52.2969 8.98431 51.9948 9.58327 52.224L25.5208 58.2448C26.1197 58.474 26.4218 59.1406 26.1926 59.7396C26.0208 60.2031 25.5781 60.4896 25.1093 60.4896Z" fill="white"/>
<path d="M32.9062 76.2031C32.4218 76.2031 31.9635 75.8906 31.8072 75.4011L28.1249 64.0156C27.927 63.4063 28.2604 62.7552 28.8697 62.5573C29.4791 62.3594 30.1302 62.6927 30.3281 63.3021L34.0104 74.6875C34.2083 75.2917 33.8749 75.9479 33.2656 76.1459C33.1458 76.1823 33.0312 76.2031 32.9062 76.2031Z" fill="white"/>
<path d="M50.3593 82.6771C50.3125 82.6771 50.2708 82.6771 50.2291 82.6719L39.25 81.4636C38.6145 81.3959 38.1562 80.8229 38.2239 80.1875C38.2968 79.5521 38.8645 79.0886 39.5052 79.1615L50.4843 80.3646C51.1198 80.4375 51.5781 81.0104 51.5052 81.6459C51.4427 82.2396 50.9427 82.6771 50.3593 82.6771Z" fill="white"/>
<path d="M75.7603 91.1562C75.6249 91.1562 75.4894 91.1354 75.3488 91.0833L57.9321 84.5156C57.3332 84.2917 57.0311 83.6198 57.2603 83.0208C57.4842 82.4219 58.1509 82.1198 58.7499 82.349L76.1665 88.9115C76.7707 89.1406 77.0728 89.8073 76.8436 90.4062C76.6717 90.875 76.229 91.1562 75.7603 91.1562Z" fill="white"/>
<path d="M81.9478 91.1198C81.479 91.1198 81.0415 90.8386 80.8644 90.3803C80.6301 89.7865 80.927 89.1146 81.5207 88.8803L103.667 80.2032C104.26 79.9688 104.937 80.2605 105.172 80.8594C105.401 81.4532 105.109 82.1251 104.515 82.3594L82.3697 91.0365C82.229 91.0938 82.0832 91.1198 81.9478 91.1198Z" fill="white"/>
<path d="M109.208 76.9844C109.094 76.9844 108.974 76.9688 108.854 76.9323C108.245 76.7344 107.911 76.0834 108.104 75.474L116.276 50C116.469 49.3907 117.125 49.0573 117.734 49.25C118.344 49.4479 118.682 50.099 118.484 50.7084L110.318 76.1823C110.156 76.6719 109.703 76.9844 109.208 76.9844Z" fill="white"/>
<path d="M116.687 45.5209C116.292 45.5209 115.911 45.3229 115.693 44.9636L102.927 23.7344C102.599 23.1875 102.776 22.474 103.328 22.1459C103.875 21.8125 104.583 21.9896 104.917 22.5417L117.677 43.7656C118.01 44.3125 117.833 45.0261 117.281 45.3594C117.094 45.4688 116.891 45.5209 116.687 45.5209Z" fill="white"/>
<path d="M98.1875 18.6979C97.9948 18.6979 97.7969 18.651 97.6198 18.5469L77.6719 7.18227C77.1146 6.86456 76.9219 6.15623 77.2344 5.59894C77.5521 5.04165 78.2604 4.84894 78.8177 5.16665L98.7656 16.5312C99.3229 16.8489 99.5156 17.5573 99.1979 18.1146C98.9844 18.4896 98.5938 18.6979 98.1875 18.6979Z" fill="white"/>
<path d="M38.578 6.65627C37.953 6.65627 37.4374 6.15627 37.4217 5.52606C37.4061 4.88544 37.9061 4.35419 38.5467 4.33335L72.0259 3.46356C72.0363 3.46356 72.0467 3.46356 72.0572 3.46356C72.6822 3.46356 73.1978 3.95835 73.2134 4.58856C73.229 5.22919 72.729 5.76565 72.0832 5.78127L38.6092 6.65627C38.5988 6.65627 38.5884 6.65627 38.578 6.65627Z" fill="white"/>
<path d="M9.39569 24.2813C9.03111 24.2813 8.67174 24.1094 8.44778 23.7865C8.07799 23.2604 8.20819 22.5365 8.73423 22.1719L30.3853 7.02607C30.9113 6.66149 31.6301 6.78649 31.9999 7.31253C32.3644 7.83857 32.2394 8.56253 31.7134 8.92711L10.0624 24.0677C9.85923 24.2136 9.62486 24.2813 9.39569 24.2813Z" fill="white"/>
<path d="M33.1926 31.2917C33.1197 31.2917 33.0468 31.2865 32.9739 31.2709L9.72386 26.7761C9.09365 26.6563 8.68219 26.0469 8.80198 25.4167C8.92698 24.7917 9.53115 24.3803 10.1614 24.5L33.4114 28.9948C34.0416 29.1146 34.4478 29.724 34.328 30.3542C34.2239 30.9063 33.7343 31.2917 33.1926 31.2917Z" fill="white"/>
<path d="M8.79681 50.7864C8.41139 50.7864 8.03639 50.5937 7.81764 50.2448C7.47389 49.7083 7.63535 48.9896 8.17702 48.6458L33.2551 32.7552C33.7968 32.4114 34.5156 32.5729 34.8541 33.1094C35.1979 33.651 35.0364 34.3698 34.4947 34.7135L9.4166 50.6042C9.22389 50.7292 9.01035 50.7864 8.79681 50.7864Z" fill="white"/>
<path d="M37.3698 27.3125C36.8021 27.3125 36.3073 26.8959 36.224 26.3178L33.875 9.86463C33.7865 9.23442 34.2292 8.64588 34.8594 8.55734C35.4896 8.4688 36.0834 8.9063 36.1719 9.54172L38.5209 25.9896C38.6094 26.625 38.1667 27.2084 37.5365 27.3021C37.4792 27.3073 37.4219 27.3125 37.3698 27.3125Z" fill="white"/>
<path d="M29.2604 58.526C29.1406 58.526 29.0156 58.5052 28.8958 58.4635C28.2864 58.2604 27.9583 57.6042 28.1614 57L35.3958 35.4167C35.5937 34.8073 36.2552 34.4844 36.8646 34.6875C37.4687 34.8906 37.7969 35.5469 37.5937 36.151L30.3594 57.7344C30.1979 58.2188 29.7448 58.526 29.2604 58.526Z" fill="white"/>
<path d="M68.3229 25.7709C68.1927 25.7709 68.0624 25.75 67.9374 25.7084C67.3333 25.4948 67.0156 24.8334 67.2291 24.2292L73.177 7.27607C73.3906 6.6719 74.0468 6.35419 74.6562 6.56774C75.2604 6.78128 75.5729 7.44274 75.3645 8.0417L69.4166 24.9948C69.2499 25.474 68.802 25.7709 68.3229 25.7709Z" fill="white"/>
<path d="M43.0208 31.7917C42.4271 31.7917 41.9166 31.3386 41.8646 30.7396C41.8073 30.099 42.2812 29.5365 42.9166 29.4792L62.7239 27.7292C63.3698 27.6719 63.9218 28.1458 63.9791 28.7813C64.0364 29.4219 63.5625 29.9844 62.9271 30.0417L43.125 31.7917C43.0885 31.7917 43.0573 31.7917 43.0208 31.7917Z" fill="white"/>
<path d="M57.7082 51.5365C57.5623 51.5365 57.4061 51.5052 57.2603 51.4427C56.6717 51.1927 56.3957 50.5156 56.6457 49.9219L64.2707 31.8854C64.5207 31.2917 65.1978 31.0156 65.7915 31.2656C66.38 31.5156 66.6561 32.1979 66.4061 32.7865L58.7759 50.8281C58.5884 51.2709 58.1613 51.5365 57.7082 51.5365Z" fill="white"/>
<path d="M89.4791 41.4375C89.2968 41.4375 89.1145 41.3959 88.9426 41.3073L70.0832 31.4636C69.5207 31.1667 69.2968 30.4688 69.5936 29.9011C69.8905 29.3334 70.5936 29.1146 71.1561 29.4063L90.0155 39.25C90.5832 39.5469 90.802 40.2448 90.5051 40.8125C90.2968 41.2084 89.8957 41.4375 89.4791 41.4375Z" fill="white"/>
<path d="M87.177 61.9219C87.0728 61.9219 86.9687 61.9062 86.8645 61.8802C86.2499 61.7083 85.8853 61.0729 86.0572 60.4531L90.4166 44.6927C90.5833 44.0781 91.2239 43.7135 91.8385 43.8854C92.4583 44.0573 92.8176 44.6927 92.651 45.3125L88.2916 61.0729C88.151 61.5833 87.6822 61.9219 87.177 61.9219Z" fill="white"/>
<path d="M81.2083 64.9375C81.0676 64.9375 80.927 64.9167 80.7916 64.8646L59.552 56.75C58.9583 56.5208 58.6562 55.8542 58.8853 55.2552C59.1145 54.6562 59.7812 54.3542 60.3801 54.5833L81.6197 62.6979C82.2187 62.9219 82.5155 63.5937 82.2916 64.1927C82.1145 64.6562 81.6718 64.9375 81.2083 64.9375Z" fill="white"/>
<path d="M115.151 47.6875C115.073 47.6875 114.99 47.6823 114.911 47.6615L95.4218 43.6198C94.7968 43.4896 94.3958 42.875 94.526 42.25C94.651 41.6198 95.2708 41.2188 95.8958 41.349L115.385 45.3959C116.01 45.5209 116.411 46.1354 116.281 46.7657C116.167 47.3125 115.687 47.6875 115.151 47.6875Z" fill="white"/>
<path d="M93.7031 39.9167C93.5521 39.9167 93.3958 39.8854 93.25 39.8229C92.6615 39.5781 92.3854 38.8958 92.6354 38.3073L99.1146 22.9531C99.3594 22.3646 100.036 22.0885 100.63 22.3385C101.219 22.5885 101.495 23.2656 101.25 23.8542L94.7708 39.2083C94.5833 39.651 94.1562 39.9167 93.7031 39.9167Z" fill="white"/>
<path d="M31.4374 60.9376C30.9062 60.9376 30.427 60.5678 30.3072 60.0313C30.1666 59.4063 30.5572 58.7865 31.1822 58.6459L51.802 53.974C52.4322 53.8334 53.0468 54.224 53.1926 54.849C53.3333 55.474 52.9426 56.0938 52.3176 56.2344L31.6926 60.9063C31.6041 60.9271 31.5208 60.9376 31.4374 60.9376Z" fill="white"/>
<path d="M54.7134 79C54.6926 79 54.6665 79 54.6457 78.9948C54.0051 78.9583 53.5155 78.4115 53.5572 77.7708L54.6978 58.2552C54.7342 57.6146 55.2811 57.1302 55.9217 57.1667C56.5624 57.2031 57.052 57.75 57.0103 58.3906L55.8697 77.9062C55.8332 78.5208 55.3228 79 54.7134 79Z" fill="white"/>
<path d="M70.1717 110.036C69.7706 110.036 69.3852 109.833 69.1665 109.464L55.5571 86.1355C55.2342 85.5782 55.4217 84.8698 55.9738 84.5469C56.5259 84.224 57.2342 84.4115 57.5571 84.9636L71.1717 108.297C71.4946 108.849 71.3071 109.557 70.755 109.88C70.5727 109.99 70.3696 110.036 70.1717 110.036Z" fill="white"/>
<path d="M73.4843 109.656C73.3697 109.656 73.2551 109.641 73.1405 109.604C72.5259 109.417 72.1874 108.766 72.3749 108.156L76.7707 93.9896C76.9634 93.375 77.6145 93.0364 78.2238 93.2239C78.8332 93.4114 79.177 94.0625 78.9843 94.6771L74.5884 108.844C74.4322 109.339 73.979 109.656 73.4843 109.656Z" fill="white"/>
<path d="M79.7342 89.1302C79.6301 89.1302 79.5311 89.1198 79.4269 89.0886C78.8124 88.9219 78.4426 88.2865 78.6144 87.6667L83.4217 70.0417C83.5884 69.4219 84.229 69.0573 84.8488 69.2292C85.4634 69.3958 85.828 70.0313 85.6613 70.6511L80.8488 88.2761C80.7082 88.7917 80.2394 89.1302 79.7342 89.1302Z" fill="white"/>
<path d="M104.463 78.6927C104.25 78.6927 104.031 78.6302 103.838 78.5052L89.4009 69.2136C88.8592 68.8698 88.7082 68.1511 89.0519 67.6146C89.3957 67.0729 90.1144 66.9219 90.6561 67.2656L105.094 76.5573C105.63 76.9011 105.786 77.6198 105.443 78.1563C105.219 78.5 104.849 78.6927 104.463 78.6927Z" fill="white"/>
<path d="M37.5989 77.0938C37.3385 77.0938 37.078 77.0104 36.8645 76.8334C36.3697 76.4219 36.2968 75.6927 36.703 75.1979L52.2395 56.3438C52.651 55.849 53.3801 55.7813 53.8749 56.1875C54.3645 56.5938 54.4374 57.3281 54.0312 57.8177L38.4947 76.6719C38.2655 76.9531 37.9322 77.0938 37.5989 77.0938Z" fill="white"/>
<mask id="mask0_5_8545" style="mask-type:luminance" maskUnits="userSpaceOnUse" x="113" y="42" width="10" height="11">
<path d="M113.438 42.0521H122.943V52.7187H113.438V42.0521Z" fill="white"/>
</mask>
<g mask="url(#mask0_5_8545)">
<path d="M118.391 45.0469C117.203 45.0469 116.24 46.0156 116.24 47.2031C116.24 48.3906 117.203 49.3542 118.391 49.3542C119.578 49.3542 120.547 48.3906 120.547 47.2031C120.547 46.0156 119.578 45.0469 118.391 45.0469ZM118.391 51.6719C115.927 51.6719 113.922 49.6667 113.922 47.2031C113.922 44.7344 115.927 42.7292 118.391 42.7292C120.854 42.7292 122.865 44.7344 122.865 47.2031C122.865 49.6667 120.854 51.6719 118.391 51.6719Z" fill="white"/>
</g>
<mask id="mask1_5_8545" style="mask-type:luminance" maskUnits="userSpaceOnUse" x="66" y="106" width="12" height="12">
<path d="M66.7708 106.953H77.6093V117.75H66.7708V106.953Z" fill="white"/>
</mask>
<g mask="url(#mask1_5_8545)">
<path d="M72.2552 109.474C70.6094 109.474 69.2708 110.807 69.2708 112.453C69.2708 114.099 70.6094 115.432 72.2552 115.432C73.8958 115.432 75.2344 114.099 75.2344 112.453C75.2344 110.807 73.8958 109.474 72.2552 109.474ZM72.2552 117.75C69.3333 117.75 66.9531 115.375 66.9531 112.453C66.9531 109.531 69.3333 107.151 72.2552 107.151C75.1771 107.151 77.5521 109.531 77.5521 112.453C77.5521 115.375 75.1771 117.75 72.2552 117.75Z" fill="white"/>
</g>
<path d="M54.4688 78.9896C52.8281 78.9896 51.4896 80.3282 51.4896 81.974C51.4896 83.6146 52.8281 84.9532 54.4688 84.9532C56.1146 84.9532 57.4531 83.6146 57.4531 81.974C57.4531 80.3282 56.1146 78.9896 54.4688 78.9896ZM54.4688 87.2709C51.5469 87.2709 49.1719 84.8959 49.1719 81.974C49.1719 79.0521 51.5469 76.6719 54.4688 76.6719C57.3906 76.6719 59.7708 79.0521 59.7708 81.974C59.7708 84.8959 57.3906 87.2709 54.4688 87.2709Z" fill="white"/>
<path d="M28.2083 58.3541C27.0208 58.3541 26.0521 59.3177 26.0521 60.5052C26.0521 61.6927 27.0208 62.6614 28.2083 62.6614C29.3958 62.6614 30.3594 61.6927 30.3594 60.5052C30.3594 59.3177 29.3958 58.3541 28.2083 58.3541ZM28.2083 64.9791C25.7396 64.9791 23.7344 62.9739 23.7344 60.5052C23.7344 58.0416 25.7396 56.0364 28.2083 56.0364C30.6719 56.0364 32.6771 58.0416 32.6771 60.5052C32.6771 62.9739 30.6719 64.9791 28.2083 64.9791Z" fill="white"/>
<path d="M85.849 61.7448C83.75 61.7448 82.0417 63.4531 82.0417 65.5521C82.0417 67.651 83.75 69.3594 85.849 69.3594C87.9479 69.3594 89.6563 67.651 89.6563 65.5521C89.6563 63.4531 87.9479 61.7448 85.849 61.7448ZM85.849 71.6771C82.4688 71.6771 79.7188 68.9323 79.7188 65.5521C79.7188 62.1719 82.4688 59.4271 85.849 59.4271C89.2292 59.4271 91.974 62.1719 91.974 65.5521C91.974 68.9323 89.2292 71.6771 85.849 71.6771Z" fill="white"/>
<path d="M34.4427 75.9635C32.3385 75.9635 30.6302 77.6719 30.6302 79.7708C30.6302 81.8698 32.3385 83.5781 34.4427 83.5781C36.5417 83.5781 38.25 81.8698 38.25 79.7708C38.25 77.6719 36.5417 75.9635 34.4427 75.9635ZM34.4427 85.8958C31.0625 85.8958 28.3125 83.151 28.3125 79.7708C28.3125 76.3906 31.0625 73.6458 34.4427 73.6458C37.8177 73.6458 40.5677 76.3906 40.5677 79.7708C40.5677 83.151 37.8177 85.8958 34.4427 85.8958Z" fill="white"/>
<path d="M70.9583 28.6511C70.4427 28.6511 69.9739 28.3021 69.8385 27.7813C69.6823 27.1615 70.052 26.5261 70.6718 26.3698L97.4895 19.4948C98.1093 19.3386 98.7395 19.7084 98.901 20.3281C99.0573 20.9479 98.6875 21.5834 98.0677 21.7396L71.25 28.6146C71.151 28.6406 71.0573 28.6511 70.9583 28.6511Z" fill="white"/>
<path d="M106.38 77.099C105.922 77.099 105.49 76.8282 105.307 76.375L92.5937 45.3177C92.3541 44.724 92.6354 44.0469 93.2291 43.8021C93.8229 43.5625 94.4999 43.8438 94.7395 44.4375L107.453 75.5C107.693 76.0938 107.411 76.7709 106.818 77.0105C106.672 77.073 106.526 77.099 106.38 77.099Z" fill="white"/>
<path d="M60.0155 54.0156C59.5311 54.0156 59.0832 53.7083 58.9217 53.2292C58.7134 52.6198 59.0363 51.9635 59.6405 51.7552L88.9061 41.7812C89.5102 41.5729 90.1665 41.901 90.3748 42.5052C90.5832 43.1094 90.2602 43.7708 89.6509 43.9739L60.3905 53.9531C60.2655 53.9948 60.1405 54.0156 60.0155 54.0156Z" fill="white"/>
<path d="M53.5519 52.0833C53.2082 52.0833 52.8696 51.9323 52.6404 51.6406L40.2134 35.7031C39.8175 35.1979 39.9113 34.4688 40.4113 34.0781C40.9165 33.6823 41.6457 33.7708 42.0415 34.276L54.4686 50.2135C54.8592 50.7188 54.7707 51.4479 54.2654 51.8385C54.0571 52.0052 53.8019 52.0833 53.5519 52.0833Z" fill="white"/>
<path d="M42.1196 29.349C41.7603 29.349 41.4009 29.1823 41.1769 28.8646C40.8071 28.3437 40.9269 27.6198 41.4478 27.25L71.9946 5.51041C72.5155 5.14062 73.2394 5.26041 73.6144 5.78125C73.9842 6.30729 73.8592 7.02604 73.3384 7.40104L42.7915 29.1354C42.5884 29.2812 42.354 29.349 42.1196 29.349Z" fill="white"/>
<path d="M77.125 89.5052C76.7344 89.5052 76.3542 89.3125 76.1354 88.9532L57.2813 58.3229C56.9479 57.7813 57.1146 57.0625 57.6615 56.7292C58.2083 56.3959 58.9219 56.5625 59.2552 57.1094L78.1094 87.7396C78.4479 88.2865 78.276 89 77.7292 89.3334C77.5417 89.4532 77.3333 89.5052 77.125 89.5052Z" fill="white"/>
<path d="M38.0728 27.2656C35.9738 27.2656 34.2655 28.974 34.2655 31.0729C34.2655 33.1719 35.9738 34.8802 38.0728 34.8802C40.1717 34.8802 41.88 33.1719 41.88 31.0729C41.88 28.974 40.1717 27.2656 38.0728 27.2656ZM38.0728 37.2031C34.6925 37.2031 31.9478 34.4531 31.9478 31.0729C31.9478 27.6927 34.6925 24.9479 38.0728 24.9479C41.453 24.9479 44.203 27.6927 44.203 31.0729C44.203 34.4531 41.453 37.2031 38.0728 37.2031Z" fill="white"/>
<mask id="mask2_5_8545" style="mask-type:luminance" maskUnits="userSpaceOnUse" x="70" y="0" width="11" height="11">
<path d="M70.7708 0H80.1041V10.0521H70.7708V0Z" fill="white"/>
</mask>
<g mask="url(#mask2_5_8545)">
<path d="M75.3645 2.38021C74.177 2.38021 73.2135 3.34896 73.2135 4.53646C73.2135 5.72396 74.177 6.6875 75.3645 6.6875C76.552 6.6875 77.5208 5.72396 77.5208 4.53646C77.5208 3.34896 76.552 2.38021 75.3645 2.38021ZM75.3645 9.00521C72.901 9.00521 70.8958 7 70.8958 4.53646C70.8958 2.06771 72.901 0.0625 75.3645 0.0625C77.8333 0.0625 79.8385 2.06771 79.8385 4.53646C79.8385 7 77.8333 9.00521 75.3645 9.00521Z" fill="white"/>
</g>
<path d="M101.786 16.6094C100.146 16.6094 98.8072 17.9479 98.8072 19.5886C98.8072 21.2344 100.146 22.5729 101.786 22.5729C103.432 22.5729 104.771 21.2344 104.771 19.5886C104.771 17.9479 103.432 16.6094 101.786 16.6094ZM101.786 24.8906C98.8645 24.8906 96.4895 22.5104 96.4895 19.5886C96.4895 16.6667 98.8645 14.2917 101.786 14.2917C104.708 14.2917 107.088 16.6667 107.088 19.5886C107.088 22.5104 104.708 24.8906 101.786 24.8906Z" fill="white"/>
<path d="M107.948 76.7917C106.302 76.7917 104.963 78.1251 104.963 79.7709C104.963 81.4167 106.302 82.7501 107.948 82.7501C109.588 82.7501 110.927 81.4167 110.927 79.7709C110.927 78.1251 109.588 76.7917 107.948 76.7917ZM107.948 85.073C105.026 85.073 102.646 82.6928 102.646 79.7709C102.646 76.849 105.026 74.4688 107.948 74.4688C110.87 74.4688 113.245 76.849 113.245 79.7709C113.245 82.6928 110.87 85.073 107.948 85.073Z" fill="white"/>
<path d="M78.8594 89.0156C77.6719 89.0156 76.7083 89.9791 76.7083 91.1666C76.7083 92.3541 77.6719 93.3229 78.8594 93.3229C80.0469 93.3229 81.0104 92.3541 81.0104 91.1666C81.0104 89.9791 80.0469 89.0156 78.8594 89.0156ZM78.8594 95.6406C76.3958 95.6406 74.3906 93.6354 74.3906 91.1666C74.3906 88.7031 76.3958 86.6927 78.8594 86.6927C81.3229 86.6927 83.3333 88.7031 83.3333 91.1666C83.3333 93.6354 81.3229 95.6406 78.8594 95.6406Z" fill="white"/>
<path d="M66.9478 25.5365C65.3071 25.5365 63.9686 26.875 63.9686 28.5208C63.9686 30.1615 65.3071 31.5 66.9478 31.5C68.5936 31.5 69.9321 30.1615 69.9321 28.5208C69.9321 26.875 68.5936 25.5365 66.9478 25.5365ZM66.9478 33.8177C64.0311 33.8177 61.6509 31.4427 61.6509 28.5208C61.6509 25.599 64.0311 23.2188 66.9478 23.2188C69.8748 23.2188 72.2498 25.599 72.2498 28.5208C72.2498 31.4427 69.8748 33.8177 66.9478 33.8177Z" fill="white"/>
<path d="M92.4166 39.6563C91.2291 39.6563 90.2603 40.625 90.2603 41.8125C90.2603 42.9948 91.2291 43.9636 92.4166 43.9636C93.5989 43.9636 94.5676 42.9948 94.5676 41.8125C94.5676 40.625 93.5989 39.6563 92.4166 39.6563ZM92.4166 46.2813C89.9478 46.2813 87.9426 44.2761 87.9426 41.8125C87.9426 39.3438 89.9478 37.3386 92.4166 37.3386C94.8801 37.3386 96.8853 39.3438 96.8853 41.8125C96.8853 44.2761 94.8801 46.2813 92.4166 46.2813Z" fill="white"/>
<path d="M56.099 51.2084C54.4531 51.2084 53.1146 52.5469 53.1146 54.1928C53.1146 55.8334 54.4531 57.1719 56.099 57.1719C57.7396 57.1719 59.0781 55.8334 59.0781 54.1928C59.0781 52.5469 57.7396 51.2084 56.099 51.2084ZM56.099 59.4896C53.1771 59.4896 50.7969 57.1146 50.7969 54.1928C50.7969 51.2657 53.1771 48.8907 56.099 48.8907C59.0208 48.8907 61.3958 51.2657 61.3958 54.1928C61.3958 57.1146 59.0208 59.4896 56.099 59.4896Z" fill="white"/>
<mask id="mask3_5_8545" style="mask-type:luminance" maskUnits="userSpaceOnUse" x="0" y="46" width="11" height="13">
<path d="M0 46.0521H10.7708V58.0521H0V46.0521Z" fill="white"/>
</mask>
<g mask="url(#mask3_5_8545)">
<path d="M5.30208 48.8594C3.65625 48.8594 2.31771 50.1979 2.31771 51.8437C2.31771 53.4844 3.65625 54.8229 5.30208 54.8229C6.94271 54.8229 8.28125 53.4844 8.28125 51.8437C8.28125 50.1979 6.94271 48.8594 5.30208 48.8594ZM5.30208 57.1406C2.375 57.1406 0 54.7656 0 51.8437C0 48.9219 2.375 46.5417 5.30208 46.5417C8.22396 46.5417 10.599 48.9219 10.599 51.8437C10.599 54.7656 8.22396 57.1406 5.30208 57.1406Z" fill="white"/>
</g>
<mask id="mask4_5_8545" style="mask-type:luminance" maskUnits="userSpaceOnUse" x="28" y="0" width="13" height="12">
<path d="M28.104 0H40.104V11.3854H28.104V0Z" fill="white"/>
</mask>
<g mask="url(#mask4_5_8545)">
<path d="M34.4427 2.62498C32.7969 2.62498 31.4583 3.95831 31.4583 5.60415C31.4583 7.24477 32.7969 8.58331 34.4427 8.58331C36.0833 8.58331 37.4219 7.24477 37.4219 5.60415C37.4219 3.95831 36.0833 2.62498 34.4427 2.62498ZM34.4427 10.901C31.5156 10.901 29.1406 8.52602 29.1406 5.60415C29.1406 2.68227 31.5156 0.302063 34.4427 0.302063C37.3646 0.302063 39.7396 2.68227 39.7396 5.60415C39.7396 8.52602 37.3646 10.901 34.4427 10.901Z" fill="white"/>
</g>
</svg>
