<svg width="118" height="118" viewBox="0 0 118 118" fill="none" xmlns="http://www.w3.org/2000/svg">
<mask id="mask0_1_639" style="mask-type:luminance" maskUnits="userSpaceOnUse" x="0" y="0" width="118" height="118">
<path d="M0 0H117.943V117.943H0V0Z" fill="white"/>
</mask>
<g mask="url(#mask0_1_639)">
<path d="M104.057 96.75V85.5677L113.875 79.9583V91.1354L104.057 96.75ZM90.3125 79.9583L100.13 85.5677V96.75L90.3125 91.1354V79.9583ZM73.6146 90.5781L60.8646 83.2865V75.7552L73.6146 68.4583C74.2292 68.1146 74.6042 67.4635 74.6042 66.7552V51.0521C74.6042 50.3438 74.2292 49.6927 73.6146 49.349L60.8646 42.0521V34.5208L72.7031 27.75L86.3854 34.5938V41.2344C86.3854 41.9375 86.7604 42.5885 87.375 42.9375L100.13 50.2292V67.5781L87.375 74.8698C86.7604 75.2188 86.3854 75.8698 86.3854 76.5729V91.1927L74.6042 98.5521V92.2813C74.6042 91.5729 74.2292 90.9219 73.6146 90.5781ZM60.8646 112.458V101.276L70.6771 95.6615V106.844L60.8646 112.458ZM47.1198 95.6615L56.9375 101.276V112.458L47.1198 106.844V95.6615ZM31.4115 91.1927V76.5729C31.4115 75.8698 31.0365 75.2188 30.4219 74.8698L17.6667 67.5781V50.2292L30.4219 42.9375C31.0365 42.5885 31.4115 41.9375 31.4115 41.2344V34.5938L45.0938 27.75L56.9375 34.5208V42.0521L44.1823 49.349C43.5677 49.6927 43.1927 50.3438 43.1927 51.0521V66.7552C43.1927 67.4635 43.5677 68.1146 44.1823 68.4583L56.9375 75.7552V83.2865L44.1823 90.5781C43.5677 90.9219 43.1927 91.5729 43.1927 92.2813V98.5521L31.4115 91.1927ZM17.6667 96.75V85.5677L27.4844 79.9583V91.1354L17.6667 96.75ZM3.92708 79.9583L13.7396 85.5677V96.75L3.92708 91.1354V79.9583ZM15.7031 82.1667L5.91667 76.5729L15.7031 70.9844L25.4896 76.5729L15.7031 82.1667ZM3.92708 28.9063L13.7396 34.5208V45.7031L3.92708 40.0885V28.9063ZM15.7031 19.9375L25.4896 25.526L15.7031 31.1198L5.91667 25.526L15.7031 19.9375ZM17.6667 34.5208L27.4844 28.9063V40.0885L17.6667 45.7031V34.5208ZM58.901 4.22917L68.6875 9.81771L58.901 15.4115L49.1146 9.81771L58.901 4.22917ZM60.8646 18.8177L70.6771 13.2031V24.3854L60.8646 30V18.8177ZM47.1198 13.2031L56.9375 18.8177V30L47.1198 24.3854V13.2031ZM58.901 56.6406L49.1146 51.0521L58.901 45.4583L68.6875 51.0521L58.901 56.6406ZM60.8646 60.0469L70.6771 54.4323V65.6146L60.8646 71.2292V60.0469ZM47.1198 54.4323L56.9375 60.0469V71.2292L47.1198 65.6146V54.4323ZM58.901 97.8698L49.1146 92.2813L58.901 86.6875L68.6875 92.2813L58.901 97.8698ZM102.094 19.9375L111.88 25.526L102.094 31.1198L92.3073 25.526L102.094 19.9375ZM90.3125 28.9063L100.13 34.5208V45.7031L90.3125 40.0885V28.9063ZM102.094 82.1667L92.3073 76.5729L102.094 70.9844L111.88 76.5729L102.094 82.1667ZM104.057 45.7031V34.5208L113.875 28.9063V40.0885L104.057 45.7031ZM116.813 42.9375C117.427 42.5885 117.802 41.9375 117.802 41.2344V25.526C117.802 24.8229 117.427 24.1667 116.813 23.8229L103.068 15.9687C102.469 15.625 101.719 15.625 101.12 15.9687L87.375 23.8229C86.7604 24.1667 86.3854 24.8229 86.3854 25.526V30.2031L74.6042 24.3125V9.81771C74.6042 9.11458 74.2292 8.46354 73.6146 8.11458L59.875 0.265624C59.276 -0.0833331 58.526 -0.0833331 57.9271 0.265624L44.1823 8.11458C43.5677 8.46354 43.1927 9.11458 43.1927 9.81771V24.3125L31.4115 30.2031V25.526C31.4115 24.8229 31.0365 24.1667 30.4219 23.8229L16.6771 15.9687C16.0833 15.625 15.3385 15.625 14.7292 15.9687L0.989583 23.8229C0.375001 24.1667 0 24.8229 0 25.526V41.2344C0 41.9375 0.375001 42.5885 0.989583 42.9375L13.7396 50.2292V67.5781L0.989583 74.8698C0.375001 75.2188 0 75.8698 0 76.5729V92.2813C0 92.9844 0.375001 93.6406 0.989583 93.9844L14.7292 101.839C15.0312 102.016 15.3698 102.099 15.7031 102.099C16.0417 102.099 16.3802 102.016 16.6771 101.839L29.401 94.5677L43.1927 103.188V107.99C43.1927 108.693 43.5677 109.344 44.1823 109.693L57.9271 117.542C58.224 117.719 58.5625 117.802 58.901 117.802C59.2344 117.802 59.5729 117.719 59.875 117.542L73.6146 109.693C74.2292 109.344 74.6042 108.693 74.6042 107.99V103.188L88.3958 94.5677L101.12 101.839C101.417 102.016 101.755 102.099 102.094 102.099C102.432 102.099 102.771 102.016 103.068 101.839L116.813 93.9844C117.427 93.6406 117.802 92.9844 117.802 92.2813V76.5729C117.802 75.8698 117.427 75.2188 116.813 74.8698L104.057 67.5781V50.2292L116.813 42.9375Z" fill="white"/>
</g>
</svg>
