<svg width="360" height="360" viewBox="0 0 360 360" fill="none" xmlns="http://www.w3.org/2000/svg">
<path d="M224.542 269.083H234.443V278.984H224.542V269.083Z" fill="white"/>
<mask id="mask0_7_42" style="mask-type:luminance" maskUnits="userSpaceOnUse" x="322" y="269" width="12" height="11">
<path d="M322.885 269.031H333.427V279.698H322.885V269.031Z" fill="white"/>
</mask>
<g mask="url(#mask0_7_42)">
<path d="M323.526 269.083H333.427V278.984H323.526V269.083Z" fill="white"/>
</g>
<path d="M274.036 219.594H283.932V229.49H274.036V219.594Z" fill="white"/>
<path d="M237.01 239.057L244.01 232.057L251.01 239.057L244.01 246.057L237.01 239.057Z" fill="white"/>
<path d="M306.979 309.01L313.979 302.01L320.979 309.016L313.974 316.01L306.979 309.01Z" fill="white"/>
<path d="M237.005 309.031L244.005 302.031L251.005 309.031L244.005 316.031L237.005 309.031Z" fill="white"/>
<path d="M306.984 239.063L313.984 232.068L320.984 239.063L313.984 246.063L306.984 239.063Z" fill="white"/>
<mask id="mask1_7_42" style="mask-type:luminance" maskUnits="userSpaceOnUse" x="244" y="238" width="71" height="96">
<path d="M244.219 238.365H314.885V333.427H244.219V238.365Z" fill="white"/>
</mask>
<g mask="url(#mask1_7_42)">
<path d="M300.813 247.109C299.885 246.359 298.922 245.662 297.927 245.01C296.927 244.365 295.896 243.766 294.839 243.224C293.781 242.677 292.693 242.193 291.583 241.76C290.474 241.328 289.344 240.953 288.198 240.635C287.047 240.323 285.885 240.068 284.714 239.87C283.536 239.677 282.354 239.542 281.167 239.469C279.979 239.391 278.792 239.38 277.599 239.427C276.411 239.479 275.224 239.589 274.047 239.76C272.87 239.927 271.703 240.162 270.547 240.453C269.391 240.745 268.255 241.094 267.135 241.5C266.021 241.912 264.922 242.375 263.854 242.896C262.781 243.417 261.74 243.995 260.729 244.62C259.719 245.25 258.74 245.927 257.802 246.656C256.859 247.385 255.958 248.162 255.099 248.984C254.234 249.807 253.417 250.672 252.646 251.578C251.875 252.484 251.151 253.427 250.474 254.412C249.802 255.391 249.177 256.406 248.609 257.453C248.036 258.495 247.521 259.568 247.063 260.667C246.604 261.766 246.198 262.885 245.854 264.026C245.51 265.167 245.224 266.318 245 267.49C244.776 268.656 244.609 269.833 244.505 271.021C244.401 272.208 244.359 273.396 244.38 274.589C244.396 275.776 244.479 276.964 244.62 278.146C244.76 279.328 244.964 280.5 245.224 281.662C245.484 282.828 245.807 283.969 246.188 285.099C246.568 286.229 247.005 287.333 247.5 288.417C247.99 289.5 248.542 290.557 249.141 291.583C249.745 292.609 250.401 293.604 251.104 294.563C251.813 295.521 252.562 296.443 253.365 297.323C254.167 298.208 255.005 299.047 255.896 299.839C256.781 300.635 257.708 301.385 258.672 302.083C259.635 302.781 260.63 303.432 261.661 304.026V316.104C261.661 317.24 261.771 318.365 261.995 319.484C262.219 320.599 262.547 321.682 262.979 322.729C263.417 323.781 263.948 324.781 264.583 325.724C265.214 326.672 265.932 327.547 266.734 328.349C267.542 329.156 268.417 329.875 269.359 330.505C270.307 331.135 271.302 331.672 272.354 332.104C273.406 332.542 274.49 332.87 275.604 333.094C276.719 333.313 277.849 333.427 278.984 333.427C280.12 333.427 281.25 333.313 282.365 333.094C283.479 332.87 284.563 332.542 285.615 332.104C286.661 331.672 287.661 331.135 288.609 330.505C289.552 329.875 290.427 329.156 291.234 328.349C292.036 327.547 292.755 326.672 293.385 325.724C294.021 324.781 294.552 323.781 294.99 322.729C295.422 321.682 295.75 320.599 295.974 319.484C296.198 318.365 296.307 317.24 296.307 316.104V304.026C296.911 303.677 297.505 303.307 298.089 302.922C298.672 302.537 299.245 302.135 299.802 301.714C300.365 301.297 300.906 300.859 301.443 300.406C301.974 299.953 302.49 299.484 302.995 299C303.5 298.516 303.99 298.016 304.464 297.5C304.938 296.99 305.396 296.458 305.839 295.917C306.276 295.375 306.703 294.823 307.109 294.255C307.521 293.688 307.911 293.109 308.286 292.516C308.656 291.927 309.01 291.323 309.349 290.708C309.688 290.099 310.005 289.474 310.302 288.844C310.604 288.214 310.88 287.573 311.141 286.922C311.401 286.271 311.646 285.615 311.865 284.953C312.083 284.292 312.286 283.62 312.464 282.943C312.646 282.271 312.807 281.589 312.943 280.906C313.083 280.219 313.203 279.531 313.297 278.839C313.396 278.146 313.474 277.448 313.526 276.755C313.583 276.057 313.615 275.359 313.63 274.662C313.641 273.958 313.635 273.26 313.604 272.563C313.573 271.865 313.526 271.167 313.453 270.474C313.38 269.776 313.286 269.083 313.177 268.396C313.063 267.703 312.927 267.016 312.771 266.333C312.615 265.656 312.443 264.979 312.245 264.307C312.047 263.635 311.833 262.969 311.599 262.313C311.359 261.656 311.104 261.005 310.828 260.359C310.552 259.719 310.26 259.083 309.943 258.464C309.63 257.839 309.297 257.224 308.948 256.615C308.594 256.01 308.224 255.417 307.839 254.839C307.453 254.255 307.047 253.682 306.625 253.125C306.203 252.568 305.766 252.026 305.313 251.495C304.854 250.964 304.385 250.448 303.901 249.943C303.417 249.438 302.911 248.953 302.396 248.479C301.88 248.005 301.354 247.552 300.813 247.109ZM286.406 316.104C286.406 316.589 286.359 317.073 286.266 317.552C286.172 318.031 286.031 318.495 285.844 318.943C285.656 319.396 285.427 319.823 285.156 320.229C284.885 320.63 284.578 321.005 284.234 321.354C283.891 321.698 283.516 322.005 283.109 322.276C282.703 322.547 282.276 322.776 281.823 322.964C281.375 323.146 280.911 323.287 280.432 323.385C279.953 323.479 279.474 323.526 278.984 323.526C278.495 323.526 278.016 323.479 277.536 323.385C277.057 323.287 276.594 323.146 276.146 322.964C275.693 322.776 275.266 322.547 274.859 322.276C274.453 322.005 274.078 321.698 273.734 321.354C273.391 321.005 273.083 320.63 272.813 320.229C272.542 319.823 272.312 319.396 272.125 318.943C271.937 318.495 271.797 318.031 271.703 317.552C271.609 317.073 271.563 316.589 271.563 316.104V313.63H286.406V316.104ZM289.276 296.307C288.401 296.714 287.703 297.323 287.182 298.135C286.667 298.953 286.406 299.844 286.406 300.807V303.729H271.563V301.005C271.563 300.042 271.302 299.151 270.786 298.333C270.266 297.521 269.568 296.912 268.688 296.505C267.521 295.964 266.401 295.339 265.333 294.625C264.26 293.917 263.255 293.125 262.307 292.255C261.359 291.385 260.484 290.443 259.688 289.438C258.885 288.432 258.167 287.37 257.531 286.25C256.896 285.135 256.349 283.974 255.896 282.771C255.443 281.568 255.083 280.339 254.823 279.078C254.562 277.818 254.396 276.547 254.333 275.26C254.271 273.979 254.302 272.698 254.443 271.417C254.578 270.141 254.812 268.88 255.141 267.635C255.474 266.396 255.901 265.182 256.422 264.01C256.943 262.833 257.552 261.703 258.25 260.625C258.943 259.542 259.719 258.521 260.578 257.563C261.432 256.604 262.359 255.714 263.349 254.901C264.344 254.083 265.396 253.349 266.505 252.698C267.615 252.047 268.766 251.484 269.964 251.01C271.156 250.542 272.385 250.162 273.641 249.88C275.115 249.557 276.609 249.365 278.125 249.313C279.635 249.26 281.141 249.344 282.635 249.568C284.13 249.787 285.594 250.146 287.026 250.635C288.458 251.13 289.833 251.745 291.151 252.49C292.469 253.234 293.708 254.089 294.87 255.057C296.031 256.031 297.094 257.099 298.057 258.266C299.021 259.427 299.87 260.672 300.609 261.995C301.344 263.318 301.953 264.693 302.438 266.125C302.922 267.563 303.271 269.026 303.49 270.526C303.703 272.021 303.781 273.526 303.719 275.037C303.656 276.552 303.458 278.042 303.125 279.521C302.792 280.995 302.323 282.427 301.724 283.818C301.13 285.208 300.411 286.531 299.568 287.792C298.729 289.047 297.781 290.219 296.724 291.302C295.672 292.385 294.526 293.365 293.292 294.24C292.057 295.115 290.75 295.87 289.375 296.505L289.276 296.307Z" fill="white"/>
</g>
<path d="M140.703 188.958C140.401 190.021 140.328 191.099 140.484 192.193C140.635 193.292 141.01 194.307 141.594 195.245L147.188 204.745C147.469 205.208 147.797 205.641 148.162 206.047C148.526 206.448 148.927 206.812 149.365 207.135C149.797 207.458 150.26 207.74 150.75 207.979C151.24 208.214 151.745 208.401 152.271 208.542C152.797 208.682 153.333 208.771 153.875 208.807C154.417 208.844 154.958 208.828 155.495 208.76C156.037 208.693 156.563 208.578 157.083 208.411C157.599 208.245 158.094 208.026 158.568 207.766L159.859 207.021C161.787 208.38 163.833 209.536 165.995 210.484V211.578C166.016 212.115 166.089 212.641 166.214 213.167C166.339 213.687 166.51 214.193 166.734 214.682C166.953 215.172 167.219 215.635 167.531 216.073C167.844 216.51 168.193 216.911 168.583 217.286C168.969 217.656 169.391 217.984 169.844 218.276C170.297 218.562 170.771 218.807 171.271 219.005C171.771 219.203 172.281 219.349 172.813 219.448C173.339 219.547 173.87 219.599 174.406 219.594H185.594C186.141 219.599 186.682 219.547 187.219 219.443C187.755 219.339 188.281 219.187 188.787 218.979C189.292 218.776 189.776 218.521 190.234 218.224C190.693 217.922 191.115 217.578 191.505 217.198C191.896 216.812 192.245 216.396 192.552 215.943C192.859 215.49 193.12 215.016 193.339 214.51C193.552 214.005 193.714 213.49 193.828 212.953C193.943 212.417 194 211.875 194.005 211.328V210.24C196.172 209.297 198.219 208.146 200.146 206.776L201.432 207.516C201.906 207.781 202.401 207.995 202.922 208.161C203.438 208.328 203.964 208.448 204.505 208.516C205.042 208.583 205.583 208.594 206.125 208.557C206.667 208.521 207.203 208.432 207.729 208.292C208.255 208.156 208.76 207.969 209.25 207.729C209.74 207.495 210.203 207.214 210.635 206.885C211.073 206.562 211.474 206.198 211.839 205.797C212.208 205.396 212.531 204.964 212.813 204.5L218.406 195.245C218.995 194.307 219.365 193.292 219.516 192.193C219.672 191.099 219.599 190.021 219.297 188.958C218.99 187.896 218.484 186.937 217.792 186.078C217.094 185.219 216.26 184.531 215.287 184.01L214.25 183.417C214.25 182.375 214.25 181.286 214.25 180.198C214.25 179.109 214.25 178.021 214.25 176.979L215.287 176.385C216.26 175.865 217.094 175.177 217.792 174.318C218.484 173.458 218.99 172.5 219.297 171.437C219.599 170.375 219.672 169.297 219.516 168.198C219.365 167.104 218.995 166.089 218.406 165.151L212.813 155.896C212.531 155.432 212.208 155 211.839 154.599C211.474 154.198 211.073 153.833 210.635 153.505C210.203 153.182 209.74 152.901 209.25 152.667C208.76 152.427 208.255 152.24 207.729 152.099C207.203 151.964 206.667 151.875 206.125 151.839C205.583 151.802 205.042 151.812 204.505 151.88C203.964 151.948 203.438 152.062 202.922 152.234C202.401 152.401 201.906 152.615 201.432 152.88L200.146 153.62C198.214 152.26 196.167 151.109 194.005 150.156V149.068C194.026 148.505 193.99 147.943 193.896 147.385C193.802 146.833 193.656 146.292 193.453 145.766C193.25 145.24 192.995 144.734 192.693 144.26C192.391 143.786 192.042 143.349 191.646 142.943C191.255 142.536 190.823 142.177 190.359 141.859C189.891 141.542 189.401 141.271 188.88 141.057C188.359 140.839 187.823 140.672 187.271 140.562C186.714 140.453 186.156 140.401 185.594 140.406H174.406C173.859 140.401 173.318 140.453 172.781 140.557C172.245 140.661 171.724 140.812 171.214 141.021C170.708 141.224 170.224 141.479 169.766 141.776C169.313 142.078 168.885 142.422 168.495 142.802C168.104 143.187 167.755 143.604 167.448 144.057C167.141 144.51 166.88 144.984 166.662 145.49C166.448 145.995 166.287 146.51 166.172 147.047C166.063 147.583 166 148.125 165.995 148.672V149.76C163.828 150.698 161.781 151.854 159.859 153.224L158.568 152.484C158.094 152.219 157.599 152.005 157.083 151.839C156.563 151.667 156.037 151.552 155.495 151.484C154.958 151.417 154.417 151.406 153.875 151.443C153.333 151.479 152.797 151.568 152.271 151.703C151.745 151.844 151.24 152.031 150.75 152.271C150.26 152.505 149.797 152.786 149.365 153.109C148.927 153.437 148.526 153.802 148.162 154.203C147.797 154.604 147.469 155.036 147.188 155.5L141.594 164.755C141.01 165.693 140.635 166.708 140.484 167.802C140.328 168.901 140.401 169.979 140.703 171.042C141.01 172.104 141.516 173.062 142.208 173.922C142.906 174.781 143.74 175.469 144.714 175.99L145.75 176.583C145.75 177.625 145.75 178.714 145.75 179.802C145.75 180.891 145.75 181.979 145.75 183.021L144.714 183.615C143.698 184.177 142.839 184.927 142.141 185.859C141.443 186.792 140.964 187.823 140.703 188.958ZM155.552 180C155.552 178.958 155.552 177.922 155.552 176.88C155.662 176.062 155.646 175.245 155.505 174.427C155.37 173.609 155.109 172.833 154.734 172.094C154.359 171.354 153.88 170.693 153.302 170.099C152.724 169.505 152.073 169.01 151.344 168.615L150.849 168.318L154.76 161.786L155.651 162.281C156.385 162.693 157.172 162.995 157.995 163.182C158.818 163.365 159.651 163.432 160.495 163.375C161.339 163.318 162.162 163.141 162.953 162.844C163.745 162.552 164.479 162.146 165.151 161.641C166.818 160.396 168.62 159.391 170.547 158.62C171.333 158.323 172.057 157.911 172.719 157.396C173.38 156.88 173.953 156.281 174.432 155.589C174.917 154.901 175.287 154.156 175.542 153.359C175.797 152.557 175.932 151.74 175.943 150.901V150.302H184.156V150.901C184.167 151.74 184.302 152.557 184.557 153.359C184.813 154.156 185.182 154.901 185.667 155.589C186.146 156.281 186.719 156.88 187.38 157.396C188.042 157.911 188.766 158.323 189.552 158.62C191.49 159.401 193.307 160.406 194.995 161.641C195.656 162.13 196.37 162.516 197.141 162.802C197.917 163.083 198.708 163.255 199.531 163.312C200.349 163.37 201.162 163.312 201.964 163.135C202.766 162.958 203.531 162.677 204.25 162.281L205.141 161.786L209.052 168.318L208.557 168.615C207.828 169.01 207.177 169.505 206.594 170.099C206.016 170.693 205.537 171.359 205.156 172.094C204.776 172.833 204.516 173.609 204.37 174.422C204.224 175.24 204.198 176.057 204.302 176.88C204.526 177.911 204.672 178.948 204.745 180C204.745 181.036 204.745 182.078 204.745 183.12C204.635 183.937 204.651 184.755 204.792 185.573C204.927 186.391 205.188 187.167 205.563 187.906C205.938 188.646 206.417 189.307 206.995 189.901C207.573 190.495 208.224 190.99 208.953 191.385L209.448 191.682L205.537 198.214L204.646 197.719C203.922 197.323 203.156 197.042 202.349 196.865C201.542 196.693 200.724 196.63 199.901 196.687C199.078 196.745 198.276 196.917 197.505 197.203C196.729 197.484 196.01 197.87 195.344 198.359C193.677 199.604 191.875 200.609 189.948 201.38C189.162 201.677 188.438 202.083 187.776 202.604C187.115 203.12 186.542 203.719 186.063 204.411C185.578 205.099 185.208 205.844 184.953 206.641C184.698 207.443 184.563 208.26 184.552 209.099V209.693H175.891V209.099C175.88 208.26 175.75 207.443 175.495 206.641C175.234 205.844 174.865 205.099 174.385 204.411C173.906 203.719 173.333 203.12 172.672 202.604C172.005 202.083 171.281 201.677 170.5 201.38C168.557 200.599 166.745 199.594 165.052 198.359C164.396 197.87 163.677 197.484 162.906 197.198C162.135 196.917 161.339 196.745 160.521 196.687C159.698 196.63 158.891 196.687 158.083 196.865C157.281 197.042 156.521 197.323 155.797 197.719L154.906 198.214L151 191.682L151.495 191.385C152.219 190.984 152.875 190.495 153.453 189.901C154.037 189.307 154.516 188.641 154.896 187.906C155.271 187.167 155.537 186.391 155.682 185.578C155.828 184.76 155.849 183.943 155.75 183.12C155.594 182.083 155.51 181.047 155.5 180H155.552Z" fill="white"/>
<path d="M180 196.083C181.057 196.083 182.104 195.979 183.141 195.776C184.172 195.568 185.182 195.266 186.156 194.859C187.13 194.458 188.057 193.958 188.938 193.375C189.813 192.787 190.625 192.12 191.375 191.375C192.12 190.625 192.787 189.813 193.375 188.938C193.964 188.057 194.458 187.13 194.859 186.156C195.266 185.177 195.568 184.172 195.776 183.135C195.984 182.104 196.083 181.057 196.083 180C196.083 178.943 195.984 177.896 195.776 176.859C195.568 175.828 195.266 174.818 194.859 173.844C194.458 172.87 193.964 171.943 193.375 171.063C192.787 170.188 192.12 169.375 191.375 168.625C190.625 167.88 189.813 167.214 188.938 166.625C188.057 166.037 187.13 165.542 186.156 165.141C185.182 164.734 184.172 164.432 183.141 164.224C182.104 164.016 181.057 163.917 180 163.917C178.943 163.917 177.896 164.016 176.865 164.224C175.828 164.432 174.823 164.734 173.844 165.141C172.87 165.542 171.943 166.037 171.063 166.625C170.188 167.214 169.375 167.88 168.625 168.625C167.88 169.375 167.214 170.188 166.625 171.063C166.042 171.943 165.542 172.87 165.141 173.844C164.734 174.818 164.432 175.828 164.224 176.859C164.021 177.896 163.917 178.943 163.917 180C163.917 181.057 164.026 182.099 164.234 183.135C164.443 184.167 164.75 185.172 165.151 186.146C165.557 187.12 166.052 188.047 166.641 188.922C167.229 189.802 167.896 190.615 168.641 191.359C169.385 192.104 170.198 192.771 171.078 193.359C171.953 193.948 172.88 194.443 173.854 194.849C174.828 195.25 175.833 195.557 176.865 195.766C177.901 195.974 178.943 196.083 180 196.083ZM180 173.813C180.406 173.813 180.807 173.854 181.208 173.932C181.604 174.01 181.995 174.13 182.37 174.287C182.745 174.438 183.099 174.63 183.438 174.854C183.776 175.083 184.089 175.339 184.375 175.625C184.662 175.912 184.917 176.224 185.146 176.563C185.37 176.901 185.563 177.255 185.714 177.63C185.87 178.005 185.99 178.396 186.068 178.792C186.146 179.193 186.188 179.594 186.188 180C186.188 180.406 186.146 180.807 186.068 181.208C185.99 181.604 185.87 181.99 185.714 182.365C185.563 182.745 185.37 183.099 185.146 183.438C184.917 183.776 184.662 184.089 184.375 184.375C184.089 184.662 183.776 184.917 183.438 185.146C183.099 185.37 182.745 185.557 182.37 185.714C181.995 185.87 181.604 185.99 181.208 186.068C180.807 186.146 180.406 186.188 180 186.188C179.594 186.188 179.193 186.146 178.792 186.068C178.396 185.99 178.01 185.87 177.635 185.714C177.255 185.557 176.901 185.37 176.563 185.146C176.224 184.917 175.912 184.662 175.625 184.375C175.339 184.089 175.083 183.776 174.854 183.438C174.63 183.099 174.443 182.745 174.287 182.365C174.13 181.99 174.01 181.604 173.932 181.208C173.854 180.807 173.813 180.406 173.813 180C173.813 179.594 173.854 179.193 173.932 178.792C174.01 178.396 174.13 178.005 174.287 177.63C174.443 177.255 174.63 176.901 174.854 176.563C175.083 176.224 175.339 175.912 175.625 175.625C175.912 175.339 176.224 175.083 176.563 174.854C176.901 174.63 177.255 174.438 177.635 174.287C178.01 174.13 178.396 174.01 178.792 173.932C179.193 173.854 179.594 173.813 180 173.813Z" fill="white"/>
<path d="M120.609 184.948H125.557V175.052H120.609C118.828 175.052 117.047 175.135 115.276 175.313C113.5 175.49 111.74 175.75 109.99 176.099C108.24 176.443 106.51 176.875 104.807 177.396C103.099 177.911 101.422 178.51 99.7761 179.193C98.1303 179.875 96.5209 180.641 94.948 181.479C93.3751 182.318 91.849 183.234 90.3647 184.224C88.8803 185.214 87.4532 186.276 86.073 187.406C84.6928 188.542 83.3751 189.734 82.1147 190.995C80.8542 192.255 79.6563 193.578 78.5261 194.953C77.3959 196.333 76.3334 197.766 75.3438 199.245C74.3542 200.729 73.4376 202.255 72.599 203.828C71.7553 205.401 70.9949 207.01 70.3126 208.656C69.6303 210.307 69.0313 211.984 68.5105 213.688C67.9949 215.396 67.5626 217.12 67.2136 218.87C66.8647 220.62 66.6042 222.38 66.4324 224.156C66.2553 225.932 66.1667 227.708 66.1667 229.49C66.1667 231.276 66.2553 233.052 66.4324 234.828C66.6042 236.604 66.8647 238.365 67.2136 240.115C67.5626 241.859 67.9949 243.589 68.5105 245.297C69.0313 247 69.6303 248.677 70.3126 250.323C70.9949 251.974 71.7553 253.583 72.599 255.156C73.4376 256.729 74.3542 258.255 75.3438 259.74C76.3334 261.219 77.3959 262.651 78.5261 264.031C79.6563 265.406 80.8542 266.729 82.1147 267.99C83.3751 269.25 84.6928 270.443 86.073 271.573C87.4532 272.708 88.8803 273.766 90.3647 274.755C91.849 275.75 93.3751 276.662 94.948 277.505C96.5209 278.344 98.1303 279.104 99.7761 279.787C101.422 280.469 103.099 281.073 104.807 281.589C106.51 282.104 108.24 282.537 109.99 282.885C111.74 283.234 113.5 283.495 115.276 283.672C117.047 283.844 118.828 283.932 120.609 283.932H181.932L172.526 289.573L177.474 298.089L202.224 283.24C202.594 283.021 202.927 282.76 203.229 282.453C203.526 282.146 203.787 281.807 204 281.432C204.208 281.057 204.37 280.667 204.479 280.25C204.589 279.833 204.646 279.412 204.646 278.984C204.646 278.552 204.589 278.13 204.479 277.719C204.37 277.302 204.208 276.906 204 276.537C203.787 276.162 203.526 275.823 203.229 275.516C202.927 275.208 202.594 274.948 202.224 274.729L177.474 259.88L172.526 268.391L181.932 274.037H120.609C119.151 274.031 117.698 273.964 116.245 273.818C114.792 273.672 113.354 273.458 111.922 273.177C110.495 272.891 109.078 272.537 107.682 272.109C106.292 271.688 104.917 271.198 103.573 270.635C102.224 270.078 100.906 269.458 99.6199 268.766C98.3334 268.078 97.0886 267.328 95.8751 266.521C94.6615 265.708 93.4897 264.844 92.3647 263.917C91.2397 262.99 90.1563 262.01 89.1251 260.979C88.099 259.948 87.1199 258.87 86.1928 257.74C85.2709 256.615 84.4011 255.443 83.5938 254.229C82.7813 253.021 82.0313 251.771 81.3438 250.484C80.6563 249.198 80.0365 247.88 79.4792 246.531C78.922 245.188 78.4272 243.813 78.0053 242.417C77.5834 241.021 77.2292 239.609 76.9428 238.177C76.6615 236.75 76.448 235.307 76.3022 233.854C76.1615 232.406 76.0886 230.948 76.0886 229.49C76.0886 228.031 76.1615 226.578 76.3022 225.125C76.448 223.677 76.6615 222.234 76.9428 220.802C77.2292 219.375 77.5834 217.964 78.0053 216.568C78.4272 215.172 78.922 213.797 79.4792 212.453C80.0365 211.104 80.6563 209.787 81.3438 208.5C82.0313 207.214 82.7813 205.964 83.5938 204.75C84.4011 203.542 85.2709 202.37 86.1928 201.24C87.1199 200.115 88.099 199.036 89.1251 198.005C90.1563 196.974 91.2397 195.995 92.3647 195.068C93.4897 194.141 94.6615 193.276 95.8751 192.464C97.0886 191.651 98.3334 190.901 99.6199 190.214C100.906 189.526 102.224 188.906 103.573 188.344C104.917 187.786 106.292 187.297 107.682 186.87C109.078 186.448 110.495 186.094 111.922 185.807C113.354 185.521 114.792 185.307 116.245 185.167C117.698 185.021 119.151 184.948 120.609 184.948Z" fill="white"/>
<path d="M239.391 76.0677H155.255V85.9636H239.391C240.849 85.9636 242.307 86.0365 243.755 86.1771C245.208 86.323 246.651 86.5365 248.078 86.823C249.51 87.1042 250.927 87.4584 252.323 87.8855C253.719 88.3073 255.088 88.7969 256.437 89.3542C257.786 89.9115 259.099 90.5365 260.385 91.224C261.677 91.9115 262.922 92.6615 264.135 93.474C265.349 94.2813 266.521 95.1511 267.646 96.0782C268.776 97 269.854 97.9792 270.885 99.0105C271.917 100.042 272.896 101.125 273.823 102.25C274.75 103.38 275.615 104.547 276.427 105.76C277.24 106.974 277.984 108.224 278.672 109.51C279.359 110.797 279.984 112.115 280.542 113.464C281.099 114.807 281.594 116.182 282.016 117.578C282.437 118.974 282.792 120.385 283.078 121.818C283.365 123.25 283.578 124.688 283.719 126.141C283.859 127.594 283.932 129.047 283.932 130.505C283.932 131.969 283.859 133.422 283.719 134.875C283.578 136.323 283.365 137.766 283.078 139.198C282.792 140.63 282.437 142.042 282.016 143.438C281.594 144.833 281.099 146.208 280.542 147.552C279.984 148.901 279.359 150.219 278.672 151.505C277.984 152.792 277.24 154.042 276.427 155.255C275.615 156.469 274.75 157.635 273.823 158.766C272.896 159.891 271.917 160.974 270.885 162.005C269.854 163.037 268.776 164.016 267.646 164.938C266.521 165.865 265.349 166.734 264.135 167.542C262.922 168.354 261.677 169.104 260.385 169.792C259.099 170.479 257.786 171.104 256.437 171.662C255.088 172.219 253.719 172.708 252.323 173.13C250.927 173.557 249.51 173.912 248.078 174.193C246.651 174.479 245.208 174.693 243.755 174.839C242.307 174.979 240.849 175.052 239.391 175.052H234.443V184.948H239.391C241.172 184.948 242.953 184.859 244.729 184.688C246.5 184.51 248.26 184.25 250.01 183.901C251.76 183.557 253.49 183.12 255.193 182.604C256.901 182.089 258.578 181.49 260.224 180.807C261.87 180.125 263.479 179.359 265.052 178.521C266.625 177.682 268.156 176.766 269.635 175.776C271.12 174.781 272.552 173.724 273.927 172.594C275.307 171.458 276.625 170.266 277.885 169.005C279.146 167.745 280.344 166.422 281.474 165.047C282.604 163.667 283.667 162.234 284.656 160.755C285.646 159.271 286.562 157.745 287.401 156.172C288.245 154.599 289.005 152.99 289.687 151.344C290.37 149.693 290.969 148.016 291.49 146.313C292.005 144.604 292.437 142.875 292.786 141.13C293.135 139.38 293.396 137.62 293.568 135.844C293.745 134.068 293.833 132.292 293.833 130.505C293.833 128.724 293.745 126.948 293.568 125.172C293.396 123.396 293.135 121.635 292.786 119.885C292.437 118.141 292.005 116.412 291.49 114.703C290.969 113 290.37 111.323 289.687 109.672C289.005 108.026 288.245 106.417 287.401 104.844C286.562 103.271 285.646 101.745 284.656 100.26C283.667 98.7813 282.604 97.349 281.474 95.9688C280.344 94.5938 279.146 93.2709 277.885 92.0105C276.625 90.75 275.307 89.5573 273.927 88.4219C272.552 87.2917 271.12 86.2344 269.635 85.2396C268.156 84.25 266.625 83.3334 265.052 82.4948C263.479 81.6563 261.87 80.8907 260.224 80.2084C258.578 79.5261 256.901 78.9271 255.193 78.4115C253.49 77.8907 251.76 77.4584 250.01 77.1146C248.26 76.7657 246.5 76.5052 244.729 76.3282C242.953 76.1563 241.172 76.0677 239.391 76.0677Z" fill="white"/>
<mask id="mask2_7_42" style="mask-type:luminance" maskUnits="userSpaceOnUse" x="26" y="26" width="111" height="110">
<path d="M26.573 26.5729H136.219V135.698H26.573V26.5729Z" fill="white"/>
</mask>
<g mask="url(#mask2_7_42)">
<path d="M81.0157 135.458C82.797 135.458 84.5782 135.37 86.3542 135.193C88.1251 135.021 89.8907 134.76 91.6355 134.411C93.3855 134.063 95.1147 133.63 96.8178 133.115C98.5261 132.594 100.203 131.995 101.849 131.313C103.5 130.63 105.109 129.87 106.682 129.026C108.25 128.188 109.781 127.271 111.261 126.281C112.745 125.292 114.177 124.229 115.552 123.099C116.932 121.969 118.25 120.771 119.511 119.51C120.771 118.25 121.969 116.932 123.099 115.552C124.229 114.177 125.292 112.745 126.281 111.26C127.271 109.781 128.188 108.25 129.031 106.677C129.87 105.104 130.63 103.495 131.313 101.849C131.995 100.203 132.594 98.5261 133.115 96.8177C133.63 95.1146 134.063 93.3854 134.412 91.6354C134.761 89.8854 135.021 88.125 135.198 86.3542C135.37 84.5781 135.458 82.7969 135.458 81.0156C135.458 79.2344 135.37 77.4531 135.198 75.6771C135.021 73.9063 134.761 72.1459 134.412 70.3959C134.063 68.6459 133.63 66.9167 133.115 65.2136C132.594 63.5052 131.995 61.8281 131.313 60.1823C130.63 58.5365 129.87 56.9271 129.031 55.3542C128.188 53.7813 127.271 52.25 126.281 50.7709C125.292 49.2865 124.229 47.8594 123.099 46.4792C121.969 45.099 120.771 43.7813 119.511 42.5209C118.25 41.2604 116.932 40.0625 115.552 38.9323C114.177 37.8021 112.745 36.7396 111.261 35.75C109.781 34.7604 108.25 33.8438 106.682 33.0052C105.109 32.1615 103.5 31.4011 101.849 30.7188C100.203 30.0365 98.5261 29.4375 96.8178 28.9167C95.1147 28.4011 93.3855 27.9688 91.6355 27.6198C89.8907 27.2709 88.1251 27.0104 86.3542 26.8386C84.5782 26.6615 82.797 26.5729 81.0157 26.5729C79.2345 26.5729 77.4532 26.6615 75.6824 26.8386C73.9063 27.0104 72.1459 27.2709 70.3959 27.6198C68.6459 27.9688 66.9167 28.4011 65.2136 28.9167C63.5053 29.4375 61.8282 30.0365 60.1824 30.7188C58.5365 31.4011 56.9272 32.1615 55.3542 33.0052C53.7813 33.8438 52.2553 34.7604 50.7709 35.75C49.2865 36.7396 47.8595 37.8021 46.4792 38.9323C45.099 40.0625 43.7813 41.2604 42.5209 42.5209C41.2605 43.7813 40.0626 45.099 38.9324 46.4792C37.8022 47.8594 36.7397 49.2865 35.7501 50.7709C34.7605 52.25 33.8438 53.7813 33.0053 55.3542C32.1615 56.9271 31.4011 58.5365 30.7188 60.1823C30.0365 61.8281 29.4376 63.5052 28.922 65.2136C28.4011 66.9167 27.9688 68.6459 27.6199 70.3959C27.2761 72.1459 27.0105 73.9063 26.8386 75.6771C26.6615 77.4531 26.573 79.2344 26.573 81.0156C26.573 82.7969 26.6615 84.5781 26.8386 86.3542C27.0105 88.125 27.2761 89.8854 27.6199 91.6354C27.9688 93.3854 28.4011 95.1146 28.922 96.8177C29.4376 98.5261 30.0365 100.203 30.7188 101.849C31.4011 103.495 32.1615 105.104 33.0053 106.677C33.8438 108.25 34.7605 109.781 35.7501 111.26C36.7397 112.745 37.8022 114.177 38.9324 115.552C40.0626 116.932 41.2605 118.25 42.5209 119.51C43.7813 120.771 45.099 121.969 46.4792 123.099C47.8595 124.229 49.2865 125.292 50.7709 126.281C52.2553 127.271 53.7813 128.188 55.3542 129.026C56.9272 129.87 58.5365 130.63 60.1824 131.313C61.8282 131.995 63.5053 132.594 65.2136 133.115C66.9167 133.63 68.6459 134.063 70.3959 134.411C72.1459 134.76 73.9063 135.021 75.6824 135.193C77.4532 135.37 79.2345 135.458 81.0157 135.458ZM81.0157 36.474C82.474 36.474 83.9324 36.5469 85.3803 36.6875C86.8334 36.8281 88.2761 37.0469 89.7084 37.3281C91.1355 37.6146 92.5522 37.9688 93.948 38.3906C95.3438 38.8125 96.7136 39.3073 98.0626 39.8646C99.4115 40.4219 100.729 41.0469 102.016 41.7344C103.302 42.4219 104.552 43.1719 105.761 43.9792C106.974 44.7917 108.146 45.6563 109.276 46.5834C110.401 47.5104 111.479 48.4896 112.511 49.5209C113.547 50.5521 114.521 51.6302 115.448 52.7604C116.375 53.8854 117.24 55.0573 118.052 56.2709C118.865 57.4844 119.609 58.7344 120.302 60.0209C120.99 61.3073 121.609 62.6198 122.167 63.9688C122.729 65.3177 123.219 66.6875 123.641 68.0834C124.063 69.4792 124.417 70.8959 124.703 72.3281C124.99 73.7552 125.203 75.1979 125.344 76.6511C125.49 78.1042 125.557 79.5573 125.557 81.0156C125.557 82.474 125.49 83.9323 125.344 85.3802C125.203 86.8334 124.99 88.2761 124.703 89.7031C124.417 91.1354 124.063 92.5521 123.641 93.9479C123.219 95.3438 122.729 96.7136 122.167 98.0625C121.609 99.4115 120.99 100.724 120.302 102.016C119.609 103.302 118.865 104.547 118.052 105.76C117.24 106.974 116.375 108.146 115.448 109.271C114.521 110.401 113.547 111.479 112.511 112.51C111.479 113.542 110.401 114.521 109.276 115.448C108.146 116.375 106.974 117.24 105.761 118.052C104.552 118.865 103.302 119.609 102.016 120.297C100.729 120.984 99.4115 121.609 98.0626 122.167C96.7136 122.724 95.3438 123.219 93.948 123.641C92.5522 124.063 91.1355 124.417 89.7084 124.703C88.2761 124.99 86.8334 125.203 85.3803 125.344C83.9324 125.49 82.474 125.557 81.0157 125.557C79.5574 125.557 78.1042 125.49 76.6511 125.344C75.198 125.203 73.7553 124.99 72.3282 124.703C70.8959 124.417 69.4845 124.063 68.0886 123.641C66.6928 123.219 65.3178 122.724 63.9688 122.167C62.6251 121.609 61.3074 120.984 60.0209 120.297C58.7345 119.609 57.4845 118.865 56.2709 118.052C55.0574 117.24 53.8855 116.375 52.7605 115.448C51.6303 114.521 50.5522 113.542 49.5209 112.51C48.4897 111.479 47.5105 110.401 46.5834 109.271C45.6615 108.146 44.7917 106.974 43.9792 105.76C43.172 104.547 42.422 103.302 41.7345 102.016C41.047 100.724 40.422 99.4115 39.8647 98.0625C39.3074 96.7136 38.8126 95.3438 38.3907 93.9479C37.9688 92.5521 37.6147 91.1354 37.3282 89.7031C37.047 88.2761 36.8334 86.8334 36.6876 85.3802C36.547 83.9323 36.474 82.474 36.474 81.0156C36.474 79.5573 36.547 78.1042 36.6876 76.6511C36.8334 75.1979 37.047 73.7552 37.3282 72.3281C37.6147 70.8959 37.9688 69.4792 38.3907 68.0834C38.8126 66.6875 39.3074 65.3177 39.8647 63.9688C40.422 62.6198 41.047 61.3073 41.7345 60.0209C42.422 58.7344 43.172 57.4844 43.9792 56.2709C44.7917 55.0573 45.6615 53.8854 46.5834 52.7604C47.5105 51.6302 48.4897 50.5521 49.5209 49.5209C50.5522 48.4896 51.6303 47.5104 52.7605 46.5834C53.8855 45.6563 55.0574 44.7917 56.2709 43.9792C57.4845 43.1719 58.7345 42.4219 60.0209 41.7344C61.3074 41.0469 62.6251 40.4219 63.9688 39.8646C65.3178 39.3073 66.6928 38.8125 68.0886 38.3906C69.4845 37.9688 70.8959 37.6146 72.3282 37.3281C73.7553 37.0469 75.198 36.8281 76.6511 36.6875C78.1042 36.5469 79.5574 36.474 81.0157 36.474Z" fill="white"/>
</g>
<path d="M81.0156 56.2709C81.6667 56.2709 82.3125 56.3334 82.9479 56.4584C83.5833 56.5886 84.2031 56.7761 84.8021 57.0209C85.4063 57.2709 85.974 57.5781 86.5156 57.9375C87.0573 58.2969 87.5573 58.7084 88.0156 59.1667C88.474 59.6302 88.8854 60.1302 89.2448 60.6667C89.6094 61.2084 89.9115 61.7813 90.1615 62.3802C90.4115 62.9792 90.599 63.599 90.724 64.2396C90.849 64.875 90.9167 65.5209 90.9167 66.1667C90.9167 66.8177 90.849 67.4636 90.724 68.099C90.599 68.7344 90.4115 69.3542 90.1615 69.9584C89.9115 70.5573 89.6094 71.125 89.2448 71.6667C88.8854 72.2084 88.474 72.7084 88.0156 73.1667C87.5573 73.625 87.0573 74.0365 86.5156 74.3959C85.974 74.7604 85.4063 75.0625 84.8021 75.3125C84.2031 75.5625 83.5833 75.75 82.9479 75.875C82.3125 76.0052 81.6667 76.0677 81.0156 76.0677C80.3594 76.0677 79.7292 76.1927 79.125 76.4427C78.5156 76.6927 77.9792 77.0521 77.5156 77.5156C77.0521 77.9792 76.6927 78.5156 76.4427 79.1198C76.1927 79.7292 76.0677 80.3594 76.0677 81.0156V95.8646H85.9635V85.3229C87.1563 85.0156 88.3073 84.599 89.4219 84.0781C90.5365 83.5573 91.5938 82.9323 92.5885 82.2136C93.5885 81.4948 94.5104 80.6927 95.3594 79.8021C96.2083 78.9063 96.9635 77.9479 97.6354 76.9167C98.3021 75.8802 98.8698 74.7969 99.3333 73.6615C99.8021 72.5209 100.156 71.349 100.406 70.1459C100.656 68.9375 100.792 67.724 100.813 66.4948C100.833 65.2656 100.74 64.0417 100.531 62.8281C100.328 61.6146 100.01 60.4323 99.5833 59.2813C99.1563 58.125 98.625 57.0209 97.9896 55.9688C97.3594 54.9115 96.6354 53.9271 95.8177 53.0052C95 52.0886 94.1042 51.25 93.1354 50.5C92.1615 49.7448 91.125 49.0886 90.0313 48.5313C88.9375 47.9688 87.8021 47.5156 86.6198 47.1667C85.4427 46.8177 84.2396 46.5834 83.0156 46.4584C81.7917 46.3334 80.5677 46.3229 79.3385 46.4271C78.1146 46.5313 76.9115 46.75 75.724 47.0781C74.5417 47.4063 73.3958 47.8386 72.2917 48.3854C71.1875 48.9271 70.1406 49.5625 69.1563 50.3021C68.1719 51.0365 67.2656 51.8594 66.4323 52.7656C65.599 53.6719 64.8594 54.6459 64.2083 55.6927C63.5625 56.7344 63.0104 57.8281 62.5677 58.9792C62.1198 60.125 61.7865 61.3021 61.5573 62.5104C61.3333 63.7188 61.2188 64.9375 61.2188 66.1667H71.1198C71.1198 65.5209 71.1823 64.875 71.3073 64.2396C71.4375 63.599 71.625 62.9792 71.8698 62.3802C72.1198 61.7813 72.4271 61.2084 72.7865 60.6667C73.1458 60.1302 73.5573 59.6302 74.0156 59.1667C74.4792 58.7084 74.9792 58.2969 75.5156 57.9375C76.0573 57.5781 76.6302 57.2709 77.2292 57.0209C77.8281 56.7761 78.4479 56.5886 79.0833 56.4584C79.724 56.3334 80.3646 56.2709 81.0156 56.2709Z" fill="white"/>
<path d="M76.0676 105.76H85.9635V115.662H76.0676V105.76Z" fill="white"/>
</svg>
