<svg width="360" height="360" viewBox="0 0 360 360" fill="none" xmlns="http://www.w3.org/2000/svg">
<mask id="mask0_7_43" style="mask-type:luminance" maskUnits="userSpaceOnUse" x="27" y="52" width="306" height="256">
<path d="M27.6489 52.2356H332.351V307.764H27.6489V52.2356Z" fill="white"/>
</mask>
<g mask="url(#mask0_7_43)">
<path fill-rule="evenodd" clip-rule="evenodd" d="M324.344 166.481C325.062 158.726 334.774 149.357 331.555 140.948C329.232 132.356 316.123 130.865 310.997 125.433C307.481 118.991 309.987 106.046 302.657 101.272C295.862 95.7253 284.243 102.109 276.913 100.554C269.999 97.1565 264.16 85.1627 254.983 85.6382C245.865 85.1627 240.026 97.1565 233.053 100.554C225.723 102.049 214.104 95.7253 207.314 101.272C206.656 101.688 206.18 102.287 205.645 102.822C195.215 56.4058 134.254 34.869 97.4857 71.9205C48.2072 122.571 103.27 203.949 168.818 176.266C171.676 174.954 179.723 170.656 185.384 165.942C185.562 168.809 184.547 171.612 182.284 175.43C177.757 182.828 176.861 188.855 179.486 193.688C177.039 192.911 174.597 192.193 172.156 191.539C171.259 191.301 170.427 191.123 169.531 190.94C167.505 190.464 165.48 189.989 163.395 189.628C163.335 189.628 163.335 189.568 163.276 189.568C162.681 189.449 162.023 189.449 161.428 189.33C159.224 188.974 157.016 188.676 154.753 188.434C153.623 188.315 152.549 188.256 151.415 188.137C150.642 188.077 149.869 187.959 149.092 187.959C148.913 187.959 148.794 188.018 148.616 188.018C144.862 187.84 141.167 187.84 137.413 188.018C137.235 188.018 137.116 187.959 136.938 187.959C136.398 187.959 135.863 188.077 135.328 188.137C132.822 188.315 130.381 188.558 127.939 188.914C126.686 189.093 125.374 189.211 124.125 189.449C123.65 189.509 123.229 189.568 122.754 189.628C122.575 189.687 122.397 189.806 122.219 189.87C111.61 191.836 101.24 195.119 91.6465 199.952C90.037 200.844 87.7141 201.74 86.164 203.053C70.6127 211.704 56.9088 223.935 46.8949 239.505C46.8949 239.505 32.1758 271.303 31.2841 274.586C30.1501 278.761 29.734 281.925 28.9613 285.981C28.065 291.948 27.9461 297.435 27.6489 303.462C27.6489 305.789 29.5557 307.76 31.938 307.76C52.4368 307.76 254.27 307.76 254.329 307.76C256.652 307.76 258.559 305.848 258.559 303.462C258.44 282.222 253.433 264.801 243.424 246.186C240.744 241.773 237.941 237.539 234.9 233.478C241.16 237.717 246.762 247.74 255.161 247.32C264.279 247.8 270.118 235.806 277.092 232.404C284.421 230.913 296.04 237.237 302.835 231.691C310.165 226.917 307.6 213.972 311.175 207.529C316.361 202.156 329.411 200.606 331.734 192.014C334.774 183.546 325.062 174.236 324.344 166.481ZM103.508 156.874C68.6465 122.749 93.5533 61.239 142.896 61.6551C177.039 61.2985 203.62 93.2195 197.835 126.627C196.23 127.939 193.784 129.073 191.223 130.266C177.277 135.635 174.36 144.464 182.046 157.235C161.607 178.292 123.408 178.233 103.508 156.874ZM192.056 208.302C192.056 208.302 174.895 256.927 165.301 284.074C163.276 264.266 160.354 235.806 159.938 231.334L165.896 198.937C167.149 199.234 168.461 199.413 169.709 199.769C170.249 199.893 170.843 200.012 171.438 200.19C174.895 201.146 178.352 202.275 181.69 203.588C181.749 203.588 181.808 203.652 181.927 203.652C185.265 205.023 188.722 206.573 192.056 208.302ZM113.993 200.368C114.829 200.131 115.721 199.952 116.558 199.71C117.687 199.413 118.881 199.234 120.015 198.997L125.973 231.393L120.609 284.133L93.8505 208.302C100.289 204.904 107.084 202.335 113.993 200.368ZM152.073 226.917H133.838L128.415 197.447C130.678 197.145 133.005 196.907 135.328 196.729C140.395 196.372 145.516 196.372 150.582 196.729C152.905 196.907 155.169 197.145 157.496 197.447L152.073 226.917ZM134.075 235.449H151.716L158.269 299.108H127.642L134.075 235.449ZM53.8086 244.219C62.03 231.988 72.579 221.489 84.9157 213.432C85.3318 213.135 85.8074 212.897 86.2829 212.6C92.0078 228.828 110.659 281.687 116.855 299.108H36.1082C36.945 279.419 42.9624 260.685 53.8086 244.219ZM249.798 299.108H168.996L199.564 212.6C199.683 212.66 199.742 212.719 199.865 212.778L200.876 213.432C200.995 214.329 201.114 215.284 201.173 216.359C202.01 231.092 209.34 236.464 223.46 233.062C239.551 251.737 248.728 274.229 249.798 299.108ZM323.453 189.33C320.412 194.639 307.664 196.491 304.088 202.458C299.497 207.707 301.582 220.236 297.59 224.768C295.862 226.021 291.751 225.307 287.7 224.589C283.05 223.757 278.404 222.92 274.234 224.292C270.118 225.664 266.963 229.006 263.685 232.344C260.644 235.509 257.548 238.732 254.983 238.732C248.609 237.658 242.71 226.021 235.737 224.292C232.815 223.039 228.824 223.515 224.891 224.233C224.475 224.233 224.059 224.292 223.638 224.411C219.349 225.188 215.12 225.961 212.376 224.768C210.648 223.515 210.113 219.399 209.637 215.284C209.399 213.551 209.161 211.882 208.86 210.213C208.86 210.094 208.8 209.975 208.8 209.852C208.265 207.168 207.492 204.543 205.883 202.399C203.318 198.878 199.088 196.907 194.858 194.941C184.968 190.702 184.547 188.914 189.733 179.545C191.937 175.311 194.2 170.953 194.2 166.422C194.2 161.886 191.996 157.592 189.733 153.294C187.766 149.476 185.8 145.717 186.514 143.573C187.231 141.424 191.045 139.636 194.858 137.903C198.613 136.174 202.307 134.322 204.927 131.519C205.046 131.4 205.165 131.341 205.224 131.222C205.467 130.984 205.705 130.742 205.883 130.504C208.503 126.983 209.038 122.333 209.637 117.678C210.648 107.18 212.019 106.283 222.271 108.373C226.917 109.205 231.567 110.042 235.737 108.67C239.848 107.298 243.008 103.956 246.282 100.613C253.73 92.3233 256.295 92.3828 263.744 100.613C266.963 103.956 270.178 107.298 274.293 108.67C278.463 110.042 283.109 109.205 287.759 108.373C298.066 106.224 299.378 107.239 300.393 117.678C300.988 122.333 301.523 126.983 304.147 130.504C306.708 134.025 310.938 135.996 315.172 137.962C318.985 139.755 322.799 141.542 323.512 143.632C324.226 149.896 315.231 159.261 315.826 166.481C315.172 173.642 324.107 183.066 323.453 189.33ZM254.983 121.734C215.595 121.199 195.393 171.077 223.4 198.1C239.254 215.344 270.777 215.284 286.625 198.1C314.513 171.077 294.371 121.199 254.983 121.734ZM229.418 192.074C196.646 157.235 245.747 108.071 280.548 140.889C313.325 175.727 264.22 224.887 229.418 192.074Z" fill="white"/>
</g>
</svg>
