<svg width="126" height="118" viewBox="0 0 126 118" fill="none" xmlns="http://www.w3.org/2000/svg">
<mask id="mask0_5_8544" style="mask-type:luminance" maskUnits="userSpaceOnUse" x="57" y="0" width="28" height="35">
<path d="M57.9324 0H84.599V34.0521H57.9324V0Z" fill="white"/>
</mask>
<g mask="url(#mask0_5_8544)">
<path d="M58.6875 0.020813V34C67.375 34 76.0625 32.8385 84.5573 30.526C79.5365 12.9583 69.5 1.37498 58.6875 0.020813Z" fill="white"/>
</g>
<mask id="mask1_5_8544" style="mask-type:luminance" maskUnits="userSpaceOnUse" x="28" y="0" width="28" height="35">
<path d="M28.5991 0H55.2658V34.0521H28.5991V0Z" fill="white"/>
</mask>
<g mask="url(#mask1_5_8544)">
<path d="M29.1511 30.3333C37.8386 32.4531 46.3334 33.8073 55.0209 34V0.020813C44.2084 1.37498 34.172 12.9583 29.1511 30.3333Z" fill="white"/>
</g>
<path d="M25.4844 55.0416H55.0208V37.8594C46.1406 37.6666 37.0677 36.5104 28.1875 34.1927C26.4479 40.7552 25.6771 47.7083 25.4844 55.0416Z" fill="white"/>
<path d="M26.4479 88.0573C21.8125 89.2136 17.1823 90.9531 12.5469 92.6875C20.0781 102.146 30.1146 108.714 41.3125 111.802C35.3281 106.781 30.1146 98.6719 26.4479 88.0573Z" fill="white"/>
<path d="M28.9583 83.4219C37.6458 81.2969 46.3333 80.1406 54.8281 79.9479V58.9011H25.4844C25.6771 67.3959 26.8333 75.8906 28.9583 83.4219Z" fill="white"/>
<path d="M54.8283 113.922V83.8073C46.7189 84 38.4168 85.1615 30.1147 87.0886C35.521 102.729 44.7866 112.766 54.8283 113.922Z" fill="white"/>
<path d="M92.0886 55.0417H113.708C113.323 45.1979 110.62 35.7344 105.406 27.4375C100 29.75 94.5938 31.6823 89.3855 33.2292C91.1199 40.1771 91.8907 47.5156 92.0886 55.0417Z" fill="white"/>
<path d="M88.4167 29.5573C93.4375 28.2083 98.4583 26.276 103.281 24.1562C95.7552 13.3437 84.75 5.61977 72.2031 2.14581C79.151 7.74477 84.75 17.3958 88.4167 29.5573Z" fill="white"/>
<path d="M85.5208 34.3854C76.6406 36.7031 67.5677 37.8594 58.6875 37.8594V55.0417H88.224C88.0313 47.9011 87.2604 40.9479 85.5208 34.3854Z" fill="white"/>
<mask id="mask2_5_8544" style="mask-type:luminance" maskUnits="userSpaceOnUse" x="0" y="58" width="26" height="33">
<path d="M0 58.0521H25.9323V90.0521H0V58.0521Z" fill="white"/>
</mask>
<g mask="url(#mask2_5_8544)">
<path d="M21.6198 58.901H0C0.385417 69.9062 3.85937 80.526 10.0365 89.5989C15.0573 87.4739 20.2708 85.7395 25.0938 84.3854C22.974 76.4739 21.8125 67.7864 21.6198 58.901Z" fill="white"/>
</g>
<mask id="mask3_5_8544" style="mask-type:luminance" maskUnits="userSpaceOnUse" x="0" y="26" width="25" height="30">
<path d="M0 26.0521H24.599V55.3854H0V26.0521Z" fill="white"/>
</mask>
<g mask="url(#mask3_5_8544)">
<path d="M24.3229 33.0364C18.9167 31.4895 13.5104 29.5573 8.10938 27.2448C3.08854 35.7343 0.385417 45.1979 0 55.0416H21.6198C21.8125 47.5156 22.5885 39.9843 24.3229 33.0364Z" fill="white"/>
</g>
<path d="M71.6198 78.9792C71.6198 78.7865 71.6198 78.7865 71.8177 78.5938L70.4635 76.0834C69.3073 73.7709 69.8854 71.0677 71.6198 69.3281L77.2188 63.7292C78.9583 61.9948 81.6615 61.6042 83.7865 62.5729L86.4896 63.9219C86.6823 63.9219 86.6823 63.9219 86.875 63.7292C87.8385 61.4115 87.8385 60.2552 89.1927 58.9011H58.6875V79.9479C61.5833 79.9479 64.6719 80.1406 67.5677 80.3334C68.5313 79.9479 68.9219 79.9479 71.6198 78.9792Z" fill="white"/>
<path d="M41.3125 2.14581C28.9583 5.61977 17.9531 13.3437 10.4219 24.1562C15.4427 26.276 20.4635 28.0156 25.2917 29.3646C28.9583 17.2031 34.5573 7.74477 41.3125 2.14581Z" fill="white"/>
<path d="M71.62 100.026C71.62 99.8334 71.62 99.8334 71.4272 99.6406L68.7241 98.6719C66.4116 97.9011 64.8647 95.7761 64.8647 93.2656V85.3542C64.8647 84.9636 64.8647 84.3854 65.0575 84C62.9325 83.8073 61.0054 83.8073 58.8804 83.8073V113.922C62.9325 113.536 66.9897 111.417 70.6564 108.13C69.6929 106.396 69.5002 104.271 70.4637 102.536L71.62 100.026Z" fill="white"/>
<mask id="mask4_5_8544" style="mask-type:luminance" maskUnits="userSpaceOnUse" x="68" y="60" width="58" height="58">
<path d="M68.5991 60.7188H125.932V117.943H68.5991V60.7188Z" fill="white"/>
</mask>
<g mask="url(#mask4_5_8544)">
<path d="M124.136 83.6147L119.693 82.0678C119.307 80.9115 118.729 79.7553 118.344 78.5938L120.464 74.349C120.849 73.5782 120.656 72.6095 120.078 72.0313C119.886 71.8386 114.287 66.2397 114.479 66.4324C113.901 65.8542 112.938 65.6615 112.36 66.047L108.11 68.172C106.953 67.5886 105.792 67.2032 104.636 66.8178L103.089 62.3803C102.896 61.6042 102.125 61.0261 101.162 61.0261H93.245C92.4741 61.0261 91.6981 61.6042 91.5054 62.3803L89.771 66.8178C89.3856 66.8178 89.1929 67.0105 88.995 67.2032C88.0314 67.5886 87.2606 67.9792 86.4897 68.3647L82.047 66.047C81.2762 65.6615 80.5054 65.8542 79.922 66.4324L74.3231 72.0313C73.745 72.6095 73.5522 73.5782 73.9377 74.349L76.0627 78.5938C75.4845 79.7553 75.0991 80.9115 74.7137 82.0678L70.0783 83.6147C69.3075 83.8074 68.7241 84.5782 68.7241 85.3542V93.2657C68.7241 94.0418 69.3075 94.8126 70.0783 95.0053L74.5158 96.547C74.9064 97.7084 75.2918 98.8647 75.87 100.026L73.745 104.271C73.3595 105.042 73.5522 105.818 74.1304 106.589L79.7293 112.188C79.7293 112.188 79.7293 112.188 79.922 112.38L80.1147 112.573C80.6981 112.958 81.4689 113.151 82.2397 112.766L86.4897 110.641C87.646 111.224 88.8022 111.609 89.9637 111.995L91.5054 116.432C91.6981 117.208 92.4741 117.787 93.245 117.787H101.162C101.932 117.787 102.703 117.208 103.089 116.432L104.636 111.995C105.792 111.609 106.953 111.224 108.11 110.641L112.36 112.766C113.13 113.151 113.901 112.958 114.479 112.38L120.078 106.781C120.656 106.203 120.849 105.234 120.464 104.464L118.344 100.219C118.922 99.0574 119.307 97.9011 119.693 96.7449L124.136 95.198C124.906 95.0053 125.485 94.2345 125.485 93.4584V85.547C125.485 84.5782 124.906 83.8074 124.136 83.6147ZM98.2658 100.99C90.7345 101.568 85.3283 95.7761 85.3283 89.4063C85.3283 83.0365 90.5418 77.6303 97.1043 77.6303C103.672 77.6303 108.88 82.8438 108.88 89.4063C108.688 95.3907 104.25 100.412 98.2658 100.99Z" fill="white"/>
</g>
</svg>
