<svg width="400" height="400" viewBox="0 0 400 400" fill="none" xmlns="http://www.w3.org/2000/svg">
<mask id="mask0_24_122" style="mask-type:luminance" maskUnits="userSpaceOnUse" x="46" y="27" width="308" height="346">
<path d="M46.1284 27H353.871V373H46.1284V27Z" fill="white"/>
</mask>
<g mask="url(#mask0_24_122)">
<path d="M153.778 50.8284C156.808 49.2609 159.913 47.8538 163.091 46.6071C166.269 45.3605 169.503 44.2866 172.793 43.3794C176.082 42.4784 179.415 41.744 182.778 41.1885C186.148 40.6331 189.536 40.2566 192.943 40.0591C196.349 39.8616 199.756 39.837 203.163 39.9974C206.576 40.1579 209.964 40.4911 213.34 41.0096C216.715 41.5218 220.048 42.213 223.35 43.077C226.651 43.9472 229.898 44.984 233.095 46.1875C230.823 47.1379 228.916 48.5758 227.38 50.4952C224.578 54.5252 222.591 58.9193 221.418 63.6899C221.202 65.2204 220.801 66.7016 220.208 68.1334C219.622 69.5652 218.863 70.9044 217.931 72.1449C217.005 73.3792 215.938 74.4839 214.728 75.4528C213.518 76.4217 212.21 77.224 210.797 77.8597C200.095 83.0499 193.208 95.4609 189.308 104.946C188.869 106.051 188.512 107.181 188.234 108.335C187.956 109.489 187.771 110.661 187.666 111.846C187.561 113.025 187.543 114.21 187.617 115.395C187.685 116.58 187.839 117.759 188.086 118.919C188.326 120.079 188.647 121.221 189.061 122.338C189.468 123.449 189.956 124.529 190.523 125.572C191.091 126.615 191.733 127.608 192.443 128.559C193.159 129.509 193.936 130.404 194.776 131.237C196.288 132.7 197.96 133.959 199.781 135.014C201.601 136.063 203.527 136.878 205.551 137.452C207.575 138.026 209.643 138.347 211.747 138.408C213.846 138.476 215.925 138.279 217.981 137.828C228.194 135.705 231.453 137.236 232.002 137.563C232.243 137.686 232.453 137.853 232.632 138.051C232.712 139.742 232.545 141.402 232.138 143.037C230.867 148.406 230.854 153.776 232.095 159.145C232.872 162.644 233.236 166.186 233.193 169.766C233.391 177.159 233.669 187.287 244.746 189.817C246.629 190.021 248.511 190.021 250.393 189.817C252.282 189.62 254.121 189.219 255.923 188.626C257.719 188.027 259.435 187.25 261.07 186.287C262.699 185.324 264.211 184.201 265.606 182.917C267.84 181.319 269.889 179.505 271.747 177.48C273.604 175.45 275.234 173.253 276.628 170.883C278.023 168.519 279.159 166.032 280.035 163.422C280.911 160.817 281.51 158.145 281.825 155.411C281.93 153.078 282.522 150.875 283.584 148.795C284.651 146.715 286.096 144.95 287.922 143.5C288.589 142.951 289.2 142.346 289.755 141.692C290.311 141.031 290.811 140.328 291.243 139.581C291.675 138.834 292.039 138.057 292.329 137.248C292.625 136.44 292.841 135.607 292.989 134.755C293.137 133.909 293.205 133.052 293.199 132.188C293.193 131.324 293.113 130.472 292.952 129.626C292.798 128.775 292.563 127.948 292.261 127.139C291.952 126.337 291.582 125.559 291.138 124.825L295.785 123.578C296.198 126.337 296.495 129.114 296.674 131.898C296.853 134.687 296.908 137.47 296.853 140.266C296.791 143.056 296.612 145.839 296.316 148.616C296.019 151.393 295.606 154.152 295.069 156.892C294.538 159.632 293.89 162.348 293.125 165.032C292.366 167.717 291.489 170.365 290.496 172.975C289.508 175.586 288.41 178.147 287.2 180.665C285.991 183.183 284.682 185.645 283.263 188.046C281.843 190.453 280.325 192.792 278.708 195.069C277.091 197.34 275.382 199.544 273.574 201.673C271.771 203.802 269.877 205.851 267.896 207.82C265.921 209.782 263.86 211.664 261.718 213.454C259.577 215.25 257.367 216.947 255.077 218.546C252.794 220.15 250.449 221.65 248.036 223.051C245.623 224.458 243.154 225.754 240.63 226.945C238.106 228.136 235.538 229.216 232.922 230.185C230.305 231.16 227.651 232.018 224.96 232.765C222.276 233.505 219.56 234.135 216.814 234.647C214.074 235.166 211.315 235.561 208.538 235.838C205.761 236.116 202.978 236.27 200.188 236.313C197.398 236.35 194.615 236.27 191.832 236.073C189.048 235.875 186.277 235.561 183.519 235.128C180.766 234.69 178.032 234.141 175.323 233.475C172.614 232.808 169.941 232.024 167.294 231.129C164.652 230.228 162.054 229.222 159.499 228.105C156.944 226.988 154.439 225.76 151.982 224.427C149.532 223.094 147.144 221.662 144.811 220.126C142.484 218.589 140.226 216.96 138.035 215.225C135.844 213.497 133.727 211.677 131.697 209.77C129.66 207.857 127.71 205.863 125.84 203.79C123.976 201.716 122.205 199.562 120.52 197.334C118.841 195.106 117.255 192.81 115.768 190.447C115.336 189.755 114.787 189.175 114.12 188.706C113.454 188.237 112.725 187.91 111.929 187.731C111.133 187.552 110.337 187.528 109.528 187.67C108.726 187.805 107.979 188.095 107.294 188.527C106.603 188.966 106.023 189.515 105.554 190.181C105.085 190.848 104.758 191.576 104.579 192.372C104.4 193.168 104.375 193.971 104.517 194.773C104.653 195.575 104.937 196.322 105.375 197.013C106.319 198.513 107.301 199.994 108.319 201.444C109.337 202.901 110.386 204.333 111.472 205.734C112.559 207.141 113.682 208.517 114.83 209.862C115.984 211.214 117.169 212.535 118.385 213.831C119.6 215.12 120.847 216.386 122.124 217.614C123.402 218.848 124.704 220.051 126.043 221.218C127.376 222.39 128.74 223.526 130.129 224.631C131.518 225.735 132.931 226.803 134.375 227.84C135.813 228.871 137.282 229.877 138.769 230.839C140.256 231.802 141.768 232.734 143.305 233.623C144.836 234.518 146.391 235.369 147.971 236.19C149.545 237.005 151.137 237.782 152.748 238.523C154.365 239.263 155.994 239.967 157.635 240.627C159.283 241.288 160.943 241.911 162.622 242.491C164.301 243.071 165.985 243.614 167.689 244.114C169.392 244.614 171.108 245.071 172.83 245.49C174.552 245.904 176.286 246.28 178.032 246.614C179.773 246.947 181.525 247.237 183.278 247.49C185.037 247.737 186.796 247.947 188.561 248.107C190.332 248.274 192.097 248.397 193.875 248.471C195.646 248.552 197.417 248.589 199.194 248.582C200.966 248.576 202.737 248.527 204.508 248.434C206.279 248.342 208.051 248.206 209.816 248.027C211.581 247.854 213.34 247.632 215.098 247.367C216.851 247.107 218.598 246.805 220.338 246.453C222.078 246.108 223.806 245.719 225.528 245.293C227.25 244.861 228.96 244.392 230.657 243.88C232.36 243.367 234.045 242.812 235.717 242.22C237.384 241.621 239.044 240.991 240.686 240.319C242.327 239.64 243.95 238.93 245.555 238.177C247.166 237.424 248.752 236.634 250.319 235.807C251.893 234.974 253.436 234.11 254.966 233.209C256.491 232.302 257.997 231.364 259.478 230.389C260.959 229.414 262.422 228.402 263.853 227.352C265.285 226.309 266.692 225.229 268.075 224.112C269.457 223.001 270.809 221.854 272.136 220.675C273.462 219.496 274.758 218.286 276.024 217.04C277.295 215.799 278.529 214.528 279.739 213.226C280.942 211.924 282.115 210.597 283.263 209.239C284.405 207.875 285.509 206.493 286.589 205.079C287.663 203.666 288.706 202.234 289.712 200.772C290.718 199.309 291.687 197.822 292.625 196.316C293.557 194.804 294.458 193.273 295.316 191.724C296.18 190.169 297.001 188.595 297.784 187.003C298.574 185.417 299.321 183.806 300.025 182.177C300.734 180.548 301.401 178.906 302.03 177.246C302.66 175.586 303.246 173.907 303.795 172.222C304.345 170.531 304.851 168.834 305.32 167.118C305.783 165.403 306.209 163.681 306.591 161.947C306.974 160.212 307.313 158.472 307.616 156.726C307.912 154.973 308.171 153.22 308.387 151.455C308.603 149.69 308.776 147.925 308.899 146.154C309.029 144.382 309.121 142.611 309.165 140.84C309.208 139.063 309.208 137.285 309.165 135.514C309.128 133.737 309.041 131.965 308.918 130.194C308.788 128.423 308.622 126.658 308.406 124.893C308.196 123.134 307.943 121.375 307.646 119.622C307.35 117.876 307.011 116.129 306.628 114.395C306.252 112.661 305.826 110.939 305.363 109.223C304.9 107.514 304.394 105.81 303.851 104.119C303.308 102.435 302.722 100.756 302.092 99.0959C301.469 97.4357 300.802 95.7879 300.099 94.1587C299.389 92.5294 298.648 90.9186 297.865 89.3264C297.081 87.7341 296.26 86.1604 295.402 84.6052C294.544 83.0561 293.649 81.5194 292.718 80.0135C291.786 78.5015 290.817 77.0142 289.811 75.5515C288.805 74.0889 287.768 72.6448 286.694 71.2315C285.62 69.8182 284.516 68.4358 283.374 67.0719C282.232 65.7141 281.06 64.3811 279.856 63.0789C278.653 61.7767 277.418 60.4992 276.153 59.2587C274.888 58.0121 273.592 56.7963 272.265 55.6175C270.944 54.4388 269.593 53.2847 268.21 52.1677C266.834 51.0568 265.427 49.9706 263.995 48.9214C262.564 47.8723 261.107 46.8602 259.626 45.8851C258.145 44.9038 256.645 43.9595 255.121 43.0585C253.59 42.1513 252.047 41.2811 250.48 40.4479C248.912 39.621 247.326 38.8248 245.715 38.0719C244.111 37.319 242.488 36.6031 240.846 35.9242C239.211 35.2515 237.55 34.6097 235.884 34.0172C234.212 33.4186 232.527 32.8631 230.83 32.3509C229.132 31.8325 227.423 31.3573 225.701 30.9253C223.979 30.4933 222.251 30.1045 220.511 29.7527C218.77 29.4009 217.024 29.0985 215.271 28.8331C213.518 28.5678 211.76 28.3456 209.995 28.1605C208.23 27.9815 206.458 27.8457 204.687 27.747C202.916 27.6544 201.145 27.605 199.367 27.5927C197.596 27.5803 195.819 27.6174 194.047 27.6914C192.276 27.7716 190.505 27.8889 188.74 28.0494C186.975 28.2098 185.21 28.4135 183.457 28.6603C181.698 28.9072 179.945 29.1973 178.205 29.5244C176.459 29.8576 174.724 30.2279 173.002 30.6476C171.274 31.0611 169.565 31.5178 167.862 32.0115C166.158 32.5114 164.467 33.0483 162.789 33.6284C161.11 34.2024 159.45 34.8257 157.802 35.4799C156.154 36.1402 154.525 36.8376 152.908 37.5782C151.297 38.3126 149.699 39.0902 148.125 39.9049C147.403 40.2813 146.78 40.7812 146.255 41.4045C145.731 42.0279 145.348 42.7314 145.101 43.5028C144.854 44.2805 144.768 45.0766 144.836 45.8851C144.91 46.6997 145.132 47.465 145.502 48.1932C145.879 48.9153 146.379 49.5386 147.002 50.0632C147.619 50.5877 148.323 50.9766 149.094 51.2234C149.872 51.4703 150.668 51.5628 151.476 51.495C152.291 51.4271 153.056 51.2049 153.778 50.8284ZM293.23 111.525L287.404 113.087C286.416 113.327 285.478 113.685 284.577 114.154C283.682 114.623 282.855 115.197 282.096 115.87C281.343 116.543 280.677 117.302 280.103 118.135C279.535 118.974 279.072 119.863 278.714 120.813C278.128 122.529 277.986 124.282 278.289 126.065C278.591 127.855 279.301 129.46 280.424 130.885C281.276 132.015 281.072 133.15 279.813 134.255C278.27 135.533 276.875 136.958 275.635 138.526C274.388 140.099 273.327 141.784 272.438 143.58C271.549 145.382 270.864 147.252 270.377 149.196C269.889 151.14 269.605 153.115 269.537 155.121C269.235 156.935 268.76 158.707 268.106 160.422C267.445 162.144 266.624 163.78 265.643 165.335C264.656 166.89 263.52 168.328 262.249 169.655C260.971 170.982 259.57 172.167 258.058 173.21C256.633 174.592 255.01 175.684 253.189 176.481C251.368 177.277 249.461 177.721 247.48 177.82C246.258 177.542 245.697 177.412 245.481 169.433C245.518 164.89 245.012 160.404 243.975 155.979C243.234 152.375 243.321 148.789 244.234 145.228C245.185 139.964 246.616 132.002 238.334 127.022C234.73 125.424 230.959 124.516 227.022 124.3C223.078 124.091 219.233 124.584 215.475 125.788C214.438 126.028 213.389 126.146 212.321 126.133C211.26 126.121 210.211 125.979 209.18 125.714C208.149 125.442 207.162 125.053 206.224 124.547C205.286 124.041 204.428 123.43 203.638 122.708C202.762 121.9 202.021 120.974 201.422 119.931C200.824 118.894 200.398 117.796 200.132 116.623C199.867 115.457 199.781 114.278 199.873 113.081C199.966 111.889 200.237 110.735 200.676 109.624C202.002 105.391 203.996 101.503 206.656 97.948C209.31 94.3994 212.482 91.3938 216.166 88.9252C218.338 87.9193 220.363 86.6726 222.245 85.1853C224.121 83.6979 225.8 82.0131 227.281 80.1308C228.762 78.2423 230.003 76.2119 230.996 74.0333C231.996 71.8548 232.724 69.5837 233.187 67.2323C233.959 63.9244 235.267 60.8386 237.118 57.9874C241.278 55.8212 245.703 54.7227 250.393 54.6918C255.565 57.901 260.397 61.5545 264.89 65.6586C269.383 69.7627 273.456 74.2432 277.122 79.1002C280.782 83.9633 283.966 89.1165 286.676 94.566C289.385 100.015 291.57 105.669 293.23 111.525ZM353.131 264.635C352.859 262.931 352.415 261.271 351.791 259.66C351.174 258.05 350.397 256.519 349.459 255.069C348.52 253.618 347.447 252.279 346.231 251.057C345.015 249.829 343.688 248.743 342.25 247.792C341.09 247.003 339.874 246.317 338.603 245.737C337.325 245.157 336.011 244.688 334.653 244.336C333.295 243.978 331.919 243.744 330.524 243.627C329.13 243.516 327.735 243.516 326.34 243.639C324.945 243.769 323.569 244.009 322.217 244.373C320.86 244.731 319.551 245.207 318.28 245.799C317.009 246.385 315.793 247.077 314.639 247.873C313.491 248.675 312.411 249.564 311.417 250.545L273.74 287.691C268.877 282.785 259.243 277.582 240.179 276.613C231.737 276.2 223.448 274.848 215.314 272.546C207.18 270.244 199.404 267.06 191.998 262.987C185.833 259.321 179.248 256.753 172.225 255.291C152.711 251.563 135.622 254.482 125.328 263.32C118.52 268.714 111.028 272.861 102.851 275.774V273.034C102.851 271.824 102.734 270.621 102.493 269.436C102.258 268.245 101.907 267.097 101.444 265.974C100.981 264.857 100.413 263.795 99.7404 262.789C99.0677 261.777 98.3024 260.851 97.4446 259.994C96.5929 259.136 95.661 258.37 94.6551 257.698C93.6491 257.025 92.5876 256.457 91.4644 255.994C90.3473 255.525 89.1994 255.18 88.0083 254.939C86.8234 254.705 85.6261 254.581 84.4165 254.581H52.2691C51.4544 254.581 50.6707 254.735 49.9177 255.05C49.1648 255.365 48.5045 255.809 47.9243 256.383C47.3504 256.957 46.906 257.624 46.5913 258.377C46.2827 259.13 46.1284 259.919 46.1284 260.734V365.884C46.1284 366.699 46.2827 367.483 46.5913 368.236C46.906 368.989 47.3504 369.655 47.9243 370.235C48.5045 370.809 49.1648 371.254 49.9177 371.568C50.6707 371.877 51.4544 372.031 52.2691 372.031H84.4165C85.6261 372.031 86.8234 371.914 88.0083 371.673C89.1994 371.439 90.3473 371.087 91.4644 370.624C92.5876 370.161 93.6491 369.594 94.6551 368.921C95.661 368.242 96.5929 367.483 97.4446 366.625C98.3024 365.767 99.0677 364.835 99.7404 363.829C100.413 362.823 100.981 361.756 101.444 360.639C101.907 359.522 102.258 358.368 102.493 357.183C102.734 355.992 102.851 354.794 102.851 353.585V352.801L120.205 351.406C131.425 350.517 142.441 351.61 153.272 354.677C153.655 354.751 192.109 362.681 204.743 365.607C213.654 367.73 222.696 368.834 231.86 368.909C235.662 369.026 239.451 368.834 243.222 368.341C246.993 367.841 250.696 367.045 254.337 365.946C257.978 364.841 261.508 363.459 264.927 361.787C268.346 360.108 271.605 358.17 274.703 355.967C295.229 340.594 345.817 286.321 348.341 283.569C350.415 280.884 351.872 277.891 352.705 274.602C353.538 271.312 353.68 267.986 353.131 264.635ZM90.5633 353.585C90.5572 354.399 90.4029 355.183 90.0881 355.936C89.7796 356.689 89.3352 357.349 88.7551 357.929C88.1811 358.503 87.5146 358.948 86.7679 359.262C86.0149 359.577 85.2312 359.731 84.4165 359.731H58.4159V266.881H84.4165C85.2312 266.887 86.0149 267.041 86.7679 267.356C87.5146 267.665 88.1811 268.109 88.7551 268.689C89.3352 269.263 89.7796 269.93 90.0881 270.683C90.4029 271.436 90.5572 272.219 90.5633 273.034V353.585ZM338.967 275.632C338.449 276.188 286.99 331.398 267.34 346.117C249.332 359.608 224.874 357.639 207.514 353.622C194.739 350.659 157.333 342.951 156.167 342.729C144.064 339.322 131.752 338.131 119.224 339.149L102.851 340.464V289.037C113.953 285.321 124.112 279.866 133.338 272.658C136.856 269.633 147.459 263.092 169.917 267.375C175.595 268.584 180.927 270.683 185.901 273.676C194.152 278.218 202.805 281.773 211.865 284.34C220.924 286.914 230.157 288.426 239.556 288.895C263.551 290.117 266.501 297.128 266.723 300.565C266.692 302.336 266.118 303.916 265.007 305.292C262.687 308.625 255.775 314.568 235.52 317.037C231.465 317.537 227.417 317.463 223.381 316.815C219.344 316.167 215.481 314.963 211.784 313.217C206.094 310.736 200.182 309.045 194.041 308.156C187.894 307.267 181.748 307.212 175.588 307.983C174.774 308.07 174.015 308.304 173.299 308.693C172.583 309.082 171.966 309.594 171.453 310.23C170.941 310.859 170.571 311.569 170.336 312.347C170.102 313.13 170.028 313.926 170.114 314.735C170.201 315.55 170.435 316.309 170.824 317.031C171.213 317.747 171.719 318.358 172.354 318.876C172.984 319.388 173.694 319.759 174.471 319.993C175.255 320.228 176.045 320.302 176.86 320.221C182.056 319.549 187.253 319.592 192.437 320.351C197.627 321.116 202.613 322.567 207.403 324.708C212.068 326.689 216.913 328.059 221.924 328.831C226.935 329.596 231.965 329.738 237.007 329.25C256.515 326.868 269.463 320.974 275.499 311.729C277.918 308.113 279.085 304.132 278.992 299.781L320.045 259.309C320.551 258.815 321.107 258.37 321.693 257.969C322.279 257.574 322.902 257.229 323.551 256.939C324.199 256.649 324.865 256.414 325.556 256.241C326.247 256.068 326.945 255.957 327.655 255.908C328.364 255.859 329.074 255.871 329.778 255.945C330.487 256.013 331.185 256.149 331.864 256.346C332.549 256.537 333.209 256.791 333.851 257.105C334.493 257.414 335.097 257.778 335.671 258.198C336.344 258.667 336.967 259.197 337.541 259.784C338.109 260.376 338.615 261.018 339.066 261.709C339.51 262.4 339.887 263.122 340.189 263.888C340.497 264.647 340.726 265.437 340.874 266.245C341.028 267.048 341.102 267.862 341.096 268.683C341.09 269.51 341.004 270.318 340.843 271.127C340.676 271.929 340.436 272.713 340.121 273.472C339.806 274.231 339.424 274.953 338.967 275.632ZM54.0712 90.4434C46.258 123.078 85.3299 141.179 98.0617 146.141C98.2037 154.621 97.4322 163.014 95.7413 171.327C95.5808 172.13 95.587 172.926 95.7474 173.728C95.9079 174.524 96.2165 175.265 96.6731 175.944C97.1237 176.616 97.6914 177.184 98.3703 177.635C99.0492 178.085 99.7898 178.388 100.592 178.548C101.388 178.702 102.19 178.702 102.987 178.542C103.789 178.375 104.523 178.073 105.202 177.616C105.875 177.159 106.443 176.592 106.893 175.913C107.344 175.234 107.646 174.493 107.807 173.697C109.609 164.699 110.442 155.621 110.294 146.45C123.414 142.988 154.513 131.577 155.222 100.849C155.111 96.2817 155.802 91.8382 157.29 87.5119C158.777 83.1919 160.968 79.2668 163.869 75.7367C164.677 74.9097 165.214 73.9346 165.486 72.8114C165.751 71.682 165.708 70.5711 165.35 69.4726C164.998 68.3679 164.381 67.4422 163.505 66.6831C162.634 65.924 161.622 65.4488 160.487 65.2574C139.676 62.11 123.316 64.0108 111.701 70.8427C99.8823 61.6286 81.195 56.1915 55.5462 54.8029C54.3551 54.7659 53.2442 55.0498 52.2135 55.6546C51.1891 56.2594 50.3991 57.0925 49.8498 58.154C49.3006 59.2094 49.0722 60.3326 49.1648 61.5237C49.2635 62.7148 49.6709 63.7886 50.3806 64.7452C51.5902 66.6275 52.5838 68.6209 53.3614 70.7192C54.1452 72.8176 54.6945 74.9776 55.0154 77.1932C55.3302 79.4087 55.4104 81.6367 55.2499 83.8707C55.0895 86.1048 54.7007 88.2957 54.0712 90.4434ZM148.822 76.3106C145.002 83.9448 143.04 92.0295 142.935 100.565C142.558 117.049 129.172 126.158 117.878 130.941C124.519 118.326 130.487 100.484 123.106 84.6113C122.322 83.0499 121.433 81.5564 120.427 80.1308C124.92 78.304 129.574 77.0636 134.381 76.4156C139.195 75.7675 144.009 75.7367 148.822 76.3106ZM111.96 89.7954C117.101 100.861 112.559 114.414 107.393 124.436C105.943 117.808 103.493 111.575 100.043 105.73C96.5929 99.892 92.3161 94.7326 87.2122 90.2644C86.558 89.7892 85.836 89.4498 85.0522 89.2585C84.2622 89.061 83.4661 89.024 82.67 89.1474C81.8677 89.2647 81.1148 89.53 80.4235 89.9497C79.7262 90.3632 79.1337 90.9001 78.6523 91.5481C78.1648 92.2023 77.8253 92.9182 77.6217 93.702C77.4242 94.4919 77.381 95.2819 77.4921 96.0904C77.6093 96.8927 77.8685 97.6394 78.282 98.343C78.6893 99.0403 79.2201 99.6328 79.8619 100.127C82.1269 102.206 84.2005 104.465 86.0705 106.909C87.9466 109.347 89.5944 111.933 91.0262 114.66C92.4518 117.388 93.6306 120.215 94.5687 123.146C95.5067 126.078 96.1856 129.065 96.5991 132.114C83.4908 126.022 61.3906 112.655 66.0254 93.307C67.0869 89.1289 67.5621 84.8829 67.451 80.5752C67.3399 76.2674 66.6549 72.0523 65.3836 67.9297C90.5448 70.6884 106.56 78.1744 111.96 89.7954ZM157.148 211.812C157.765 212.683 158.469 213.46 159.271 214.152C160.073 214.843 160.943 215.429 161.888 215.91C162.832 216.392 163.819 216.75 164.85 216.99C165.881 217.231 166.93 217.342 167.985 217.33H168.01C177.409 217.33 182.63 209.831 183.506 195.057C183.642 192.835 185.673 191.619 192.122 188.836L195.084 187.54C196.485 186.812 197.787 185.929 198.991 184.905C200.188 183.88 201.262 182.732 202.2 181.461C203.138 180.19 203.928 178.826 204.557 177.375C205.187 175.931 205.644 174.425 205.928 172.87C206.36 171.451 206.625 170 206.724 168.519C206.829 167.038 206.767 165.563 206.539 164.094C206.316 162.625 205.928 161.2 205.384 159.817C204.841 158.435 204.15 157.133 203.317 155.905C202.391 154.825 201.348 153.88 200.182 153.066C199.022 152.257 197.775 151.597 196.442 151.103C195.109 150.61 193.739 150.282 192.326 150.141C190.918 149.992 189.505 150.023 188.104 150.233C184.358 150.375 184.216 150.202 183.587 149.159C182.852 147.666 182.321 146.098 181.988 144.469C181.815 143.142 181.494 141.846 181.032 140.593C180.563 139.334 179.958 138.149 179.211 137.032C178.47 135.915 177.613 134.897 176.638 133.977C175.662 133.064 174.595 132.268 173.434 131.595C172.361 131.157 171.262 130.799 170.139 130.521C169.01 130.25 167.874 130.058 166.72 129.953C165.566 129.849 164.412 129.836 163.251 129.904C162.097 129.972 160.95 130.126 159.82 130.373C158.685 130.614 157.574 130.935 156.494 131.342C155.407 131.749 154.358 132.237 153.346 132.805C152.334 133.366 151.371 134.008 150.452 134.718C149.538 135.428 148.681 136.199 147.878 137.038C147.082 137.878 146.348 138.766 145.681 139.717C145.015 140.667 144.422 141.661 143.904 142.698C143.385 143.734 142.947 144.802 142.589 145.907C142.231 147.012 141.96 148.135 141.775 149.276C141.583 150.418 141.478 151.572 141.466 152.733C141.448 153.893 141.515 155.047 141.676 156.195C141.83 157.343 142.071 158.472 142.398 159.583C142.725 160.7 143.132 161.78 143.62 162.829C144.792 165.15 146.496 166.976 148.724 168.309C150.828 169.427 152.674 170.877 154.26 172.66C155.315 174.827 155.951 177.11 156.154 179.517C156.352 181.918 156.111 184.281 155.432 186.596C154.655 188.632 154.105 190.731 153.784 192.891C153.463 195.051 153.383 197.217 153.531 199.395C153.679 201.568 154.056 203.703 154.667 205.801C155.278 207.894 156.105 209.899 157.148 211.812ZM155 157.701C151.149 153.695 154.192 146.925 158.135 144.315C160.215 142.907 162.511 142.13 165.023 141.976C168.738 141.976 169.275 144.413 170.09 147.542C170.682 150.35 171.676 153.004 173.064 155.51C173.86 156.806 174.835 157.954 175.977 158.953C177.113 159.959 178.378 160.768 179.76 161.397C181.149 162.021 182.593 162.428 184.099 162.619C185.605 162.811 187.104 162.78 188.604 162.521C192.196 162.372 192.856 162.527 193.745 163.619C194.597 165.724 194.677 167.853 193.973 170.013C193.776 171.29 193.331 172.475 192.646 173.574C191.961 174.672 191.085 175.592 190.024 176.326L187.259 177.536C180.39 180.498 171.848 184.183 171.237 194.316C170.836 201.025 169.627 205.024 167.997 205.03C166.084 205.03 165.924 200.778 165.868 199.525C165.745 196.303 166.195 193.168 167.201 190.107C167.646 188.466 171.324 173.747 163.622 164.687C162.326 163.132 160.869 161.755 159.246 160.558C157.746 159.731 156.327 158.781 155 157.701Z" fill="white"/>
</g>
</svg>
