<svg width="400" height="400" viewBox="0 0 400 400" fill="none" xmlns="http://www.w3.org/2000/svg">
<mask id="mask0_24_121" style="mask-type:luminance" maskUnits="userSpaceOnUse" x="20" y="23" width="360" height="354">
<path d="M20.1621 23.2878H379.837V376.712H20.1621V23.2878Z" fill="white"/>
</mask>
<g mask="url(#mask0_24_121)">
<path d="M377.924 97.398L306.045 25.6393C304.893 24.4876 303.267 23.8097 301.696 23.8877C300.07 23.9177 298.522 24.6015 297.419 25.7953L275.163 49.7129C272.991 52.0524 273.033 55.6698 275.259 57.9553L276.944 59.689L268.114 68.5074L254.155 65.028C241.875 61.9446 228.659 65.6099 219.385 74.8842L193.926 104.513L164.339 74.9742C155.839 66.4858 143.463 63.5763 132.047 67.3616C131.369 67.5896 130.733 67.9375 130.176 68.3754L128.556 69.6892L124.615 65.7479L132.359 58.0153C134.699 55.6758 134.699 51.8965 132.359 49.5569L108.394 25.6393C106.054 23.2998 102.269 23.2998 99.9232 25.6393L22.0517 103.379C19.7061 105.718 19.7061 109.498 22.0517 111.837L46.0112 135.755C47.181 136.925 48.7167 137.507 50.2464 137.507C51.7821 137.507 53.3119 136.925 54.4816 135.755L57.1931 133.055L71.3865 147.225L67.9011 161.16C64.8237 173.44 68.483 186.619 77.3854 195.498L128.13 247.616V294.365C128.13 304.912 134.129 314.654 143.793 319.807C148.91 322.53 152.09 327.821 152.09 333.616V334.852H146.097C142.785 334.852 140.11 337.527 140.11 340.833V370.731C140.11 374.043 142.785 376.712 146.097 376.712H259.914C263.231 376.712 265.906 374.043 265.906 370.731V340.833C265.906 337.527 263.231 334.852 259.914 334.852H253.927V328.841L263.423 320.101C272.475 313.292 277.886 302.476 277.886 291.156V221.107C284.635 220.339 291.276 217.262 296.591 211.941L328.253 177.615C335.709 170.171 338.277 159.343 334.936 149.354C333.976 146.475 339.135 137.033 345.278 129.792C346.382 130.878 347.851 131.502 349.399 131.52C349.417 131.52 349.441 131.52 349.459 131.52C351.037 131.52 352.548 130.902 353.67 129.792L377.906 105.874C379.039 104.753 379.681 103.235 379.687 101.639C379.693 100.044 379.057 98.5258 377.924 97.398ZM50.2464 123.073L34.7573 107.608L104.158 38.321L119.654 53.7861L50.2464 123.073ZM128.658 230.999L85.9098 187.099C79.9049 181.106 77.4634 172.276 79.515 164.052L83.8282 146.835C84.3441 144.795 83.7382 142.648 82.2565 141.16L65.6636 124.597L116.144 74.2003L123.889 81.9329C126.048 84.0985 129.504 84.2725 131.879 82.3648L136.798 78.4116C143.607 76.5339 150.836 78.4056 155.869 83.4326L188.887 116.391C188.869 116.409 188.845 116.415 188.827 116.432C186.139 118.898 184.154 122.017 183.05 125.437C179.378 123.445 175.131 122.569 170.908 123.001C160.35 124.051 152.078 133.577 152.078 144.681V207.22C140.212 209.637 130.889 219.091 128.658 230.999ZM253.921 364.75H152.084V346.814H253.921V364.75ZM265.9 291.156C265.9 298.739 262.283 305.979 255.756 310.922L243.879 321.816C242.649 322.944 241.947 324.546 241.947 326.22V334.852H164.069V333.61C164.069 323.388 158.46 314.048 149.432 309.255C143.685 306.183 140.11 300.478 140.11 294.365V236.524C140.11 228.738 145.137 222.157 152.09 219.679V257.112H164.069V144.681C164.069 139.642 167.597 135.347 172.108 134.903C174.705 134.669 177.177 135.449 179.085 137.171C180.986 138.898 182.042 141.262 182.042 143.823V233.189H194.022V131.868C194.022 129.324 195.06 126.979 196.931 125.257C198.809 123.547 201.226 122.707 203.824 122.935C208.329 123.325 211.988 127.806 211.988 132.929V233.189H223.968V149.81C223.968 147.261 225.006 144.915 226.878 143.194C228.755 141.484 231.179 140.662 233.77 140.878C238.276 141.262 241.935 145.749 241.935 150.866V233.189H253.915V183.8C260.867 186.278 265.894 192.852 265.894 200.639V291.156H265.9ZM323.568 153.14C325.457 158.797 324.006 164.939 319.608 169.337L287.946 203.662C285.037 206.566 281.486 208.371 277.88 209.073V200.633C277.88 186.194 267.574 174.112 253.921 171.34V150.86C253.921 139.51 245.528 129.882 234.814 128.958C231.041 128.64 227.25 129.336 223.884 130.944C222.978 120.47 214.952 111.891 204.868 111.016C204.61 110.992 204.364 111.039 204.106 111.028L228.173 83.0067C234.178 77.0138 243.015 74.5783 251.263 76.6239L268.504 80.9311C270.544 81.447 272.703 80.8411 274.191 79.3594L285.307 68.2554L336.921 121.25C331.384 127.65 320.022 142.54 323.568 153.14ZM349.537 117.056L287.82 53.6901L301.96 38.477L365.194 101.603L349.537 117.056Z" fill="white"/>
</g>
</svg>
