<svg width="400" height="400" viewBox="0 0 400 400" fill="none" xmlns="http://www.w3.org/2000/svg">
<mask id="mask0_24_123" style="mask-type:luminance" maskUnits="userSpaceOnUse" x="117" y="225" width="235" height="155">
<path d="M117.908 225.389H351.468V379.8H117.908V225.389Z" fill="white"/>
</mask>
<g mask="url(#mask0_24_123)">
<path d="M351.468 279.99C351.468 252.273 316.018 236.377 289.348 226.839L285.426 237.803C322.026 250.896 339.819 264.7 339.819 279.99C339.819 296.455 320.252 310.668 278.267 324.728C254.662 332.572 226.34 339.577 198.953 346.345C171.102 353.234 142.29 360.356 118.049 368.475L121.744 379.537C145.539 371.589 174.118 364.529 201.749 357.694C229.38 350.86 257.905 343.811 281.956 335.815C314.317 324.942 351.468 308.795 351.468 279.99Z" fill="white"/>
</g>
<path d="M261.239 122.066L272.773 110.533L281.008 118.768L269.475 130.301L261.239 122.066Z" fill="white"/>
<path d="M194.175 82.8099H205.824V99.1157H194.175V82.8099Z" fill="white"/>
<path d="M151.015 202.83C150.66 204.121 150.581 205.43 150.77 206.758C150.96 208.079 151.407 209.315 152.104 210.46L159.091 222.06C159.434 222.623 159.826 223.149 160.272 223.633C160.713 224.116 161.196 224.557 161.729 224.954C162.255 225.346 162.818 225.682 163.405 225.97C163.998 226.251 164.616 226.478 165.253 226.649C165.889 226.814 166.532 226.918 167.192 226.961C167.847 227.004 168.502 226.986 169.156 226.9C169.805 226.82 170.447 226.674 171.071 226.465C171.696 226.264 172.295 226 172.87 225.676L174.7 224.667C177.233 226.459 179.931 227.965 182.788 229.182V230.822C182.794 231.483 182.868 232.137 183.002 232.786C183.137 233.434 183.339 234.065 183.596 234.67C183.859 235.282 184.171 235.857 184.544 236.408C184.924 236.953 185.346 237.454 185.817 237.919C186.288 238.384 186.802 238.8 187.359 239.161C187.916 239.522 188.497 239.828 189.115 240.079C189.727 240.324 190.357 240.513 191.012 240.636C191.66 240.758 192.315 240.819 192.982 240.813H206.993C207.654 240.819 208.308 240.758 208.963 240.636C209.612 240.513 210.248 240.324 210.86 240.079C211.472 239.828 212.059 239.522 212.616 239.161C213.166 238.8 213.68 238.384 214.152 237.919C214.629 237.454 215.051 236.953 215.424 236.408C215.797 235.857 216.116 235.282 216.373 234.67C216.636 234.065 216.831 233.434 216.972 232.786C217.107 232.137 217.18 231.483 217.186 230.822V229.182C220.044 227.965 222.736 226.459 225.275 224.667L227.104 225.676C227.679 226 228.279 226.264 228.903 226.465C229.527 226.674 230.17 226.82 230.818 226.9C231.473 226.986 232.128 227.004 232.782 226.961C233.443 226.918 234.086 226.814 234.722 226.649C235.358 226.484 235.976 226.257 236.57 225.97C237.157 225.682 237.72 225.346 238.246 224.954C238.772 224.557 239.262 224.122 239.702 223.633C240.143 223.149 240.541 222.623 240.877 222.06L247.87 210.46C248.568 209.315 249.008 208.079 249.198 206.758C249.388 205.43 249.308 204.121 248.96 202.83C248.599 201.514 247.999 200.315 247.155 199.244C246.316 198.174 245.295 197.305 244.101 196.65L242.535 195.787C242.853 192.936 242.853 190.085 242.535 187.234L244.095 186.371C245.288 185.71 246.31 184.848 247.155 183.777C247.999 182.706 248.599 181.513 248.96 180.198C249.308 178.907 249.394 177.591 249.204 176.263C249.015 174.936 248.568 173.7 247.87 172.556L240.877 160.955C240.534 160.398 240.137 159.878 239.69 159.395C239.243 158.918 238.76 158.483 238.234 158.092C237.702 157.706 237.145 157.37 236.551 157.088C235.958 156.807 235.346 156.58 234.716 156.415C234.079 156.25 233.437 156.14 232.782 156.097C232.128 156.054 231.473 156.073 230.824 156.152C230.176 156.232 229.54 156.372 228.915 156.568C228.291 156.77 227.686 157.027 227.11 157.339L225.281 158.355C222.742 156.562 220.05 155.057 217.192 153.839V152.206C217.186 151.545 217.113 150.89 216.978 150.242C216.838 149.587 216.642 148.963 216.385 148.351C216.122 147.739 215.804 147.164 215.43 146.613C215.057 146.069 214.635 145.561 214.158 145.096C213.687 144.637 213.173 144.221 212.616 143.86C212.065 143.493 211.478 143.187 210.86 142.942C210.248 142.691 209.612 142.508 208.963 142.385C208.315 142.263 207.654 142.202 206.993 142.208H193.012C192.345 142.202 191.691 142.263 191.036 142.385C190.387 142.508 189.757 142.698 189.139 142.942C188.527 143.193 187.94 143.499 187.383 143.86C186.833 144.221 186.319 144.637 185.848 145.102C185.37 145.567 184.948 146.069 184.575 146.619C184.202 147.164 183.884 147.745 183.627 148.351C183.363 148.963 183.168 149.593 183.027 150.242C182.892 150.89 182.819 151.545 182.813 152.206V153.852C179.955 155.069 177.263 156.574 174.73 158.367L172.901 157.357C172.326 157.045 171.726 156.788 171.096 156.586C170.472 156.385 169.836 156.244 169.187 156.164C168.532 156.085 167.884 156.066 167.229 156.115C166.574 156.158 165.926 156.262 165.296 156.427C164.659 156.593 164.047 156.819 163.454 157.1C162.86 157.382 162.298 157.718 161.771 158.11C161.245 158.495 160.756 158.93 160.309 159.413C159.862 159.897 159.471 160.41 159.122 160.967L152.129 172.568C151.431 173.712 150.985 174.948 150.795 176.276C150.611 177.603 150.691 178.913 151.04 180.21C151.401 181.525 152 182.712 152.845 183.783C153.683 184.854 154.698 185.716 155.892 186.377L157.464 187.246C157.146 190.097 157.146 192.949 157.464 195.8L155.898 196.662C154.698 197.317 153.677 198.18 152.832 199.251C151.982 200.315 151.376 201.508 151.015 202.83ZM168.85 191.511C168.85 190.189 168.948 188.867 169.138 187.558C169.266 186.567 169.248 185.576 169.077 184.591C168.906 183.606 168.593 182.663 168.141 181.776C167.682 180.883 167.107 180.081 166.409 179.359C165.706 178.644 164.916 178.05 164.041 177.573L163.02 176.992L168.367 168.138L169.805 168.921C170.686 169.399 171.61 169.741 172.583 169.949C173.562 170.163 174.547 170.231 175.538 170.163C176.535 170.09 177.502 169.882 178.438 169.539C179.374 169.191 180.243 168.719 181.045 168.126C183.18 166.572 185.48 165.311 187.94 164.339C188.888 163.978 189.763 163.482 190.565 162.864C191.36 162.24 192.052 161.512 192.633 160.68C193.214 159.848 193.661 158.954 193.967 157.988C194.279 157.021 194.438 156.03 194.45 155.02V153.852H205.555V155.02C205.561 156.03 205.72 157.021 206.032 157.988C206.344 158.954 206.785 159.848 207.366 160.68C207.947 161.512 208.639 162.24 209.44 162.864C210.236 163.482 211.111 163.978 212.059 164.339C214.519 165.324 216.819 166.596 218.955 168.169C219.756 168.762 220.625 169.233 221.561 169.576C222.497 169.925 223.464 170.133 224.455 170.206C225.452 170.273 226.437 170.206 227.41 169.998C228.383 169.784 229.313 169.447 230.188 168.97L231.632 168.181L236.98 177.028L235.976 177.585C235.095 178.062 234.3 178.656 233.602 179.372C232.899 180.087 232.323 180.895 231.865 181.788C231.412 182.676 231.094 183.618 230.928 184.603C230.757 185.594 230.733 186.585 230.867 187.576C231.247 190.207 231.247 192.844 230.867 195.475C230.733 196.473 230.757 197.464 230.922 198.449C231.094 199.434 231.406 200.376 231.865 201.27C232.317 202.157 232.899 202.964 233.596 203.68C234.3 204.396 235.089 204.996 235.97 205.473L236.98 206.024L231.632 214.877L230.188 214.082C229.313 213.611 228.383 213.274 227.41 213.06C226.431 212.852 225.446 212.785 224.455 212.858C223.458 212.931 222.491 213.139 221.555 213.482C220.625 213.831 219.756 214.302 218.948 214.895C216.813 216.462 214.519 217.734 212.059 218.719C211.111 219.08 210.236 219.57 209.44 220.194C208.639 220.818 207.947 221.546 207.372 222.372C206.791 223.204 206.344 224.104 206.032 225.07C205.726 226.031 205.561 227.022 205.555 228.038V229.2H194.45V228.038C194.438 227.022 194.279 226.031 193.967 225.07C193.655 224.104 193.214 223.204 192.633 222.372C192.052 221.546 191.36 220.818 190.559 220.194C189.763 219.57 188.888 219.08 187.94 218.719C185.48 217.734 183.18 216.456 181.045 214.889C180.243 214.296 179.374 213.825 178.438 213.482C177.502 213.133 176.535 212.925 175.544 212.858C174.547 212.785 173.562 212.852 172.589 213.06C171.61 213.274 170.686 213.611 169.805 214.082L168.367 214.877L163.02 206.024L164.035 205.473C164.916 204.996 165.706 204.396 166.403 203.68C167.107 202.964 167.682 202.157 168.135 201.27C168.593 200.376 168.906 199.434 169.077 198.449C169.248 197.464 169.266 196.473 169.138 195.475C168.942 194.166 168.85 192.838 168.85 191.511Z" fill="white"/>
<path d="M200 210.918C201.279 210.924 202.539 210.796 203.793 210.551C205.041 210.3 206.259 209.933 207.434 209.444C208.615 208.96 209.734 208.361 210.793 207.651C211.851 206.941 212.836 206.14 213.736 205.24C214.641 204.335 215.443 203.356 216.153 202.297C216.862 201.233 217.462 200.119 217.951 198.938C218.441 197.764 218.808 196.546 219.053 195.298C219.304 194.044 219.432 192.783 219.432 191.511C219.432 190.232 219.304 188.971 219.059 187.723C218.808 186.469 218.441 185.258 217.951 184.077C217.462 182.902 216.862 181.782 216.159 180.724C215.449 179.659 214.641 178.68 213.742 177.781C212.836 176.875 211.857 176.074 210.799 175.364C209.734 174.654 208.615 174.055 207.44 173.571C206.259 173.082 205.048 172.715 203.793 172.464C202.545 172.219 201.279 172.091 200.006 172.091C198.727 172.091 197.467 172.219 196.213 172.464C194.964 172.715 193.747 173.082 192.572 173.571C191.391 174.061 190.271 174.66 189.213 175.364C188.154 176.074 187.169 176.881 186.27 177.781C185.371 178.68 184.563 179.665 183.853 180.724C183.143 181.782 182.55 182.902 182.06 184.083C181.571 185.258 181.204 186.475 180.953 187.723C180.708 188.978 180.586 190.238 180.586 191.511C180.586 192.789 180.708 194.05 180.959 195.298C181.21 196.546 181.577 197.758 182.067 198.938C182.556 200.113 183.156 201.233 183.865 202.291C184.569 203.35 185.377 204.329 186.276 205.228C187.182 206.128 188.161 206.935 189.219 207.645C190.278 208.349 191.397 208.948 192.572 209.438C193.753 209.927 194.964 210.294 196.213 210.545C197.467 210.796 198.727 210.918 200 210.918ZM200 183.746C200.514 183.746 201.016 183.795 201.517 183.893C202.019 183.991 202.502 184.138 202.973 184.334C203.445 184.529 203.897 184.768 204.319 185.049C204.742 185.331 205.139 185.655 205.5 186.016C205.861 186.377 206.179 186.769 206.467 187.191C206.749 187.619 206.987 188.066 207.183 188.537C207.379 189.008 207.526 189.491 207.63 189.993C207.727 190.495 207.776 190.997 207.776 191.511C207.776 192.018 207.727 192.526 207.63 193.022C207.532 193.524 207.385 194.013 207.189 194.484C206.993 194.955 206.755 195.402 206.467 195.824C206.186 196.252 205.867 196.644 205.506 197.005C205.145 197.366 204.748 197.684 204.326 197.972C203.903 198.253 203.457 198.492 202.986 198.688C202.508 198.883 202.025 199.03 201.523 199.128C201.022 199.232 200.52 199.281 200.006 199.281C199.498 199.281 198.99 199.232 198.495 199.134C197.993 199.03 197.503 198.883 197.032 198.688C196.561 198.492 196.115 198.253 195.692 197.972C195.264 197.69 194.873 197.366 194.512 197.005C194.151 196.644 193.826 196.252 193.545 195.83C193.263 195.402 193.025 194.955 192.829 194.484C192.633 194.013 192.486 193.53 192.382 193.028C192.284 192.526 192.235 192.025 192.235 191.511C192.235 191.003 192.284 190.495 192.382 189.999C192.486 189.498 192.633 189.014 192.829 188.543C193.025 188.072 193.263 187.625 193.545 187.197C193.826 186.775 194.151 186.383 194.512 186.022C194.873 185.661 195.264 185.343 195.686 185.056C196.108 184.774 196.561 184.536 197.032 184.34C197.497 184.144 197.987 183.997 198.489 183.893C198.984 183.795 199.492 183.746 200 183.746Z" fill="white"/>
<path d="M161.551 263.77V294.778C161.551 296.032 161.612 297.293 161.735 298.541C161.857 299.795 162.047 301.037 162.292 302.273C162.536 303.509 162.842 304.727 163.209 305.932C163.57 307.137 163.999 308.318 164.476 309.481C164.959 310.643 165.498 311.781 166.091 312.895C166.685 314.002 167.333 315.079 168.031 316.125C168.728 317.172 169.481 318.181 170.276 319.154C171.078 320.133 171.922 321.063 172.815 321.95C173.702 322.843 174.632 323.688 175.605 324.483C176.584 325.285 177.594 326.031 178.64 326.729C179.686 327.432 180.763 328.075 181.877 328.668C182.984 329.262 184.122 329.8 185.285 330.283C186.447 330.767 187.634 331.189 188.84 331.556C190.045 331.917 191.262 332.223 192.498 332.468C193.734 332.712 194.976 332.902 196.231 333.025C197.485 333.147 198.739 333.208 200 333.208C201.26 333.208 202.514 333.147 203.769 333.025C205.023 332.902 206.265 332.712 207.501 332.468C208.737 332.223 209.954 331.917 211.16 331.556C212.365 331.189 213.552 330.767 214.715 330.283C215.877 329.8 217.015 329.262 218.123 328.668C219.236 328.075 220.313 327.432 221.359 326.729C222.412 326.031 223.421 325.285 224.394 324.483C225.367 323.688 226.297 322.843 227.19 321.95C228.077 321.063 228.922 320.133 229.723 319.154C230.519 318.181 231.271 317.172 231.969 316.125C232.672 315.079 233.315 314.002 233.908 312.895C234.502 311.781 235.04 310.643 235.523 309.481C236.007 308.318 236.429 307.137 236.796 305.932C237.157 304.727 237.463 303.509 237.714 302.273C237.959 301.037 238.142 299.795 238.265 298.541C238.387 297.293 238.448 296.032 238.448 294.778V263.763C241.709 262.02 244.836 260.062 247.834 257.902C250.826 255.736 253.665 253.38 256.345 250.835C259.018 248.29 261.515 245.579 263.827 242.698C266.14 239.816 268.251 236.793 270.16 233.63C272.063 230.461 273.752 227.181 275.214 223.792C276.676 220.402 277.906 216.927 278.903 213.366C279.901 209.811 280.653 206.201 281.161 202.542C281.675 198.883 281.938 195.206 281.95 191.511C281.95 188.745 281.81 185.992 281.528 183.238C281.253 180.485 280.831 177.756 280.28 175.046C279.723 172.341 279.032 169.668 278.2 167.024C277.374 164.387 276.419 161.799 275.33 159.254C274.241 156.715 273.024 154.231 271.684 151.814C270.344 149.397 268.881 147.048 267.303 144.778C265.724 142.508 264.036 140.323 262.237 138.225C260.438 136.12 258.535 134.119 256.534 132.21C254.527 130.301 252.435 128.503 250.251 126.808C248.066 125.113 245.802 123.528 243.453 122.06C241.11 120.597 238.699 119.251 236.215 118.028C233.731 116.81 231.198 115.715 228.603 114.748C226.009 113.782 223.378 112.949 220.698 112.252C218.025 111.554 215.32 110.991 212.585 110.569C209.85 110.141 207.103 109.86 204.338 109.713C201.578 109.566 198.813 109.56 196.053 109.688C193.826 109.798 191.617 109.994 189.409 110.276C187.206 110.563 185.015 110.943 182.837 111.408C180.659 111.866 178.512 112.423 176.376 113.06C174.247 113.702 172.148 114.424 170.074 115.238C168.006 116.051 165.969 116.945 163.974 117.918C161.973 118.897 160.022 119.955 158.106 121.087C156.198 122.225 154.331 123.436 152.52 124.721C150.703 126.012 148.947 127.371 147.246 128.802C145.545 130.234 143.899 131.733 142.321 133.293C140.742 134.86 139.225 136.487 137.781 138.176C136.331 139.865 134.954 141.608 133.651 143.407C132.342 145.206 131.112 147.054 129.955 148.957C128.805 150.853 127.728 152.799 126.731 154.787C125.734 156.776 124.822 158.801 123.99 160.863C123.158 162.925 122.411 165.018 121.751 167.141C121.09 169.264 120.515 171.411 120.031 173.577C119.542 175.749 119.15 177.934 118.838 180.136C118.532 182.339 118.312 184.554 118.19 186.769C118.061 188.99 118.024 191.211 118.079 193.432C118.128 195.659 118.275 197.874 118.508 200.082C118.74 202.297 119.065 204.494 119.481 206.678C119.897 208.862 120.398 211.028 120.986 213.17C121.573 215.317 122.252 217.428 123.017 219.521C123.776 221.607 124.62 223.663 125.55 225.682C126.48 227.701 127.496 229.684 128.585 231.617C129.674 233.557 130.843 235.447 132.091 237.289C133.333 239.131 134.654 240.917 136.043 242.655C137.432 244.392 138.894 246.063 140.424 247.684C141.948 249.299 143.538 250.847 145.197 252.334C146.848 253.821 148.562 255.24 150.33 256.587C152.098 257.933 153.921 259.205 155.794 260.404C157.666 261.604 159.587 262.723 161.551 263.77ZM200 321.565C198.641 321.559 197.295 321.454 195.955 321.246C194.615 321.032 193.294 320.726 192.003 320.316C190.712 319.907 189.451 319.405 188.234 318.805C187.016 318.206 185.854 317.52 184.74 316.743C183.627 315.966 182.58 315.11 181.595 314.18C180.616 313.244 179.711 312.24 178.879 311.163C178.047 310.092 177.306 308.967 176.645 307.78C175.985 306.593 175.422 305.363 174.951 304.09H225.049C224.578 305.363 224.015 306.593 223.354 307.78C222.699 308.967 221.953 310.092 221.121 311.163C220.295 312.24 219.383 313.244 218.404 314.18C217.419 315.11 216.373 315.966 215.259 316.743C214.146 317.52 212.983 318.206 211.765 318.805C210.548 319.405 209.294 319.907 207.996 320.316C206.705 320.726 205.39 321.032 204.044 321.246C202.704 321.454 201.358 321.559 200 321.565ZM226.799 292.447H173.201V278.858H226.799V292.447ZM129.992 185.049C130.188 182.963 130.475 180.889 130.855 178.833C131.234 176.771 131.705 174.734 132.268 172.715C132.831 170.695 133.486 168.707 134.226 166.749C134.966 164.785 135.792 162.864 136.704 160.979C137.616 159.095 138.607 157.253 139.684 155.454C140.761 153.656 141.917 151.912 143.153 150.217C144.383 148.522 145.686 146.889 147.069 145.31C148.445 143.731 149.889 142.22 151.407 140.77C152.918 139.32 154.497 137.943 156.13 136.634C157.77 135.331 159.465 134.095 161.209 132.938C162.958 131.782 164.751 130.705 166.593 129.708C168.441 128.711 170.325 127.799 172.246 126.973C174.174 126.147 176.131 125.4 178.12 124.752C180.115 124.097 182.128 123.534 184.171 123.057C186.209 122.586 188.271 122.207 190.345 121.913C192.419 121.625 194.505 121.43 196.598 121.326C197.766 121.264 198.886 121.246 200.024 121.246C202.325 121.246 204.619 121.356 206.913 121.583C209.202 121.809 211.478 122.145 213.736 122.598C215.993 123.045 218.22 123.608 220.423 124.275C222.626 124.942 224.792 125.719 226.921 126.6C229.044 127.481 231.124 128.46 233.156 129.549C235.187 130.632 237.157 131.813 239.072 133.091C240.981 134.37 242.829 135.741 244.609 137.203C246.39 138.659 248.091 140.207 249.718 141.829C251.346 143.456 252.888 145.163 254.35 146.944C255.812 148.718 257.183 150.566 258.455 152.481C259.734 154.39 260.921 156.366 262.004 158.391C263.087 160.423 264.072 162.503 264.953 164.626C265.834 166.749 266.605 168.915 267.272 171.118C267.945 173.32 268.502 175.547 268.949 177.805C269.401 180.063 269.738 182.339 269.964 184.627C270.185 186.916 270.301 189.21 270.301 191.511C270.282 194.814 270.038 198.1 269.567 201.367C269.089 204.641 268.386 207.859 267.456 211.028C266.532 214.198 265.388 217.288 264.023 220.298C262.665 223.308 261.099 226.208 259.33 228.998C257.562 231.788 255.604 234.444 253.463 236.958C251.321 239.473 249.015 241.829 246.543 244.019C244.071 246.21 241.458 248.223 238.705 250.046C235.952 251.875 233.082 253.497 230.102 254.922C229.093 255.406 228.285 256.115 227.686 257.064C227.086 258.006 226.786 259.04 226.78 260.16V267.196H173.201V260.178C173.201 259.058 172.895 258.024 172.295 257.082C171.702 256.134 170.894 255.418 169.885 254.941C166.636 253.417 163.534 251.661 160.56 249.667C157.586 247.666 154.784 245.451 152.153 243.028C149.522 240.599 147.087 237.98 144.86 235.178C142.633 232.382 140.626 229.427 138.852 226.312C137.077 223.204 135.554 219.98 134.275 216.633C132.996 213.286 131.981 209.866 131.228 206.366C130.475 202.866 129.998 199.33 129.79 195.757C129.582 192.184 129.649 188.61 129.992 185.049Z" fill="white"/>
<path d="M118.985 118.762L127.22 110.527L138.754 122.054L130.518 130.289L118.985 118.762Z" fill="white"/>
<mask id="mask1_24_123" style="mask-type:luminance" maskUnits="userSpaceOnUse" x="48" y="20" width="265" height="168">
<path d="M48.5312 20.1997H312.133V187.797H48.5312V20.1997Z" fill="white"/>
</mask>
<g mask="url(#mask1_24_123)">
<path d="M306.308 28.9981L273.373 20.6831C272.351 20.4261 271.341 20.4444 270.332 20.7381C269.328 21.0318 268.46 21.558 267.738 22.3167C267.016 23.0754 266.532 23.9626 266.287 24.9782C266.049 26 266.073 27.0096 266.379 28.013L269.769 39.2465C248.03 46.0013 223.165 52.1564 198.984 58.1403C171.115 65.0236 142.309 72.1455 118.068 80.2647C85.6826 91.021 48.5312 107.088 48.5312 135.888C48.5312 162.497 80.6043 177.732 104.729 186.885L108.853 175.982C76.1072 163.574 60.1869 150.456 60.1869 135.888C60.1869 119.68 80.3167 105.087 121.745 91.2902C145.546 83.3423 174.131 76.2693 201.75 69.4166C226.046 63.4083 251.065 57.1858 273.103 50.376L276.444 61.4382C276.75 62.4416 277.282 63.3043 278.053 64.0202C278.818 64.736 279.718 65.2071 280.739 65.4396C281.161 65.5314 281.59 65.5804 282.018 65.5804C283.737 65.5804 285.175 64.944 286.332 63.6714L309.19 38.5551C309.533 38.1819 309.814 37.7719 310.047 37.3253C310.279 36.8786 310.451 36.4075 310.561 35.918C310.671 35.4224 310.714 34.9268 310.695 34.4251C310.677 33.9234 310.597 33.4278 310.451 32.9506C310.304 32.4672 310.096 32.0083 309.833 31.58C309.563 31.1518 309.251 30.7663 308.884 30.4175C308.523 30.0749 308.119 29.7812 307.673 29.5365C307.232 29.2979 306.767 29.1143 306.278 28.9919L306.308 28.9981ZM284.643 48.2529L280.488 34.4802L294.041 37.9004L284.643 48.2529Z" fill="white"/>
</g>
</svg>
